<svg width="16" height="16" viewBox="0 0 16 16" fill="none" xmlns="http://www.w3.org/2000/svg">
<path d="M15.2487 1.4146C15.2487 1.61847 15.1736 1.82233 15.0126 1.98327L8.49977 8.49612C8.18861 8.80728 7.67359 8.80728 7.36244 8.49612L0.84958 1.98327C0.538422 1.67211 0.538422 1.15709 0.84958 0.845933C1.16074 0.534775 1.67576 0.534775 1.98692 0.845933L7.9311 6.79012L13.8753 0.845935C14.1865 0.534777 14.7015 0.534777 15.0126 0.845935C15.1736 0.996149 15.2487 1.21074 15.2487 1.4146Z" fill="#222222"/>
<path d="M0.617044 14.6323C0.617044 14.4284 0.692149 14.2245 0.853093 14.0636L7.36595 7.55075C7.67711 7.23959 8.19213 7.23959 8.50329 7.55075L15.0161 14.0636C15.3273 14.3748 15.3273 14.8898 15.0161 15.2009C14.705 15.5121 14.19 15.5121 13.8788 15.2009L7.93462 9.25675L1.99043 15.2009C1.67927 15.5121 1.16425 15.5121 0.853093 15.2009C0.692149 15.0507 0.617044 14.8361 0.617044 14.6323Z" fill="#222222"/>
</svg>
