<svg width="22" height="24" viewBox="0 0 22 24" fill="none" xmlns="http://www.w3.org/2000/svg">
<path d="M11.0005 0C4.92489 0 0 4.69812 0 10.4949C0 14.7756 1.73808 16.8192 4.11929 18.6824L4.13083 18.6874V23.7107C4.13083 23.9487 4.39327 24.0836 4.57688 23.9428L8.74809 20.7469L8.83845 20.7866C9.53734 20.9194 10.2603 20.9898 11.0005 20.9898C17.0761 20.9898 22 16.2907 22 10.4949C22 4.69911 17.0751 0 11.0005 0ZM7.31282 13.1534C8.39047 13.1534 9.31335 12.488 9.59117 11.4597H11.1851C10.7957 13.4389 9.30181 14.7359 7.31282 14.7359C5.00083 14.7359 3.16758 12.957 3.16758 10.482C3.16758 8.00704 4.99987 6.22814 7.31282 6.22814C9.322 6.22814 10.8255 7.55091 11.1966 9.56581H9.60655C9.36526 8.4711 8.41066 7.78889 7.31282 7.78889C5.75836 7.78889 4.72397 8.93218 4.72397 10.482C4.72397 12.0319 5.89967 13.1534 7.31282 13.1534ZM17.8211 14.5733H16.3599V11.1722C16.3599 10.3898 15.9177 9.96839 15.238 9.96839C14.4786 9.96839 13.9921 10.4473 13.9921 11.4171V14.5723H12.53V6.25491H13.9921V9.38335C14.3421 8.83501 14.9092 8.5653 15.6793 8.5653C16.3032 8.5653 16.8127 8.77551 17.2087 9.20784C17.6173 9.64017 17.8211 10.2252 17.8211 10.9848V14.5723V14.5733Z" fill="#020303"/>
</svg>
