<svg width="26" height="26" viewBox="0 0 26 26" fill="none" xmlns="http://www.w3.org/2000/svg">
<path d="M18.1987 7.8877C19.3255 7.99853 20.0839 8.24901 20.65 8.8151C21.6654 9.83046 21.6654 11.4647 21.6654 14.7331C21.6654 18.0015 21.6654 19.6357 20.65 20.651C19.6346 21.6664 18.0004 21.6664 14.732 21.6664H11.2654C7.99696 21.6664 6.36276 21.6664 5.34739 20.651C4.33203 19.6357 4.33203 18.0015 4.33203 14.7331C4.33203 11.4647 4.33203 9.83046 5.34739 8.8151C5.91349 8.24901 6.67193 7.99853 7.7987 7.8877" stroke="white" stroke-width="1.5"/>
<path d="M11.2676 7.7998H14.7342" stroke="white" stroke-width="1.5" stroke-linecap="round"/>
<path d="M12.1328 10.4004H13.8661" stroke="white" stroke-width="1.5" stroke-linecap="round"/>
<path d="M9.67182 12.8255L9.24004 12.4657C8.5323 11.8759 8.17842 11.581 7.9896 11.1779C7.80078 10.7748 7.80078 10.3141 7.80078 9.39284V8.66634C7.80078 6.62359 7.80078 5.60221 8.43538 4.96761C9.06999 4.33301 10.0914 4.33301 12.1341 4.33301H13.8674C15.9102 4.33301 16.9316 4.33301 17.5662 4.96761C18.2008 5.60221 18.2008 6.62359 18.2008 8.66634V9.39284C18.2008 10.3141 18.2008 10.7748 18.012 11.1779C17.8231 11.581 17.4693 11.8759 16.7615 12.4657L16.3297 12.8255C14.738 14.152 13.9421 14.8152 13.0008 14.8152C12.0595 14.8152 11.2636 14.152 9.67182 12.8255Z" stroke="white" stroke-width="1.5" stroke-linecap="round"/>
<path d="M7.80078 11.2666L9.67182 12.8258C11.2636 14.1523 12.0595 14.8155 13.0008 14.8155C13.9421 14.8155 14.738 14.1523 16.3297 12.8258L18.2008 11.2666" stroke="white" stroke-width="1.5" stroke-linecap="round"/>
</svg>
