<svg width="22" height="22" viewBox="0 0 22 22" fill="none" xmlns="http://www.w3.org/2000/svg">
<path d="M16.5635 9.46031C16.3894 9.46031 16.2152 9.39615 16.0777 9.25865L10.9994 4.18031L5.92104 9.25865C5.65521 9.52448 5.21521 9.52448 4.94938 9.25865C4.68354 8.99281 4.68354 8.55281 4.94938 8.28698L10.5135 2.72281C10.7794 2.45698 11.2194 2.45698 11.4852 2.72281L17.0494 8.28698C17.3152 8.55281 17.3152 8.99281 17.0494 9.25865C16.921 9.39615 16.7377 9.46031 16.5635 9.46031Z" fill="#313131"/>
<path d="M11 19.4793C10.6242 19.4793 10.3125 19.1676 10.3125 18.7918V3.36426C10.3125 2.98842 10.6242 2.67676 11 2.67676C11.3758 2.67676 11.6875 2.98842 11.6875 3.36426V18.7918C11.6875 19.1676 11.3758 19.4793 11 19.4793Z" fill="#313131"/>
</svg>
