<svg width="32" height="32" viewBox="0 0 32 32" fill="none" xmlns="http://www.w3.org/2000/svg">
<path d="M28 10.333H4C3.45333 10.333 3 9.87967 3 9.33301C3 8.78634 3.45333 8.33301 4 8.33301H28C28.5467 8.33301 29 8.78634 29 9.33301C29 9.87967 28.5467 10.333 28 10.333Z" fill="#292D32"/>
<path d="M28 17H4C3.45333 17 3 16.5467 3 16C3 15.4533 3.45333 15 4 15H28C28.5467 15 29 15.4533 29 16C29 16.5467 28.5467 17 28 17Z" fill="#292D32"/>
<path d="M28 23.667H4C3.45333 23.667 3 23.2137 3 22.667C3 22.1203 3.45333 21.667 4 21.667H28C28.5467 21.667 29 22.1203 29 22.667C29 23.2137 28.5467 23.667 28 23.667Z" fill="#292D32"/>
</svg>
