<svg width="24" height="24" viewBox="0 0 24 24" fill="none" xmlns="http://www.w3.org/2000/svg">
<path d="M15.9994 13.6008C16.4412 13.6008 16.7994 13.2426 16.7994 12.8008C16.7994 12.359 16.4412 12.0008 15.9994 12.0008C15.5576 12.0008 15.1994 12.359 15.1994 12.8008C15.1994 13.2426 15.5576 13.6008 15.9994 13.6008Z" fill="#444444"/>
<path d="M15.9994 16.8008C16.4412 16.8008 16.7994 16.4426 16.7994 16.0008C16.7994 15.559 16.4412 15.2008 15.9994 15.2008C15.5576 15.2008 15.1994 15.559 15.1994 16.0008C15.1994 16.4426 15.5576 16.8008 15.9994 16.8008Z" fill="#444444"/>
<path d="M12.7994 12.8008C12.7994 13.2426 12.4412 13.6008 11.9994 13.6008C11.5576 13.6008 11.1994 13.2426 11.1994 12.8008C11.1994 12.359 11.5576 12.0008 11.9994 12.0008C12.4412 12.0008 12.7994 12.359 12.7994 12.8008Z" fill="#444444"/>
<path d="M12.7994 16.0008C12.7994 16.4426 12.4412 16.8008 11.9994 16.8008C11.5576 16.8008 11.1994 16.4426 11.1994 16.0008C11.1994 15.559 11.5576 15.2008 11.9994 15.2008C12.4412 15.2008 12.7994 15.559 12.7994 16.0008Z" fill="#444444"/>
<path d="M7.99941 13.6008C8.44124 13.6008 8.79941 13.2426 8.79941 12.8008C8.79941 12.359 8.44124 12.0008 7.99941 12.0008C7.55759 12.0008 7.19941 12.359 7.19941 12.8008C7.19941 13.2426 7.55759 13.6008 7.99941 13.6008Z" fill="#444444"/>
<path d="M7.99941 16.8008C8.44124 16.8008 8.79941 16.4426 8.79941 16.0008C8.79941 15.559 8.44124 15.2008 7.99941 15.2008C7.55759 15.2008 7.19941 15.559 7.19941 16.0008C7.19941 16.4426 7.55759 16.8008 7.99941 16.8008Z" fill="#444444"/>
<path fill-rule="evenodd" clip-rule="evenodd" d="M7.99941 3.80078C8.33079 3.80078 8.59941 4.06941 8.59941 4.40078V5.01096C9.12901 5.00077 9.71248 5.00078 10.3542 5.00078H13.6445C14.2863 5.00078 14.8698 5.00077 15.3994 5.01096V4.40078C15.3994 4.06941 15.668 3.80078 15.9994 3.80078C16.3308 3.80078 16.5994 4.06941 16.5994 4.40078V5.06245C16.8074 5.07831 17.0043 5.09824 17.1906 5.12329C18.1286 5.24939 18.8877 5.51508 19.4864 6.11378C20.0851 6.71247 20.3508 7.47162 20.4769 8.40956C20.5994 9.32093 20.5994 10.4854 20.5994 11.9556V13.6459C20.5994 15.1161 20.5994 16.2806 20.4769 17.192C20.3508 18.1299 20.0851 18.8891 19.4864 19.4878C18.8877 20.0865 18.1286 20.3522 17.1906 20.4783C16.2793 20.6008 15.1148 20.6008 13.6446 20.6008H10.3543C8.88409 20.6008 7.71956 20.6008 6.8082 20.4783C5.87026 20.3522 5.1111 20.0865 4.51241 19.4878C3.91372 18.8891 3.64802 18.1299 3.52192 17.192C3.39939 16.2806 3.3994 15.1161 3.39941 13.6459V11.9556C3.3994 10.4854 3.39939 9.32093 3.52192 8.40956C3.64802 7.47162 3.91372 6.71247 4.51241 6.11378C5.1111 5.51508 5.87026 5.24939 6.8082 5.12329C6.99454 5.09824 7.19146 5.07831 7.39941 5.06245V4.40078C7.39941 4.06941 7.66804 3.80078 7.99941 3.80078ZM6.96809 6.31259C6.16322 6.4208 5.6995 6.62374 5.36094 6.9623C5.02237 7.30087 4.81943 7.76459 4.71122 8.56946C4.6929 8.70577 4.67757 8.84927 4.66476 9.00078H19.3341C19.3213 8.84927 19.3059 8.70577 19.2876 8.56946C19.1794 7.76459 18.9765 7.30087 18.6379 6.9623C18.2993 6.62374 17.8356 6.4208 17.0307 6.31259C16.2086 6.20205 15.1249 6.20078 13.5994 6.20078H10.3994C8.87396 6.20078 7.79023 6.20205 6.96809 6.31259ZM4.59941 12.0008C4.59941 11.3176 4.59967 10.723 4.60988 10.2008H19.3889C19.3992 10.723 19.3994 11.3176 19.3994 12.0008V13.6008C19.3994 15.1262 19.3981 16.21 19.2876 17.0321C19.1794 17.837 18.9765 18.3007 18.6379 18.6393C18.2993 18.9778 17.8356 19.1808 17.0307 19.289C16.2086 19.3995 15.1249 19.4008 13.5994 19.4008H10.3994C8.87396 19.4008 7.79022 19.3995 6.96809 19.289C6.16322 19.1808 5.6995 18.9778 5.36094 18.6393C5.02237 18.3007 4.81943 17.837 4.71122 17.0321C4.60069 16.21 4.59941 15.1262 4.59941 13.6008V12.0008Z" fill="#444444"/>
</svg>
