<svg width="26" height="26" viewBox="0 0 26 26" fill="none" xmlns="http://www.w3.org/2000/svg">
<path d="M14.3008 4.33301C14.3008 4.33301 16.3231 4.51686 18.897 7.09072C21.4708 9.66459 21.6547 11.6869 21.6547 11.6869" stroke="white" stroke-width="1.5" stroke-linecap="round"/>
<path d="M14.9141 7.39746C14.9141 7.39746 15.772 7.64259 17.059 8.92953C18.3459 10.2165 18.591 11.0744 18.591 11.0744" stroke="white" stroke-width="1.5" stroke-linecap="round"/>
<path d="M15.6865 15.6238L15.1427 15.1073L15.6865 15.6238ZM16.0812 15.2082L16.625 15.7247L16.0812 15.2082ZM18.1757 14.9175L17.8015 15.5675L18.1757 14.9175ZM19.8314 15.8706L19.4573 16.5206L19.8314 15.8706ZM20.298 18.8575L20.8418 19.374L20.298 18.8575ZM19.0669 20.1537L18.5231 19.6371L19.0669 20.1537ZM17.9187 20.7682L17.9923 21.5146L17.9187 20.7682ZM9.37253 16.8787L9.91632 16.3622L9.37253 16.8787ZM5.20172 8.63734L4.4528 8.67754V8.67754L5.20172 8.63734ZM10.8131 9.96956L11.3569 10.4861L10.8131 9.96956ZM10.9489 7.53422L11.5613 7.10123V7.10123L10.9489 7.53422ZM9.85604 5.98853L9.24365 6.42151L9.24365 6.42151L9.85604 5.98853ZM7.15914 5.72768L7.70294 6.2442L7.70294 6.2442L7.15914 5.72768ZM5.79882 7.15985L5.25503 6.64333H5.25503L5.79882 7.15985ZM12.1873 13.9153L12.7311 13.3988L12.1873 13.9153ZM16.2303 16.1403L16.625 15.7247L15.5374 14.6917L15.1427 15.1073L16.2303 16.1403ZM17.8015 15.5675L19.4573 16.5206L20.2056 15.2206L18.5498 14.2675L17.8015 15.5675ZM19.7542 18.341L18.5231 19.6371L19.6107 20.6702L20.8418 19.374L19.7542 18.341ZM17.845 20.0218C16.6272 20.142 13.4143 20.0448 9.91632 16.3622L8.82874 17.3952C12.6919 21.4624 16.3857 21.6732 17.9923 21.5146L17.845 20.0218ZM9.91632 16.3622C6.57415 12.8435 6.01966 9.88302 5.95064 8.59714L4.4528 8.67754C4.54004 10.3028 5.22952 13.6059 8.82874 17.3952L9.91632 16.3622ZM11.1083 10.7478L11.3569 10.4861L10.2693 9.45304L10.0207 9.71474L11.1083 10.7478ZM11.5613 7.10123L10.4684 5.55554L9.24365 6.42151L10.3365 7.9672L11.5613 7.10123ZM6.61535 5.21117L5.25503 6.64333L6.34262 7.67636L7.70294 6.2442L6.61535 5.21117ZM10.5645 10.2313C10.0207 9.71474 10.02 9.71547 10.0193 9.71621C10.0191 9.71646 10.0184 9.7172 10.0179 9.7177C10.017 9.71871 10.016 9.71974 10.015 9.72079C10.0131 9.72289 10.0111 9.72507 10.009 9.72734C10.0049 9.73188 10.0005 9.73676 9.99597 9.74199C9.98688 9.75244 9.97699 9.7643 9.96648 9.77758C9.94545 9.80414 9.92195 9.83644 9.89745 9.87473C9.84831 9.95152 9.79567 10.0516 9.75131 10.1763C9.66099 10.4301 9.61347 10.7618 9.67342 11.1709C9.79097 11.9732 10.3131 13.0312 11.6435 14.4318L12.7311 13.3988C11.5004 12.1031 11.2112 11.3192 11.1576 10.9535C11.132 10.7786 11.1589 10.6948 11.1645 10.6792C11.1681 10.6691 11.1688 10.671 11.1609 10.6832C11.1571 10.6892 11.1512 10.6977 11.1427 10.7084C11.1384 10.7138 11.1335 10.7198 11.1278 10.7264C11.1249 10.7296 11.1219 10.7331 11.1187 10.7366C11.117 10.7384 11.1154 10.7402 11.1136 10.7421C11.1128 10.743 11.1119 10.744 11.111 10.7449C11.1106 10.7454 11.1099 10.7461 11.1097 10.7463C11.109 10.7471 11.1083 10.7478 10.5645 10.2313ZM11.6435 14.4318C12.9693 15.8277 13.9849 16.3923 14.777 16.5209C15.1846 16.5871 15.5188 16.5348 15.7751 16.4337C15.9002 16.3843 15.9997 16.3262 16.0751 16.2727C16.1127 16.246 16.1442 16.2206 16.1699 16.198C16.1828 16.1867 16.1942 16.1762 16.2043 16.1665C16.2093 16.1616 16.214 16.157 16.2183 16.1526C16.2205 16.1505 16.2225 16.1483 16.2245 16.1463C16.2255 16.1452 16.2265 16.1442 16.2275 16.1432C16.228 16.1427 16.2287 16.142 16.2289 16.1417C16.2296 16.141 16.2303 16.1403 15.6865 15.6238C15.1427 15.1073 15.1434 15.1065 15.1441 15.1058C15.1443 15.1056 15.145 15.1049 15.1454 15.1044C15.1463 15.1035 15.1472 15.1025 15.1481 15.1016C15.1499 15.0998 15.1516 15.098 15.1533 15.0963C15.1567 15.0929 15.16 15.0896 15.1632 15.0866C15.1695 15.0805 15.1754 15.0751 15.1808 15.0704C15.1915 15.061 15.2003 15.0541 15.2073 15.0492C15.2214 15.0392 15.2276 15.0372 15.2247 15.0383C15.2222 15.0393 15.2071 15.045 15.1764 15.0482C15.1456 15.0514 15.0937 15.0527 15.0175 15.0403C14.7003 14.9888 13.9662 14.6992 12.7311 13.3988L11.6435 14.4318ZM10.4684 5.55555C9.55657 4.26585 7.72493 4.04299 6.61535 5.21117L7.70294 6.2442C8.10917 5.81651 8.83302 5.84074 9.24365 6.42151L10.4684 5.55555ZM5.95064 8.59714C5.93391 8.28537 6.06904 7.96438 6.34262 7.67636L5.25503 6.64333C4.77699 7.14661 4.40846 7.8514 4.4528 8.67754L5.95064 8.59714ZM18.5231 19.6371C18.2922 19.8802 18.06 20.0006 17.845 20.0218L17.9923 21.5146C18.6707 21.4476 19.2155 21.0862 19.6107 20.6702L18.5231 19.6371ZM11.3569 10.4861C12.2302 9.56658 12.2898 8.13165 11.5613 7.10123L10.3365 7.9672C10.6765 8.44801 10.6206 9.08316 10.2693 9.45304L11.3569 10.4861ZM19.4573 16.5206C20.1146 16.8989 20.2391 17.8304 19.7542 18.341L20.8418 19.374C22.0189 18.1347 21.6749 16.0663 20.2056 15.2206L19.4573 16.5206ZM16.625 15.7247C16.9265 15.4073 17.3962 15.3343 17.8015 15.5675L18.5498 14.2675C17.5588 13.6971 16.3273 13.8602 15.5374 14.6917L16.625 15.7247Z" fill="white"/>
</svg>
