<svg width="177" height="44" viewBox="0 0 177 44" fill="none" xmlns="http://www.w3.org/2000/svg">
<path d="M69.089 10.6514H66.8887V27.9035H69.089V10.6514Z" fill="#575756"/>
<path d="M55.5256 34.0008C54.5975 34.0008 53.5957 33.4046 53.5957 32.0893V25.8203H55.796V31.8804H68.9979V34.0008H55.5317H55.5256Z" fill="#575756"/>
<path d="M76.9439 34.0249C75.6839 34.0249 74.9648 33.3366 74.9648 32.1442V25.9551H77.1652V31.9107H90.2564V34.0311H76.9439V34.0249Z" fill="#575756"/>
<path d="M78.6643 17.7688L73.5446 24.4865L71.8359 23.1343L78.6274 14.499L85.7876 23.122L84.0851 24.511L78.6643 17.7688Z" fill="#575756"/>
<path d="M88.0194 27.9281V18.334H84.3379V16.2136H88.0194V10.6514H90.2197V27.9281H88.0194Z" fill="#575756"/>
<path d="M72.4941 14.499V12.3786H77.5217V10.418H79.722V12.3786H84.7495V14.499H72.4941Z" fill="#575756"/>
<path d="M97.065 20.0424C96.1123 20.0424 95.0859 19.4708 95.0859 18.2108V11.2842H110.107V20.0424H97.065ZM107.907 17.9466V13.4046H97.2801V17.9466H107.907Z" fill="#575756"/>
<path d="M101.498 29.0095V24.6212H92.832V22.5254H112.364V24.6212H103.698V29.0095H101.498Z" fill="#575756"/>
<path d="M97.0904 34.0006C95.8489 34.0006 95.1113 33.2876 95.1113 32.0891V26.2012H97.3116V31.8802H110.655V34.0006H97.0904Z" fill="#575756"/>
<path d="M129.345 34.025V30.0301H113.82V27.9219H120.163V25.2791C117.244 24.8489 115.136 22.7653 115.136 20.3008C115.136 17.5104 117.877 15.2425 121.251 15.2425C124.625 15.2425 127.366 17.5104 127.366 20.3008C127.366 22.7469 125.264 24.8304 122.363 25.273V27.9219H129.345V10.6514H131.546V18.2418H134.367V20.3499H131.546V34.025H129.345ZM121.245 17.1847C119.112 17.1847 117.373 18.5798 117.373 20.3008C117.373 22.0217 119.106 23.4168 121.245 23.4168C123.384 23.4168 125.117 22.0217 125.117 20.3008C125.117 18.5798 123.384 17.1847 121.245 17.1847Z" fill="#575756"/>
<path d="M114.521 14.4563V12.3727H120.164V10.5166H122.389V12.3727H128.104V14.4563H114.521Z" fill="#575756"/>
<path d="M151.657 34.025V19.7599H149.536V34.025H147.336V10.6514H149.536V17.701H151.657V10.6514H153.857V34.025H151.657Z" fill="#575756"/>
<path d="M145.706 12.3604H136.062V14.4439H145.706V12.3604Z" fill="#575756"/>
<path d="M135.352 26.2623L140.815 14.4434L146.199 26.2869L144.294 27.1351L140.858 19.4094L137.318 27.172L135.352 26.2623Z" fill="#575756"/>
<path d="M161.03 34.025C159.499 34.025 158.719 33.3305 158.719 31.96V26.0781H160.919V31.9046H174.164V34.025H161.03Z" fill="#575756"/>
<path d="M171.613 28.0326V23.0235H158.749C157.741 23.0235 156.555 22.4888 156.555 20.983V12.3723H168.38V14.4681H158.749V20.9277H171.607V10.6514H173.807V15.9309H176.628V18.0267H173.807V28.0326H171.607H171.613Z" fill="#575756"/>
<path d="M57.3992 23.7798C53.8836 23.7798 51.0195 20.9157 51.0195 17.4002C51.0195 13.8846 53.8836 11.0205 57.3992 11.0205C60.9148 11.0205 63.7789 13.8846 63.7789 17.4002C63.7789 20.9157 60.9148 23.7798 57.3992 23.7798ZM57.3992 13.3376C55.1559 13.3376 53.3366 15.163 53.3366 17.4002C53.3366 19.6374 55.162 21.4627 57.3992 21.4627C59.6364 21.4627 61.4618 19.6374 61.4618 17.4002C61.4618 15.163 59.6364 13.3376 57.3992 13.3376Z" fill="#575756"/>
<path d="M53.8771 39.1514H53.3301V43.5151H53.8771V39.1514Z" fill="#575756"/>
<path d="M57.276 42.5379L55.0757 39.1514H54.541V43.5151H55.0757V40.1286L57.276 43.5151H57.8107V39.1514H57.276V42.5379Z" fill="#575756"/>
<path d="M61.9407 41.7696C61.8424 42.5932 61.3568 43.0849 60.6439 43.0849C60.0969 43.0849 59.2794 42.6239 59.2794 41.3578C59.2794 40.694 59.5806 39.5754 60.6992 39.5754C61.3753 39.5754 61.8239 40.0733 61.8669 40.5527L61.8792 40.6633H62.4139V40.5342C62.3648 39.8028 61.7133 39.0469 60.7053 39.0469C59.3532 39.0469 58.7324 40.2454 58.7324 41.3578C58.7324 42.6792 59.5253 43.6011 60.6562 43.6011C61.6518 43.6011 62.3525 42.9066 62.4816 41.7942L62.5 41.659H61.953L61.9407 41.7635V41.7696Z" fill="#575756"/>
<path d="M65.7012 40.9768H63.5255V39.1514H62.9785V43.5151H63.5255V41.5115H65.7012V43.5151H66.2482V39.1514H65.7012V40.9768Z" fill="#575756"/>
<path d="M67.4591 41.5115H69.6656V41.0136H67.4591V39.6799H69.8192V39.1514H66.9121V43.5151H69.8438V42.9927H67.4591V41.5115Z" fill="#575756"/>
<path d="M72.075 39.0527C70.9134 39.0527 70.1328 39.9685 70.1328 41.3391C70.1328 42.7097 70.9134 43.607 72.075 43.607C73.2366 43.607 74.0172 42.6974 74.0172 41.3391C74.0172 39.9808 73.2366 39.0527 72.075 39.0527ZM72.075 43.0846C71.2268 43.0846 70.6798 42.3962 70.6798 41.3391C70.6798 40.282 71.2268 39.5813 72.075 39.5813C72.9231 39.5813 73.4702 40.2697 73.4702 41.3391C73.4702 42.4085 72.9231 43.0846 72.075 43.0846Z" fill="#575756"/>
<path d="M77.2741 42.5379L75.0738 39.1514H74.5391V43.5151H75.0738V40.1286L77.2741 43.5151H77.8149V39.1514H77.2741V42.5379Z" fill="#575756"/>
<path d="M80.2129 43.5151H80.7599V41.5299H82.7144V41.0198H80.7599V39.6799H82.9356V39.1514H80.2129V43.5151Z" fill="#575756"/>
<path d="M85.0672 39.0527C83.9056 39.0527 83.125 39.9685 83.125 41.3391C83.125 42.7097 83.9056 43.607 85.0672 43.607C86.2288 43.607 87.0093 42.6974 87.0093 41.3391C87.0093 39.9808 86.2288 39.0527 85.0672 39.0527ZM85.0672 39.5813C85.9153 39.5813 86.4623 40.2697 86.4623 41.3391C86.4623 42.4085 85.9153 43.0846 85.0672 43.0846C84.219 43.0846 83.672 42.3962 83.672 41.3391C83.672 40.282 84.219 39.5813 85.0672 39.5813Z" fill="#575756"/>
<path d="M90.2006 41.745C90.2006 42.6854 89.881 43.0849 89.1373 43.0849C88.3937 43.0849 88.0802 42.6731 88.0802 41.7573V39.1514H87.5332V41.8557C87.5332 43.005 88.0864 43.6073 89.1373 43.6073C90.1883 43.6073 90.7476 42.9988 90.7476 41.8557V39.1514H90.2006V41.745Z" fill="#575756"/>
<path d="M94.1452 42.5379L91.9449 39.1514H91.4102V43.5151H91.9449V40.1286L94.1452 43.5151H94.6799V39.1514H94.1452V42.5379Z" fill="#575756"/>
<path d="M96.8945 39.1514H95.3457V43.5151H96.747C97.9394 43.5151 98.7138 42.6546 98.7138 41.3271C98.7138 39.3112 97.3247 39.1514 96.8945 39.1514ZM95.8927 39.6799H96.8454C97.7181 39.6799 98.1668 40.2392 98.1668 41.3455C98.1668 42.5563 97.4354 42.9865 96.7532 42.9865H95.8988V39.6799H95.8927Z" fill="#575756"/>
<path d="M100.488 39.1514L98.8535 43.5151H99.4313L99.8861 42.2797H101.558L102.013 43.5151H102.59L100.992 39.1514H100.488ZM100.064 41.7758L100.74 39.9565L101.398 41.7758H100.064Z" fill="#575756"/>
<path d="M102.16 39.6799H103.494V43.5151H104.041V39.6799H105.375V39.1514H102.16V39.6799Z" fill="#575756"/>
<path d="M106.223 39.1514H105.676V43.5151H106.223V39.1514Z" fill="#575756"/>
<path d="M108.694 39.0527C107.533 39.0527 106.752 39.9685 106.752 41.3391C106.752 42.7097 107.533 43.607 108.694 43.607C109.856 43.607 110.636 42.6974 110.636 41.3391C110.636 39.9808 109.856 39.0527 108.694 39.0527ZM108.694 39.5813C109.542 39.5813 110.089 40.2697 110.089 41.3391C110.089 42.4085 109.542 43.0846 108.694 43.0846C107.846 43.0846 107.299 42.3962 107.299 41.3391C107.299 40.282 107.846 39.5813 108.694 39.5813Z" fill="#575756"/>
<path d="M113.899 42.5379L111.693 39.1514H111.164V43.5151H111.693V40.1286L113.899 43.5151H114.434V39.1514H113.899V42.5379Z" fill="#575756"/>
<path d="M116.531 43.5151H117.078V41.5299H119.027V41.0198H117.078V39.6799H119.248V39.1514H116.531V43.5151Z" fill="#575756"/>
<path d="M121.386 39.0527C120.224 39.0527 119.443 39.9685 119.443 41.3391C119.443 42.7097 120.224 43.607 121.386 43.607C122.547 43.607 123.328 42.6974 123.328 41.3391C123.328 39.9808 122.547 39.0527 121.386 39.0527ZM121.386 43.0846C120.537 43.0846 119.99 42.3962 119.99 41.3391C119.99 40.282 120.537 39.5813 121.386 39.5813C122.234 39.5813 122.781 40.2697 122.781 41.3391C122.781 42.4085 122.234 43.0846 121.386 43.0846Z" fill="#575756"/>
<path d="M126.929 42.5133C126.929 42.0523 126.861 41.6037 126.431 41.4008C126.806 41.1919 127.002 40.8293 126.99 40.3499C126.978 39.557 126.535 39.1514 125.669 39.1514H123.855V43.5151H124.402V41.6651H125.576C126.246 41.6651 126.369 41.9233 126.382 42.501V42.6608C126.4 42.9435 126.418 43.2631 126.486 43.4414L126.517 43.5151H127.15L127.021 43.3307C126.996 43.3 126.941 43.1525 126.929 42.5133ZM124.402 39.6676H125.626C126.185 39.6676 126.443 39.895 126.443 40.3806C126.443 41.112 125.785 41.1673 125.589 41.1673H124.409V39.6676H124.402Z" fill="#575756"/>
<path d="M130.262 39.1514L128.627 43.5151H129.205L129.66 42.2797H131.331L131.78 43.5151H132.364L130.76 39.1514H130.256H130.262ZM129.838 41.7758L130.514 39.9565L131.171 41.7758H129.838Z" fill="#575756"/>
<path d="M135.682 42.5133C135.682 42.0523 135.615 41.6037 135.185 41.4008C135.56 41.1919 135.756 40.8293 135.744 40.3499C135.732 39.557 135.289 39.1514 134.422 39.1514H132.609V43.5151H133.156V41.6651H134.33C135 41.6651 135.123 41.9233 135.135 42.501V42.6547C135.154 42.9374 135.172 43.257 135.24 43.4352L135.271 43.509H135.904L135.775 43.3246C135.775 43.3246 135.695 43.1648 135.682 42.5071V42.5133ZM133.156 39.6676H134.379C134.939 39.6676 135.197 39.895 135.197 40.3806C135.197 41.112 134.545 41.1673 134.343 41.1673H133.163V39.6676H133.156Z" fill="#575756"/>
<path d="M136 39.6799H137.334V43.5151H137.881V39.6799H139.214V39.1514H136V39.6799Z" fill="#575756"/>
<path d="M141.33 41.0755L141.023 40.9956C140.365 40.8358 140.021 40.7313 140.021 40.2642C140.021 39.6189 140.746 39.5697 140.968 39.5697C141.631 39.5697 141.951 39.8524 141.976 40.4547V40.5715H142.51V40.4486C142.473 39.539 141.945 39.0596 140.974 39.0596C140.249 39.0596 139.474 39.3853 139.474 40.2949C139.474 41.2046 140.169 41.3459 140.789 41.5057L141.054 41.5733C141.681 41.7208 142.062 41.8376 142.062 42.36C142.062 42.9132 141.539 43.1099 141.054 43.1099C140.285 43.1099 139.917 42.7595 139.917 42.0404V41.9237H139.376V42.0404C139.363 42.526 139.499 42.9132 139.763 43.1836C140.052 43.4786 140.482 43.6261 141.048 43.6261C141.994 43.6261 142.602 43.1222 142.602 42.3477C142.602 41.4258 141.982 41.266 141.324 41.0939L141.33 41.0755Z" fill="#575756"/>
<path d="M147.409 41.6961V41.5732H146.905V41.6961C146.905 41.8559 146.887 41.9973 146.856 42.1079L146.18 41.1983C146.475 40.9893 146.782 40.7435 146.893 40.3686C146.924 40.2518 146.942 40.1289 146.936 40.0244C146.905 39.4958 146.512 39.1455 145.959 39.1455C145.528 39.1455 145.043 39.4098 145 39.9814C144.987 40.092 145 40.2026 145.031 40.3194C145.104 40.5898 145.276 40.8357 145.43 41.0447L145.448 41.0754C145.074 41.3151 144.692 41.6224 144.557 42.0833C144.52 42.2063 144.502 42.3415 144.502 42.4828C144.533 43.2204 145.166 43.6076 145.768 43.6076C146.223 43.6076 146.61 43.4048 146.893 43.0176L147.268 43.5215H147.925L147.194 42.5627C147.329 42.2862 147.391 42.0219 147.397 41.7023L147.409 41.6961ZM145.78 43.1036C145.412 43.1036 145.018 42.8639 145.018 42.4152C145.018 41.9666 145.393 41.6961 145.75 41.4687L146.598 42.5935C146.401 42.9315 146.125 43.1036 145.78 43.1036ZM145.977 39.6126C146.204 39.6126 146.438 39.7786 146.438 40.0736C146.438 40.3993 146.137 40.6267 145.885 40.8173C145.614 40.4546 145.485 40.2641 145.485 40.0613C145.485 39.8585 145.602 39.7048 145.786 39.6495C145.848 39.6311 145.903 39.6188 145.952 39.6188V39.502L145.983 39.6188L145.977 39.6126Z" fill="#575756"/>
<path d="M152.64 41.7696C152.542 42.5932 152.056 43.0849 151.343 43.0849C150.796 43.0849 149.979 42.6239 149.979 41.3578C149.979 40.694 150.28 39.5754 151.398 39.5754C152.074 39.5754 152.523 40.0733 152.566 40.5527L152.578 40.6633H153.113V40.5342C153.064 39.8028 152.412 39.0469 151.405 39.0469C150.052 39.0469 149.432 40.2454 149.432 41.3578C149.432 42.6792 150.224 43.6011 151.355 43.6011C152.351 43.6011 153.052 42.9066 153.181 41.7942L153.199 41.659H152.652L152.64 41.7635V41.7696Z" fill="#575756"/>
<path d="M156.331 41.745C156.331 42.6854 156.012 43.0849 155.268 43.0849C154.525 43.0849 154.211 42.6731 154.211 41.7573V39.1514H153.664V41.8557C153.664 43.005 154.217 43.6073 155.268 43.6073C156.319 43.6073 156.878 42.9988 156.878 41.8557V39.1514H156.331V41.745Z" fill="#575756"/>
<path d="M158.09 39.1514H157.543V43.5151H160.26V42.9865H158.09V39.1514Z" fill="#575756"/>
<path d="M159.732 39.6799H161.066V43.5151H161.613V39.6799H162.947V39.1514H159.732V39.6799Z" fill="#575756"/>
<path d="M165.908 41.745C165.908 42.6854 165.588 43.0849 164.844 43.0849C164.101 43.0849 163.787 42.6731 163.787 41.7573V39.1514H163.24V41.8557C163.24 43.005 163.793 43.6073 164.844 43.6073C165.895 43.6073 166.455 42.9988 166.455 41.8557V39.1514H165.908V41.745Z" fill="#575756"/>
<path d="M170.198 42.5133C170.198 42.0523 170.13 41.6037 169.7 41.4008C170.075 41.1919 170.272 40.8293 170.26 40.3499C170.247 39.557 169.805 39.1514 168.938 39.1514H167.125V43.5151H167.672V41.6651H168.846C169.516 41.6651 169.639 41.9233 169.651 42.501V42.6547C169.669 42.9374 169.688 43.257 169.756 43.4352L169.786 43.509H170.419L170.29 43.3246C170.266 43.2938 170.21 43.1463 170.198 42.5071V42.5133ZM167.672 39.6676H168.895C169.454 39.6676 169.713 39.895 169.713 40.3806C169.713 41.112 169.055 41.1673 168.858 41.1673H167.678V39.6676H167.672Z" fill="#575756"/>
<path d="M171.428 42.9927V41.5115H173.634V41.0136H171.428V39.6799H173.788V39.1514H170.881V43.5151H173.813V42.9927H171.428Z" fill="#575756"/>
<path d="M4.94147 20.4915C4.94147 18.8935 3.64464 17.5967 2.04665 17.5967C1.40746 17.5967 0.817433 17.8056 0.344182 18.156C0.122922 19.4036 0 20.6882 0 21.9973C0 22.1817 0.0122922 22.3599 0.0122922 22.5443C0.534712 23.0606 1.25381 23.3802 2.04665 23.3802C3.64464 23.3802 4.94147 22.0833 4.94147 20.4854V20.4915Z" fill="#47BAEC"/>
<path d="M3.12167 33.2686H3.10938C3.10938 33.2686 3.10938 33.287 3.11552 33.287H3.13396L3.12167 33.2686Z" fill="#2CBBE8"/>
<path d="M2.04754 15.1317C5.00382 15.1317 7.40695 17.5349 7.40695 20.4911C7.40695 22.9619 5.72292 25.0454 3.44271 25.66H6.90912V23.8838H9.49663V25.66H12.7787C12.33 24.5291 12.078 23.2938 12.078 22.0031C12.078 16.5207 16.5216 12.0833 21.9978 12.0833C27.474 12.0833 31.9176 16.5269 31.9176 22.0031C31.9176 25.5309 30.0738 28.6286 27.2958 30.3864H35.2181V26.2255H42.9868V28.4565H37.7196V32.3777H41.3949C43.0544 29.2862 43.9947 25.7522 43.9947 22.0031C44.0009 9.85221 34.1487 0 22.004 0C12.2132 0 3.92825 6.39195 1.07031 15.2239C1.38991 15.1625 1.71565 15.1317 2.04754 15.1317Z" fill="#47BAEC"/>
<path d="M35.2231 34.3687V32.5986H31.7259L36.5322 37.5278L35.4382 38.6095L34.9096 39.1319L31.6891 35.8253L28.4562 39.1381L27.6449 38.3268H26.0039C27.3745 39.0951 28.3087 40.564 28.3087 42.248C28.3087 42.5369 28.278 42.8196 28.2288 43.09C31.0499 42.2603 33.6374 40.8774 35.8623 39.0705C37.5217 37.7183 38.9845 36.1326 40.1891 34.3626H35.2231V34.3687Z" fill="#DC0C15"/>
<path d="M8.21846 31.5107L4.91185 34.8788L3.13563 33.2808H3.11719C4.95487 36.36 7.5178 38.9414 10.5724 40.8037V33.8032L8.21846 31.5107Z" fill="#43348B"/>
<path d="M21.6288 38.3333H19.5576V40.7979H10.5781C13.2701 42.4389 16.3432 43.5145 19.6313 43.8648C19.4347 43.3608 19.324 42.82 19.324 42.2484C19.324 40.5643 20.2521 39.0954 21.6288 38.3271V38.3333Z" fill="#007B3D"/>
<path d="M17.0977 34.2158H13.0352V38.346H17.0977V34.2158Z" fill="#007B3D"/>
<path d="M26.0547 42.1257C25.9871 40.9518 25.0099 40.0176 23.8175 40.0176C22.6252 40.0176 21.5742 41.0255 21.5742 42.2609C21.5742 42.9616 21.8938 43.5823 22.3978 43.9941C23.4242 43.9757 24.4383 43.8896 25.4217 43.736C25.4524 43.736 25.4831 43.7237 25.5139 43.7175C25.8519 43.3242 26.0609 42.8141 26.0609 42.2548C26.0609 42.2117 26.0609 42.1687 26.0547 42.1257Z" fill="#F18700"/>
<path d="M3.10984 33.257L8.20497 28.0881L3.34339 28.082V25.685C2.92546 25.7895 2.49523 25.851 2.05271 25.851C1.4381 25.851 0.848072 25.7403 0.294922 25.5498C0.743588 28.334 1.72082 30.9461 3.11599 33.2755H3.12828L3.11599 33.257H3.10984Z" fill="#43348B"/>
<path d="M8.23438 28.0817L11.8298 31.6219H19.5555C16.4579 30.8352 13.938 28.5919 12.7764 25.6602V28.0817H8.24052H8.23438Z" fill="#43348B"/>
<path d="M8.19922 28.082V28.0882L8.20537 28.082H8.19922Z" fill="#43348B"/>
<path d="M19.5997 31.6279L19.5566 31.6956V35.9671H22.5252V34.1847H25.1127V35.9671H28.3886L31.6645 32.6052H27.3007V30.3926C25.7642 31.3637 23.9511 31.9291 22.0028 31.9291C21.1731 31.9291 20.3679 31.8246 19.5997 31.6341V31.6279Z" fill="#F18700"/>
<path d="M19.5997 31.6275C19.5997 31.6275 19.5689 31.6214 19.5566 31.6152V31.6951L19.5997 31.6275Z" fill="#F18700"/>
<path d="M42.9915 28.4559V26.2249H35.2228V30.3858H27.3004V32.5984H31.6642L28.3883 35.9603H25.1124V34.1779H22.5249V35.9603H19.5563V31.615H11.8307L8.23521 28.0749H12.771V25.6533H9.48902V23.8771H6.90151V25.6533H3.44125C5.72146 25.0387 7.40549 22.9551 7.40549 20.4844C7.40549 17.5281 5.00236 15.125 2.04608 15.125C1.71419 15.125 1.3823 15.1619 1.06885 15.2172C0.761544 16.1698 0.521846 17.1471 0.343609 18.1489C0.823005 17.7986 1.41303 17.5896 2.04608 17.5896C3.64407 17.5896 4.9409 18.8864 4.9409 20.4844C4.9409 22.0824 3.64407 23.3792 2.04608 23.3792C1.25323 23.3792 0.534138 23.0596 0.0117188 22.5434C0.024011 23.035 0.0485954 23.5267 0.0916182 24.0123C0.140787 24.5285 0.202248 25.0387 0.282148 25.5427C0.835298 25.7332 1.42532 25.8438 2.03994 25.8438C2.4886 25.8438 2.91883 25.7824 3.33062 25.6779V28.0749H8.19219L3.09707 33.2499L3.10936 33.2622L3.12165 33.2745L4.89788 34.8725L8.20448 31.5044L10.5584 33.7969V40.7973H19.5379V38.3327H21.6091C20.2386 39.101 19.3044 40.5699 19.3044 42.2539C19.3044 42.8255 19.415 43.3664 19.6117 43.8704C19.9804 43.9072 20.3492 43.938 20.7241 43.9625C20.8962 43.9748 21.0744 43.9748 21.2527 43.981C21.2834 43.981 21.308 43.981 21.3387 43.981C21.5538 43.9871 21.7689 43.9994 21.9841 43.9994C22.1193 43.9994 22.2483 43.9933 22.3836 43.9871C21.8796 43.5753 21.56 42.9546 21.56 42.2539C21.56 41.0186 22.5679 40.0106 23.8033 40.0106C25.0387 40.0106 25.9667 40.9448 26.0405 42.1187C26.0405 42.1617 26.0466 42.2048 26.0466 42.2478C26.0466 42.8071 25.8377 43.3172 25.4996 43.7106C25.5488 43.7044 25.598 43.6921 25.6471 43.686C26.5199 43.5385 27.3803 43.3418 28.2162 43.0959C28.2654 42.8255 28.2961 42.5428 28.2961 42.2539C28.2961 40.5699 27.3681 39.101 25.9913 38.3327H27.6323L28.4436 39.144L31.6765 35.8312L34.897 39.1378L35.4256 38.6154L36.5196 37.5337L31.7134 32.6045H35.2105V34.3746H40.1766C40.3118 34.1718 40.447 33.969 40.576 33.76C40.6314 33.674 40.6867 33.5941 40.742 33.5019C40.9694 33.1331 41.1845 32.7582 41.3873 32.3771H37.712V28.4559H42.9792H42.9915ZM17.0918 34.2148V38.345H13.0292V34.2148H17.0918Z" fill="white"/>
</svg>
