<svg width="26" height="26" viewBox="0 0 26 26" fill="none" xmlns="http://www.w3.org/2000/svg">
<path fill-rule="evenodd" clip-rule="evenodd" d="M8.67083 4.11719C9.02982 4.11719 9.32083 4.4082 9.32083 4.76719V5.42821C9.89459 5.41718 10.5267 5.41718 11.2219 5.41719H14.7864C15.4816 5.41718 16.1137 5.41718 16.6875 5.42821V4.76719C16.6875 4.4082 16.9785 4.11719 17.3375 4.11719C17.6965 4.11719 17.9875 4.4082 17.9875 4.76719V5.484C18.2128 5.50117 18.4261 5.52276 18.628 5.5499C19.6441 5.68652 20.4665 5.97435 21.1151 6.62293C21.7637 7.27151 22.0515 8.09394 22.1881 9.11003C22.2318 9.43477 22.2611 9.78916 22.2807 10.1753C22.3067 10.2454 22.3208 10.3213 22.3208 10.4005C22.3208 10.4606 22.3127 10.5188 22.2974 10.574C22.3208 11.269 22.3208 12.0582 22.3208 12.9516V14.7339C22.3208 15.0928 22.0298 15.3839 21.6708 15.3839C21.3118 15.3839 21.0208 15.0928 21.0208 14.7339V13.0005C21.0208 12.2604 21.0206 11.6162 21.0095 11.0505H4.99884C4.98778 11.6162 4.9875 12.2604 4.9875 13.0005V14.7339C4.9875 16.3864 4.98888 17.5605 5.10862 18.4511C5.22585 19.3231 5.4457 19.8254 5.81248 20.1922C6.17927 20.559 6.68163 20.7788 7.55357 20.8961C8.44421 21.0158 9.61826 21.0172 11.2708 21.0172H14.7375C15.0965 21.0172 15.3875 21.3082 15.3875 21.6672C15.3875 22.0262 15.0965 22.3172 14.7375 22.3172H11.2219C9.62922 22.3172 8.36767 22.3172 7.38035 22.1845C6.36425 22.0479 5.54183 21.76 4.89324 21.1114C4.24466 20.4629 3.95683 19.6404 3.82022 18.6243C3.68748 17.637 3.68749 16.3755 3.6875 14.7827V12.9516C3.68749 12.0582 3.68749 11.269 3.71091 10.574C3.69565 10.5188 3.6875 10.4606 3.6875 10.4005C3.6875 10.3213 3.70167 10.2454 3.7276 10.1752C3.74726 9.78916 3.77656 9.43476 3.82022 9.11003C3.95683 8.09394 4.24466 7.27151 4.89324 6.62293C5.54183 5.97435 6.36425 5.68652 7.38035 5.5499C7.58222 5.52276 7.79555 5.50117 8.02083 5.484V4.76719C8.02083 4.4082 8.31185 4.11719 8.67083 4.11719ZM5.05829 9.75052H20.95C20.9362 9.58638 20.9196 9.43092 20.8997 9.28326C20.7825 8.41131 20.5626 7.90895 20.1959 7.54217C19.8291 7.17539 19.3267 6.95554 18.4548 6.83831C17.5641 6.71857 16.3901 6.71719 14.7375 6.71719H11.2708C9.61826 6.71719 8.44421 6.71857 7.55357 6.83831C6.68163 6.95554 6.17927 7.17539 5.81248 7.54217C5.4457 7.90895 5.22585 8.41131 5.10862 9.28326C5.08877 9.43092 5.07217 9.58638 5.05829 9.75052ZM18.2042 16.2505C17.1272 16.2505 16.2542 17.1236 16.2542 18.2005C16.2542 19.2775 17.1272 20.1505 18.2042 20.1505C19.2811 20.1505 20.1542 19.2775 20.1542 18.2005C20.1542 17.1236 19.2811 16.2505 18.2042 16.2505ZM14.9542 18.2005C14.9542 16.4056 16.4092 14.9505 18.2042 14.9505C19.9991 14.9505 21.4542 16.4056 21.4542 18.2005C21.4542 18.8629 21.256 19.479 20.9157 19.9928L22.1305 21.2076C22.3843 21.4614 22.3843 21.873 22.1305 22.1268C21.8766 22.3806 21.4651 22.3806 21.2112 22.1268L19.9965 20.9121C19.4827 21.2523 18.8666 21.4505 18.2042 21.4505C16.4092 21.4505 14.9542 19.9954 14.9542 18.2005Z" fill="#222222"/>
</svg>
