<svg width="34" height="34" viewBox="0 0 34 34" fill="none" xmlns="http://www.w3.org/2000/svg">
<path fill-rule="evenodd" clip-rule="evenodd" d="M14.6782 15.736L14.6262 15.7031C14.0934 15.3669 13.6156 15.0653 13.2098 14.8889C12.7758 14.7003 12.2217 14.5643 11.6613 14.8588C11.1091 15.149 10.8978 15.6762 10.7928 16.1376C10.7095 16.504 10.6647 16.9645 10.6228 17.4832C10.0026 16.8351 9.45188 16.197 8.97793 15.5822L8.97487 15.5782C8.467 14.9191 8.05208 14.2928 7.73436 13.7144C7.69445 13.6417 7.65603 13.5698 7.6191 13.4984L7.58745 13.4368C7.56924 13.401 7.5515 13.3656 7.53421 13.3305C7.41322 13.0846 7.31143 12.8489 7.2292 12.6245C7.15505 12.4221 7.09929 12.2361 7.05933 12.0657C6.93194 11.5204 6.96339 11.122 7.08523 10.8624C7.15593 10.7117 7.27461 10.5712 7.47517 10.4605C7.61606 10.3829 7.79732 10.3199 8.03077 10.2781C8.61401 10.1737 9.43464 10.2251 10.4677 10.4794L10.4791 10.4822C10.5398 10.4972 10.6013 10.5129 10.6635 10.5293C12.8276 11.1011 15.623 12.4653 18.5109 14.5168C21.2354 16.4522 23.5033 18.6165 25.0163 20.5785L25.021 20.5847C25.4605 21.1551 25.8305 21.701 26.128 22.2124C26.162 22.2708 26.195 22.3288 26.2271 22.3863L26.2391 22.4078C26.4622 22.8098 26.6384 23.1884 26.7667 23.5384C26.7825 23.5817 26.7976 23.6245 26.812 23.6669C26.9065 23.9454 26.9648 24.1905 26.9944 24.4048C27.0496 24.8043 27.0056 25.0979 26.9106 25.3004C26.8279 25.4767 26.6711 25.6471 26.3855 25.7669C26.2686 25.8152 26.1298 25.8552 25.9651 25.8847C25.3818 25.9892 24.5612 25.9378 23.5282 25.6835L23.5202 25.6815C22.9431 25.539 22.3092 25.3355 21.6273 25.0687C21.2094 24.9052 20.7381 25.1114 20.5746 25.5293C20.4111 25.9472 20.6173 26.4185 21.0352 26.582C22.0584 26.9823 23.0359 27.2723 23.9292 27.4284C24.2837 27.4904 24.6249 27.5312 24.9504 27.5495C25.117 27.5589 25.2796 27.5624 25.4376 27.5597C25.4755 27.5591 25.5133 27.5581 25.551 27.5567C25.7943 27.548 26.0283 27.5242 26.2515 27.4843C26.5138 27.4373 26.7673 27.3662 27.0052 27.2679C27.5948 27.0263 28.0867 26.6193 28.3817 25.9907C28.7842 25.1329 28.6825 24.122 28.3508 23.1447C28.3087 23.0204 28.2621 22.8947 28.2114 22.7678C28.1254 22.5526 28.0274 22.3337 27.9181 22.1118C27.5761 21.4175 27.1237 20.6936 26.5846 19.96C24.9555 17.7431 22.4482 15.3205 19.4519 13.192C16.459 11.0659 13.4863 9.59434 11.0785 8.95824C9.88019 8.64165 8.7633 8.51622 7.83142 8.66383C7.48472 8.71875 7.15175 8.81447 6.84813 8.95794C6.32131 9.20686 5.88282 9.5995 5.61414 10.1721C5.29467 10.8529 5.28833 11.6346 5.47908 12.443C5.53726 12.6903 5.61344 12.938 5.70341 13.1836C5.80539 13.4618 5.92853 13.747 6.07121 14.0377C6.10532 14.1073 6.14033 14.1766 6.17615 14.2458C6.27057 14.4281 6.37264 14.6129 6.48204 14.7997C6.53824 14.8957 6.59637 14.9922 6.65639 15.0893C6.77166 15.2757 6.89391 15.4639 7.02284 15.6537C7.14386 15.8319 7.27077 16.0114 7.40333 16.1921C8.05828 17.0847 8.85108 18.0044 9.75218 18.9191C9.83206 19.0002 9.92478 19.061 10.0239 19.1014L9.87794 19.2094L9.83254 19.2467C9.32192 19.6671 8.87237 20.0371 8.56714 20.3708C8.25198 20.7154 7.92576 21.1954 8.01133 21.8204C8.09916 22.4619 8.55916 22.8245 8.96719 23.0508C9.35315 23.2649 9.88554 23.4615 10.4795 23.6809L10.5378 23.7024L10.871 23.8255C11.0663 23.8976 11.1669 23.9355 11.2377 23.9685L11.2562 23.9774L11.2652 23.996C11.2982 24.0667 11.336 24.1674 11.4081 24.3626L11.5313 24.6959L11.5528 24.7542C11.7722 25.3481 11.9688 25.8805 12.1828 26.2665C12.4091 26.6745 12.7718 27.1345 13.4133 27.2223C14.0382 27.3079 14.5183 26.9817 14.8628 26.6665C15.1965 26.3613 15.5666 25.9117 15.9869 25.4011L16.2584 25.0713C16.3946 24.9059 16.4686 24.8169 16.5281 24.755C16.5476 24.7347 16.5605 24.7227 16.5681 24.7162C16.577 24.714 16.5925 24.7106 16.6169 24.7068C16.6985 24.6938 16.8098 24.6846 17.0202 24.6681L17.44 24.6354C18.0856 24.585 18.6581 24.5404 19.096 24.4408C19.5575 24.3359 20.0847 24.1245 20.3749 23.5724C20.6694 23.012 20.5334 22.4579 20.3447 22.0239C20.1684 21.6181 19.8668 21.1402 19.5306 20.6075L19.4977 20.5554L19.3091 20.2566C19.1986 20.0814 19.1423 19.991 19.1064 19.922C19.1009 19.9114 19.0967 19.9029 19.0937 19.8964C19.095 19.8875 19.097 19.8752 19.1003 19.859C19.1167 19.7775 19.1471 19.6684 19.2052 19.4639L19.3049 19.1132L19.3214 19.0552C19.4998 18.4274 19.6579 17.8712 19.7167 17.4277C19.7774 16.9699 19.7698 16.3776 19.3129 15.9208C18.8561 15.4639 18.2637 15.4562 17.8059 15.5169C17.3624 15.5758 16.8063 15.7338 16.1785 15.9123L16.1204 15.9288L15.7698 16.0284C15.5653 16.0866 15.4562 16.117 15.3747 16.1334C15.3584 16.1366 15.3462 16.1387 15.3373 16.14C15.3307 16.1369 15.3223 16.1328 15.3116 16.1272C15.2427 16.0914 15.1523 16.0351 14.9771 15.9245L14.6782 15.736ZM12.3549 16.3133C12.3549 16.3133 12.358 16.3126 12.3659 16.3135C12.3591 16.3141 12.3549 16.3133 12.3549 16.3133ZM12.5621 16.3792C12.5027 16.3534 12.4583 16.3375 12.4261 16.3277C12.4125 16.3639 12.3955 16.4183 12.3774 16.4979C12.3075 16.8053 12.2702 17.2561 12.2137 17.9795L12.1856 18.34L12.1796 18.4196C12.1563 18.7316 12.1293 19.0947 11.9574 19.4217C11.7871 19.7457 11.5047 19.9766 11.2583 20.178L11.1952 20.2298L10.9108 20.4639C10.341 20.933 9.98385 21.2296 9.76619 21.4676C9.72419 21.5135 9.69358 21.5507 9.67143 21.58C9.6937 21.5943 9.7213 21.6109 9.75529 21.6297C10.0185 21.7757 10.43 21.9302 11.1009 22.1781L11.4342 22.3012L11.5099 22.3289C11.7942 22.4325 12.1448 22.5602 12.4091 22.8246C12.6734 23.0889 12.8011 23.4394 12.9048 23.7238L12.9324 23.7995L13.0556 24.1327C13.3034 24.8036 13.4579 25.2151 13.6039 25.4784C13.6228 25.5124 13.6394 25.54 13.6537 25.5622C13.683 25.5401 13.7201 25.5095 13.7661 25.4675C14.004 25.2498 14.3006 24.8927 14.7698 24.3228L15.0039 24.0385L15.0556 23.9754C15.2571 23.7289 15.488 23.4465 15.8119 23.2762C16.139 23.1043 16.5021 23.0773 16.8141 23.0541L16.8937 23.0481L17.2541 23.0199C17.9776 22.9635 18.4283 22.9261 18.7358 22.8563C18.8154 22.8381 18.8698 22.8212 18.9059 22.8075C18.8962 22.7754 18.8802 22.731 18.8544 22.6716C18.7341 22.3948 18.503 22.0241 18.1234 21.4226L17.9348 21.1237L17.8924 21.0569C17.7295 20.8011 17.5312 20.4897 17.4804 20.1189C17.4304 19.754 17.5329 19.3986 17.6194 19.0987L17.6421 19.0197L17.7417 18.669C17.9418 17.9652 18.0645 17.5253 18.1058 17.2141C18.1108 17.1765 18.1141 17.1446 18.1161 17.1176C18.0891 17.1196 18.0571 17.1228 18.0196 17.1278C17.7083 17.1691 17.2685 17.2919 16.5646 17.4919L16.2139 17.5916L16.1349 17.6142C15.8351 17.7007 15.4797 17.8032 15.1148 17.7533C14.7439 17.7025 14.4325 17.5042 14.1768 17.3413L14.11 17.2988L13.8111 17.1102C13.2095 16.7307 12.8388 16.4995 12.5621 16.3792ZM9.5864 21.5144C9.5864 21.5144 9.58909 21.5167 9.59248 21.5213C9.58775 21.5167 9.5864 21.5144 9.5864 21.5144ZM9.61911 21.6611C9.6178 21.6659 9.61634 21.6686 9.61634 21.6686C9.61634 21.6686 9.61673 21.6663 9.61911 21.6611ZM13.565 25.6173C13.565 25.6173 13.5677 25.6159 13.5726 25.6145C13.5674 25.6169 13.565 25.6173 13.565 25.6173ZM13.7123 25.6412C13.717 25.6446 13.7193 25.6473 13.7193 25.6473C13.7193 25.6473 13.7169 25.6459 13.7123 25.6412ZM18.9204 22.8788C18.9204 22.8788 18.9195 22.8745 18.9201 22.8678C18.9211 22.8757 18.9204 22.8788 18.9204 22.8788ZM18.9614 22.7822C18.9661 22.7778 18.9697 22.7761 18.9697 22.7761C18.9697 22.7761 18.9678 22.7784 18.9614 22.7822ZM12.4515 16.2722C12.4553 16.2659 12.4576 16.264 12.4576 16.264C12.4576 16.264 12.4558 16.2676 12.4515 16.2722Z" fill="white"/>
<path fill-rule="evenodd" clip-rule="evenodd" d="M25.302 6.60766C25.6557 6.8838 25.7186 7.39439 25.4424 7.74809L25.3218 7.90258C25.4559 8.61541 25.7829 9.27497 26.2651 9.80418C26.5674 10.1359 26.5435 10.6497 26.2119 10.952C25.8802 11.2542 25.3663 11.2304 25.064 10.8987C24.5761 10.3632 24.2019 9.73714 23.958 9.05994C23.8449 9.12753 23.7304 9.18911 23.6117 9.24521C23.4819 9.30653 23.3505 9.35967 23.2146 9.40711C23.5667 10.0477 23.7908 10.7576 23.8695 11.4953C23.917 11.9415 23.5939 12.3418 23.1477 12.3893C22.7015 12.4369 22.3012 12.1138 22.2536 11.6676C22.1768 10.9473 21.9051 10.2683 21.4752 9.70586L21.3039 9.70009C20.8555 9.685 20.5041 9.3092 20.5192 8.86073C20.5343 8.41225 20.9101 8.06092 21.3586 8.07601L21.7998 8.09086C22.3697 7.97835 22.6639 7.89578 22.9175 7.77597C23.1722 7.65562 23.4262 7.47861 23.8828 7.10517L24.1616 6.74807C24.4377 6.39438 24.9483 6.33151 25.302 6.60766Z" fill="white"/>
</svg>
