<svg width="40" height="40" viewBox="0 0 40 40" fill="none" xmlns="http://www.w3.org/2000/svg">
<circle cx="20" cy="20" r="19.5" fill="#F5F5F5" stroke="#E9E9E9"/>
<path fill-rule="evenodd" clip-rule="evenodd" d="M12.1992 15.1996C12.1992 14.8682 12.4678 14.5996 12.7992 14.5996H26.3992C26.7306 14.5996 26.9992 14.8682 26.9992 15.1996C26.9992 15.531 26.7306 15.7996 26.3992 15.7996H12.7992C12.4678 15.7996 12.1992 15.531 12.1992 15.1996ZM26.7682 18.7265C27.0295 18.9303 27.0761 19.3073 26.8723 19.5686L23.7523 23.5686C23.641 23.7114 23.4711 23.7962 23.2901 23.7995C23.1091 23.8028 22.9362 23.7242 22.8198 23.5855L21.1398 21.5855C20.9267 21.3318 20.9596 20.9533 21.2133 20.7402C21.467 20.5271 21.8455 20.56 22.0586 20.8137L23.2619 22.2462L25.9261 18.8306C26.1299 18.5693 26.507 18.5227 26.7682 18.7265ZM12.1992 19.1996C12.1992 18.8682 12.4678 18.5996 12.7992 18.5996H18.3992C18.7306 18.5996 18.9992 18.8682 18.9992 19.1996C18.9992 19.531 18.7306 19.7996 18.3992 19.7996H12.7992C12.4678 19.7996 12.1992 19.531 12.1992 19.1996ZM12.1992 23.1996C12.1992 22.8682 12.4678 22.5996 12.7992 22.5996H18.3992C18.7306 22.5996 18.9992 22.8682 18.9992 23.1996C18.9992 23.531 18.7306 23.7996 18.3992 23.7996H12.7992C12.4678 23.7996 12.1992 23.531 12.1992 23.1996Z" fill="#222222"/>
</svg>
