<svg width="35" height="35" viewBox="0 0 35 35" fill="none" xmlns="http://www.w3.org/2000/svg">
<path fill-rule="evenodd" clip-rule="evenodd" d="M6.125 10.5C6.125 10.0168 6.51675 9.625 7 9.625H26.8333C27.3166 9.625 27.7083 10.0168 27.7083 10.5C27.7083 10.9832 27.3166 11.375 26.8333 11.375H7C6.51675 11.375 6.125 10.9832 6.125 10.5ZM27.3715 15.6434C27.7525 15.9406 27.8205 16.4904 27.5233 16.8715L22.9733 22.7048C22.8109 22.913 22.5632 23.0367 22.2992 23.0415C22.0352 23.0463 21.7832 22.9316 21.6133 22.7295L19.1633 19.8128C18.8525 19.4428 18.9005 18.8908 19.2705 18.58C19.6406 18.2692 20.1925 18.3172 20.5033 18.6872L22.2581 20.7763L26.1434 15.7952C26.4406 15.4141 26.9904 15.3462 27.3715 15.6434ZM6.125 16.3333C6.125 15.8501 6.51675 15.4583 7 15.4583H15.1667C15.6499 15.4583 16.0417 15.8501 16.0417 16.3333C16.0417 16.8166 15.6499 17.2083 15.1667 17.2083H7C6.51675 17.2083 6.125 16.8166 6.125 16.3333ZM6.125 22.1667C6.125 21.6834 6.51675 21.2917 7 21.2917H15.1667C15.6499 21.2917 16.0417 21.6834 16.0417 22.1667C16.0417 22.6499 15.6499 23.0417 15.1667 23.0417H7C6.51675 23.0417 6.125 22.6499 6.125 22.1667Z" fill="white"/>
</svg>
