<svg width="40" height="40" viewBox="0 0 40 40" fill="none" xmlns="http://www.w3.org/2000/svg">
<circle cx="20" cy="20" r="19.5" fill="#F5F5F5" stroke="#E9E9E9"/>
<path d="M17.6004 23.2004C17.6004 23.6422 17.2422 24.0004 16.8004 24.0004C16.3586 24.0004 16.0004 23.6422 16.0004 23.2004C16.0004 22.7586 16.3586 22.4004 16.8004 22.4004C17.2422 22.4004 17.6004 22.7586 17.6004 23.2004Z" fill="#222222"/>
<path d="M20.8004 23.2004C20.8004 23.6422 20.4422 24.0004 20.0004 24.0004C19.5586 24.0004 19.2004 23.6422 19.2004 23.2004C19.2004 22.7586 19.5586 22.4004 20.0004 22.4004C20.4422 22.4004 20.8004 22.7586 20.8004 23.2004Z" fill="#222222"/>
<path d="M23.2004 24.0004C23.6422 24.0004 24.0004 23.6422 24.0004 23.2004C24.0004 22.7586 23.6422 22.4004 23.2004 22.4004C22.7586 22.4004 22.4004 22.7586 22.4004 23.2004C22.4004 23.6422 22.7586 24.0004 23.2004 24.0004Z" fill="#222222"/>
<path fill-rule="evenodd" clip-rule="evenodd" d="M14.6004 16.8004V17.8426C14.4189 17.8554 14.2479 17.872 14.087 17.8936C13.3669 17.9904 12.7606 18.1975 12.2791 18.6791C11.7975 19.1606 11.5904 19.7669 11.4936 20.487C11.4004 21.1806 11.4004 22.0624 11.4004 23.1565V23.2443C11.4004 24.3384 11.4004 25.2202 11.4936 25.9138C11.5904 26.6339 11.7975 27.2402 12.2791 27.7217C12.7606 28.2032 13.3669 28.4104 14.087 28.5072C14.7806 28.6004 15.6624 28.6004 16.7565 28.6004H23.2443C24.3384 28.6004 25.2202 28.6004 25.9138 28.5072C26.6339 28.4104 27.2402 28.2032 27.7217 27.7217C28.2032 27.2402 28.4104 26.6339 28.5072 25.9138C28.6004 25.2202 28.6004 24.3384 28.6004 23.2443V23.1565C28.6004 22.0624 28.6004 21.1806 28.5072 20.487C28.4104 19.7669 28.2032 19.1606 27.7217 18.6791C27.2402 18.1975 26.6339 17.9904 25.9138 17.8936C25.7529 17.872 25.5819 17.8554 25.4004 17.8426V16.8004C25.4004 13.8181 22.9827 11.4004 20.0004 11.4004C17.0181 11.4004 14.6004 13.8181 14.6004 16.8004ZM20.0004 12.6004C17.6808 12.6004 15.8004 14.4808 15.8004 16.8004V17.8031C16.0992 17.8004 16.4176 17.8004 16.7564 17.8004H23.2443C23.5831 17.8004 23.9016 17.8004 24.2004 17.8031V16.8004C24.2004 14.4808 22.32 12.6004 20.0004 12.6004ZM14.2469 19.0829C13.6599 19.1618 13.349 19.3062 13.1276 19.5276C12.9062 19.749 12.7618 20.0599 12.6829 20.6469C12.6017 21.2512 12.6004 22.0521 12.6004 23.2004C12.6004 24.3487 12.6017 25.1496 12.6829 25.7539C12.7618 26.3409 12.9062 26.6518 13.1276 26.8732C13.349 27.0946 13.6599 27.2389 14.2469 27.3179C14.8512 27.3991 15.6521 27.4004 16.8004 27.4004H23.2004C24.3487 27.4004 25.1496 27.3991 25.7539 27.3179C26.3409 27.2389 26.6518 27.0946 26.8732 26.8732C27.0946 26.6518 27.239 26.3409 27.3179 25.7539C27.3991 25.1496 27.4004 24.3487 27.4004 23.2004C27.4004 22.0521 27.3991 21.2512 27.3179 20.6469C27.239 20.0599 27.0946 19.749 26.8732 19.5276C26.6518 19.3062 26.3409 19.1618 25.7539 19.0829C25.1496 19.0017 24.3487 19.0004 23.2004 19.0004H16.8004C15.6521 19.0004 14.8512 19.0017 14.2469 19.0829Z" fill="#222222"/>
</svg>
