<svg width="35" height="35" viewBox="0 0 35 35" fill="none" xmlns="http://www.w3.org/2000/svg">
<path fill-rule="evenodd" clip-rule="evenodd" d="M16.2704 4.95801H18.729C20.0506 4.95798 21.1306 4.95796 21.9833 5.0726C22.8746 5.19243 23.6473 5.45175 24.2641 6.06856C24.8809 6.68537 25.1403 7.4581 25.2601 8.34938C25.319 8.7877 25.3477 9.2861 25.3616 9.84651C26.5962 10.0457 27.608 10.4378 28.4182 11.248C29.2913 12.1211 29.6788 13.2282 29.8627 14.596C30.0414 15.9251 30.0414 17.6234 30.0413 19.7674V19.899C30.0414 22.0431 30.0414 23.7413 29.8627 25.0704C29.6788 26.4383 29.2913 27.5454 28.4182 28.4185C27.5451 29.2915 26.438 29.679 25.0702 29.8629C23.7411 30.0416 22.0429 30.0416 19.8988 30.0416H15.1005C12.9565 30.0416 11.2582 30.0416 9.92915 29.8629C8.56132 29.679 7.45422 29.2915 6.58113 28.4185C5.70803 27.5454 5.32056 26.4383 5.13667 25.0704C4.95797 23.7413 4.95799 22.0431 4.95801 19.8991V19.7674C4.95799 17.6234 4.95797 15.9251 5.13667 14.596C5.32056 13.2282 5.70803 12.1211 6.58113 11.248C7.39139 10.4378 8.4032 10.0457 9.63779 9.84651C9.6517 9.2861 9.68033 8.7877 9.73926 8.34938C9.85909 7.4581 10.1184 6.68537 10.7352 6.06856C11.352 5.45175 12.1248 5.19243 13.016 5.0726C13.8687 4.95796 14.9487 4.95798 16.2704 4.95801ZM9.62467 11.6268C8.77185 11.798 8.23138 12.0726 7.81856 12.4855C7.32482 12.9792 7.02887 13.6555 6.87106 14.8292C6.70987 16.0282 6.70801 17.6086 6.70801 19.8332C6.70801 22.0579 6.70987 23.6383 6.87106 24.8372C7.02887 26.011 7.32482 26.6873 7.81856 27.181C8.31231 27.6748 8.98856 27.9707 10.1623 28.1285C11.3613 28.2897 12.9417 28.2916 15.1663 28.2916H19.833C22.0576 28.2916 23.6381 28.2897 24.837 28.1285C26.0108 27.9707 26.687 27.6748 27.1808 27.181C27.6745 26.6873 27.9705 26.011 28.1283 24.8372C28.2895 23.6383 28.2913 22.0579 28.2913 19.8332C28.2913 17.6086 28.2895 16.0282 28.1283 14.8292C27.9705 13.6555 27.6745 12.9792 27.1808 12.4855C26.768 12.0726 26.2275 11.798 25.3747 11.6268V12.9806C25.3747 13.0344 25.3747 13.0876 25.3748 13.1402C25.3758 14.0572 25.3765 14.7836 25.0718 15.4343C24.767 16.085 24.2085 16.5494 23.5033 17.1358C23.4629 17.1694 23.422 17.2034 23.3807 17.2378L22.4973 17.974C21.4632 18.8358 20.625 19.5343 19.8853 20.01C19.1147 20.5056 18.3643 20.8187 17.4997 20.8187C16.6351 20.8187 15.8846 20.5056 15.114 20.01C14.3743 19.5343 13.5362 18.8358 12.5021 17.974L11.6187 17.2378C11.5773 17.2034 11.5364 17.1694 11.496 17.1358C10.7909 16.5494 10.2323 16.085 9.92758 15.4343C9.62281 14.7836 9.62358 14.0572 9.62456 13.1401C9.62462 13.0876 9.62467 13.0344 9.62467 12.9806L9.62467 11.6268ZM13.2492 6.80699C12.552 6.90073 12.2101 7.06854 11.9727 7.306C11.7352 7.54346 11.5674 7.88534 11.4737 8.58256C11.3765 9.30495 11.3747 10.2667 11.3747 11.6663V12.9806C11.3747 14.1371 11.394 14.4393 11.5124 14.692C11.6307 14.9447 11.8505 15.153 12.739 15.8934L13.5785 16.5931C14.667 17.5001 15.4227 18.1278 16.0607 18.5382C16.6783 18.9354 17.0971 19.0687 17.4997 19.0687C17.9023 19.0687 18.3211 18.9354 18.9387 18.5382C19.5767 18.1278 20.3323 17.5001 21.4208 16.5931L22.2604 15.8934C23.1488 15.153 23.3686 14.9447 23.487 14.692C23.6053 14.4393 23.6247 14.1371 23.6247 12.9806V11.6663C23.6247 10.2667 23.6228 9.30495 23.5257 8.58256C23.432 7.88534 23.2641 7.54346 23.0267 7.306C22.7892 7.06854 22.4473 6.90073 21.7501 6.80699C21.0277 6.70987 20.066 6.70801 18.6663 6.70801H16.333C14.9333 6.70801 13.9716 6.70987 13.2492 6.80699ZM14.2913 10.4997C14.2913 10.0164 14.6831 9.62468 15.1663 9.62468H19.833C20.3163 9.62468 20.708 10.0164 20.708 10.4997C20.708 10.9829 20.3163 11.3747 19.833 11.3747H15.1663C14.6831 11.3747 14.2913 10.9829 14.2913 10.4997ZM15.458 13.9997C15.458 13.5164 15.8498 13.1247 16.333 13.1247H18.6663C19.1496 13.1247 19.5413 13.5164 19.5413 13.9997C19.5413 14.4829 19.1496 14.8747 18.6663 14.8747H16.333C15.8498 14.8747 15.458 14.4829 15.458 13.9997Z" fill="white"/>
</svg>
