<svg width="33" height="33" viewBox="0 0 33 33" fill="none" xmlns="http://www.w3.org/2000/svg">
<path fill-rule="evenodd" clip-rule="evenodd" d="M16.2499 6.39252C16.1211 6.58373 15.9623 6.86559 15.726 7.28956L15.584 7.5443C15.5734 7.56322 15.5625 7.58298 15.5513 7.60345C15.4337 7.81719 15.2739 8.10755 15.01 8.30786C14.7413 8.51187 14.4172 8.5832 14.1855 8.63421C14.1635 8.63905 14.1423 8.64371 14.1221 8.64828L13.8464 8.71067C13.3424 8.8247 13.0284 8.89768 12.8173 8.97145C12.9478 9.16749 13.1668 9.42643 13.5221 9.8419L13.7101 10.0617C13.7239 10.0779 13.7384 10.0946 13.7532 10.1118C13.9133 10.2971 14.1262 10.5436 14.2246 10.8601C14.322 11.1733 14.2891 11.4973 14.2639 11.745C14.2615 11.7681 14.2592 11.7906 14.2571 11.8123L14.2287 12.1056C14.1779 12.6295 14.1466 12.9685 14.1475 13.2082C14.3558 13.1344 14.641 13.0049 15.0762 12.8045L15.3344 12.6856C15.3534 12.6768 15.3733 12.6675 15.394 12.6578C15.6084 12.5575 15.9124 12.4153 16.2499 12.4153C16.5874 12.4153 16.8915 12.5575 17.1058 12.6578C17.1265 12.6675 17.1464 12.6768 17.1654 12.6856L17.4236 12.8045C17.8589 13.0049 18.1441 13.1344 18.3523 13.2082C18.3532 12.9685 18.3219 12.6295 18.2711 12.1056L18.2427 11.8123C18.2406 11.7906 18.2383 11.7681 18.236 11.745C18.2108 11.4973 18.1778 11.1733 18.2752 10.8601C18.3736 10.5436 18.5865 10.2971 18.7466 10.1118C18.7615 10.0946 18.7759 10.0779 18.7897 10.0617L18.9777 9.8419C19.333 9.42643 19.552 9.16749 19.6825 8.97145C19.4715 8.89768 19.1574 8.82469 18.6535 8.71067L18.3777 8.64828C18.3575 8.64371 18.3364 8.63905 18.3144 8.63421C18.0827 8.5832 17.7586 8.51187 17.4898 8.30786C17.226 8.10754 17.0662 7.81719 16.9486 7.60345C16.9373 7.58298 16.9264 7.56322 16.9159 7.5443L16.7739 7.28956C16.5375 6.86559 16.3788 6.58373 16.2499 6.39252ZM18.5823 13.2714C18.5835 13.2714 18.5841 13.2715 18.5841 13.2715L18.5823 13.2714ZM13.9157 13.2715C13.9157 13.2715 13.9164 13.2714 13.9176 13.2714L13.9157 13.2715ZM15.04 5.29224C15.2736 4.98714 15.6551 4.60449 16.2499 4.60449C16.8447 4.60449 17.2262 4.98714 17.4598 5.29224C17.6848 5.58603 17.9151 5.9993 18.1656 6.44875C18.1748 6.46524 18.184 6.48177 18.1932 6.49835L18.3352 6.75309C18.3751 6.82461 18.4059 6.87989 18.4333 6.92728C18.4517 6.95914 18.4662 6.9832 18.4778 7.00176C18.496 7.0068 18.519 7.01277 18.5486 7.01997C18.5995 7.03237 18.6588 7.04579 18.7363 7.06334L19.0121 7.12574C19.0309 7.12999 19.0497 7.13423 19.0684 7.13846C19.5525 7.24792 20.0044 7.35008 20.3456 7.48456C20.7154 7.63027 21.1621 7.89288 21.3342 8.44641C21.5036 8.99108 21.2951 9.4613 21.0844 9.79593C20.8865 10.1103 20.581 10.4675 20.2491 10.8555L20.0247 11.1179C19.9719 11.1796 19.9312 11.2272 19.8967 11.2689C19.8683 11.3032 19.8487 11.3279 19.8347 11.3465C19.8365 11.4069 19.8443 11.4918 19.8601 11.6556L19.8939 12.004C19.9443 12.5232 19.9903 12.9971 19.9736 13.3703C19.9564 13.758 19.8649 14.277 19.404 14.6269C18.9298 14.9869 18.4 14.9167 18.0242 14.809C17.6725 14.7082 17.25 14.5136 16.7969 14.3049C16.7793 14.2968 16.7617 14.2887 16.744 14.2805L16.4858 14.1616C16.4132 14.1282 16.3576 14.1027 16.3093 14.0814C16.2856 14.0709 16.2661 14.0626 16.2499 14.0559C16.2338 14.0626 16.2143 14.0709 16.1905 14.0814C16.1422 14.1027 16.0867 14.1282 16.014 14.1616L15.7559 14.2805C15.7382 14.2887 15.7206 14.2968 15.703 14.3049C15.2499 14.5136 14.8273 14.7082 14.4756 14.809C14.0999 14.9167 13.5701 14.9869 13.0959 14.6269C12.635 14.277 12.5435 13.758 12.5262 13.3703C12.5096 12.9971 12.5556 12.5232 12.6059 12.0041C12.6077 11.9857 12.6095 11.9673 12.6113 11.9489L12.6397 11.6556C12.6556 11.4918 12.6633 11.4069 12.6651 11.3465C12.6511 11.3279 12.6315 11.3032 12.6032 11.2689C12.5686 11.2272 12.5279 11.1796 12.4751 11.1179L12.2871 10.898C12.275 10.8838 12.2628 10.8696 12.2507 10.8554C11.9188 10.4675 11.6133 10.1103 11.4154 9.79593C11.2048 9.46131 10.9962 8.99108 11.1656 8.44641C11.3377 7.89288 11.7845 7.63027 12.1542 7.48456C12.4954 7.35008 12.9473 7.24792 13.4315 7.13846C13.4502 7.13423 13.4689 7.12999 13.4877 7.12574L13.7635 7.06334C13.8411 7.04579 13.9003 7.03237 13.9512 7.01997C13.9808 7.01277 14.0038 7.0068 14.0221 7.00177C14.0337 6.9832 14.0481 6.95914 14.0665 6.92728C14.0939 6.87989 14.1247 6.82461 14.1646 6.75309L14.3066 6.49835C14.3158 6.48177 14.3251 6.46524 14.3342 6.44875C14.5847 5.9993 14.815 5.58603 15.04 5.29224ZM7.58325 12.1354C7.63977 12.2398 7.76008 12.4527 7.95757 12.6027C8.16981 12.7638 8.42455 12.8174 8.53041 12.8397C8.541 12.8419 8.55009 12.8439 8.5575 12.8455L8.57981 12.8506L8.5444 12.892C8.53896 12.8984 8.5324 12.9058 8.52491 12.9144C8.45062 12.999 8.28457 13.1882 8.20796 13.4346C8.1324 13.6776 8.15963 13.9264 8.17207 14.0401C8.17334 14.0517 8.17446 14.0619 8.17529 14.0705L8.17646 14.0826C8.0743 14.0337 7.84268 13.9265 7.58325 13.9265C7.32382 13.9265 7.0922 14.0337 6.99004 14.0826L6.99121 14.0705C6.99204 14.0619 6.99316 14.0517 6.99443 14.0401C7.00687 13.9264 7.0341 13.6776 6.95854 13.4346C6.88193 13.1882 6.71588 12.999 6.64159 12.9144C6.6341 12.9058 6.62754 12.8984 6.6221 12.892L6.58669 12.8506L6.60899 12.8455C6.61641 12.8439 6.62551 12.8419 6.63609 12.8397C6.74195 12.8174 6.9967 12.7638 7.20893 12.6027C7.40642 12.4527 7.52673 12.2398 7.58325 12.1354ZM6.42969 12.0531L6.27598 11.3737L6.42969 12.0531ZM6.93975 14.7687C6.93998 14.7703 6.94006 14.7712 6.94004 14.7712L6.93975 14.7687ZM8.22646 14.7712C8.22644 14.7712 8.22652 14.7703 8.22675 14.7687L8.22646 14.7712ZM6.65575 10.5243C6.79514 10.3423 7.09103 10.0212 7.58325 10.0212C8.07547 10.0212 8.37136 10.3423 8.51075 10.5243C8.64192 10.6956 8.77046 10.9264 8.88873 11.1388C8.89577 11.1514 8.90278 11.164 8.90975 11.1765L8.96246 11.2711L9.05399 11.2918C9.06793 11.295 9.08199 11.2981 9.09615 11.3013C9.32462 11.3529 9.57924 11.4103 9.78005 11.4895C10.0086 11.5796 10.3729 11.7761 10.5133 12.2277C10.651 12.6705 10.4721 13.0366 10.3443 13.2396C10.2289 13.4229 10.058 13.6225 9.90111 13.8058C9.89182 13.8167 9.88258 13.8275 9.8734 13.8382L9.79435 13.9306L9.80693 14.0604C9.80829 14.0745 9.80966 14.0886 9.81104 14.1028C9.83494 14.3484 9.8606 14.612 9.85096 14.8284C9.8407 15.0587 9.78385 15.4753 9.40591 15.7622C9.01471 16.0592 8.58878 15.9862 8.35849 15.9202C8.15153 15.8609 7.91369 15.7512 7.7 15.6527C7.68669 15.6466 7.67348 15.6405 7.66037 15.6344L7.58325 15.5989L7.50612 15.6344C7.49302 15.6405 7.47981 15.6466 7.4665 15.6527C7.25281 15.7512 7.01497 15.8609 6.80801 15.9202C6.57772 15.9862 6.15179 16.0592 5.76059 15.7622C5.38265 15.4753 5.3258 15.0587 5.31554 14.8284C5.3059 14.612 5.33156 14.3484 5.35546 14.1028C5.35684 14.0886 5.35821 14.0745 5.35957 14.0604L5.37215 13.9306L5.2931 13.8382C5.28392 13.8275 5.27468 13.8167 5.26539 13.8058C5.10846 13.6225 4.93758 13.4229 4.8222 13.2396C4.69445 13.0366 4.51549 12.6705 4.65317 12.2277C4.79361 11.7761 5.15787 11.5796 5.38645 11.4895C5.58726 11.4103 5.84188 11.3529 6.07035 11.3013C6.08451 11.2981 6.09857 11.295 6.11251 11.2918L6.20404 11.2711L6.25675 11.1765C6.26372 11.164 6.27073 11.1514 6.27777 11.1388C6.39604 10.9264 6.52458 10.6956 6.65575 10.5243ZM24.9166 12.1354C24.9731 12.2398 25.0934 12.4527 25.2909 12.6027C25.5031 12.7638 25.7579 12.8174 25.8637 12.8397C25.8743 12.8419 25.8834 12.8439 25.8908 12.8455L25.9132 12.8506L25.8777 12.892C25.8723 12.8984 25.8657 12.9058 25.8582 12.9144C25.784 12.999 25.6179 13.1882 25.5413 13.4346C25.4657 13.6776 25.493 13.9264 25.5054 14.0401C25.5067 14.0517 25.5078 14.0619 25.5086 14.0705L25.5098 14.0826C25.4076 14.0337 25.176 13.9265 24.9166 13.9265C24.6572 13.9265 24.4255 14.0337 24.3234 14.0826L24.3245 14.0705C24.3254 14.0619 24.3265 14.0517 24.3278 14.0401C24.3402 13.9264 24.3674 13.6776 24.2919 13.4346C24.2153 13.1882 24.0492 12.999 23.9749 12.9144C23.9674 12.9058 23.9609 12.8984 23.9554 12.892L23.92 12.8506L23.9423 12.8455C23.9497 12.8439 23.9588 12.8419 23.9694 12.8397C24.0753 12.8174 24.33 12.7638 24.5423 12.6027C24.7398 12.4527 24.8601 12.2398 24.9166 12.1354ZM24.2731 14.7687C24.2733 14.7704 24.2734 14.7713 24.2734 14.7712L24.2731 14.7687ZM23.9891 10.5243C24.1285 10.3423 24.4244 10.0212 24.9166 10.0212C25.4088 10.0212 25.7047 10.3423 25.8441 10.5243C25.9753 10.6956 26.1038 10.9264 26.2221 11.1388C26.2291 11.1514 26.2361 11.164 26.2431 11.1765L26.2958 11.2711L26.3873 11.2918C26.4013 11.295 26.4153 11.2981 26.4295 11.3013C26.658 11.3529 26.9126 11.4103 27.1134 11.4895C27.342 11.5796 27.7062 11.7761 27.8467 12.2277C27.9843 12.6705 27.8054 13.0366 27.6776 13.2396C27.5623 13.4229 27.3914 13.6225 27.2344 13.8058C27.2251 13.8167 27.2159 13.8275 27.2067 13.8382L27.1277 13.9306L27.1403 14.0604C27.1416 14.0745 27.143 14.0886 27.1444 14.1028C27.1683 14.3484 27.1939 14.612 27.1843 14.8284C27.174 15.0587 27.1172 15.4753 26.7392 15.7622C26.348 16.0592 25.9221 15.9862 25.6918 15.9202C25.4849 15.8609 25.247 15.7512 25.0334 15.6527C25.02 15.6466 25.0068 15.6405 24.9937 15.6344L24.9166 15.5989L24.8395 15.6344C24.8264 15.6405 24.8132 15.6466 24.7999 15.6527C24.5862 15.7512 24.3483 15.8609 24.1413 15.9202C23.9111 15.9862 23.4851 16.0592 23.0939 15.7622C22.716 15.4753 22.6591 15.0587 22.6489 14.8284C22.6392 14.612 22.6649 14.3484 22.6888 14.1028C22.6902 14.0886 22.6915 14.0745 22.6929 14.0604L22.7055 13.9306L22.6264 13.8382C22.6173 13.8275 22.608 13.8167 22.5987 13.8058C22.4418 13.6225 22.2709 13.4228 22.1555 13.2396C22.0278 13.0366 21.8488 12.6705 21.9865 12.2277C22.1269 11.7761 22.4912 11.5796 22.7198 11.4895C22.9206 11.4103 23.1752 11.3529 23.4037 11.3013C23.4178 11.2981 23.4319 11.295 23.4459 11.2918L23.5374 11.2711L23.5901 11.1765C23.5971 11.164 23.6041 11.1514 23.6111 11.1388C23.7294 10.9264 23.8579 10.6956 23.9891 10.5243ZM25.5598 14.7712C25.5598 14.7711 25.5599 14.7703 25.5601 14.7687L25.5598 14.7712ZM12.6575 18.9025C14.6788 18.5109 16.8426 18.5988 18.5934 19.6431C18.8394 19.7898 19.0699 19.9725 19.271 20.1984C19.6782 20.6558 19.8885 21.2243 19.8984 21.7942C20.1056 21.6605 20.3132 21.5121 20.5241 21.3528L22.4818 19.8739C23.4618 19.1336 24.886 19.1335 25.8661 19.8735C26.7717 20.5573 27.1327 21.7845 26.4844 22.8237C26.0237 23.5623 25.3298 24.5838 24.6236 25.2378C23.9098 25.899 22.8939 26.4549 22.1254 26.8258C21.1921 27.2763 20.1841 27.5253 19.2039 27.6839C17.2007 28.0082 15.1161 27.9586 13.1353 27.5505C12.1231 27.342 11.0711 27.2336 10.0315 27.2336H7.58325C7.13452 27.2336 6.77075 26.8698 6.77075 26.4211C6.77075 25.9723 7.13452 25.6086 7.58325 25.6086H10.0315C11.1821 25.6086 12.3439 25.7284 13.4632 25.959C15.2529 26.3277 17.1384 26.3722 18.9443 26.0798C19.8423 25.9345 20.6808 25.7186 21.419 25.3623C22.1594 25.005 22.9918 24.5343 23.5194 24.0456C24.053 23.5515 24.6501 22.6939 25.1057 21.9636C25.2432 21.7432 25.2242 21.4251 24.8869 21.1704C24.4863 20.8679 23.8618 20.868 23.4613 21.1705L21.5035 22.6494C20.722 23.2398 19.76 23.8714 18.5669 24.0618C18.4465 24.081 18.3211 24.0985 18.191 24.114C18.1289 24.1252 18.0643 24.1326 17.9976 24.1351C17.3884 24.1957 16.683 24.2097 15.9046 24.1362C15.4579 24.0941 15.1299 23.6977 15.1721 23.251C15.2143 22.8042 15.6106 22.4763 16.0574 22.5184C16.7371 22.5826 17.3469 22.5685 17.8643 22.5153C17.8748 22.5143 17.8853 22.5132 17.8957 22.5121C17.9173 22.4995 17.9503 22.4766 17.9936 22.4388C18.3397 22.1367 18.3706 21.6309 18.0573 21.279C17.9779 21.1898 17.8801 21.1097 17.761 21.0387C16.4815 20.2755 14.7725 20.148 12.9666 20.4978C11.1709 20.8457 9.3869 21.6471 8.05326 22.5929C7.68723 22.8525 7.18007 22.7662 6.92049 22.4002C6.66091 22.0341 6.74721 21.527 7.11324 21.2674C8.62813 20.1931 10.6259 19.2961 12.6575 18.9025Z" fill="white"/>
</svg>
