<svg width="40" height="40" viewBox="0 0 40 40" fill="none" xmlns="http://www.w3.org/2000/svg">
<circle cx="20" cy="20" r="19.5" fill="#F5F5F5" stroke="#E9E9E9"/>
<path d="M20.6004 12.0004C20.6004 11.669 20.3318 11.4004 20.0004 11.4004C19.669 11.4004 19.4004 11.669 19.4004 12.0004V14.4004C19.4004 14.7318 19.669 15.0004 20.0004 15.0004C20.3318 15.0004 20.6004 14.7318 20.6004 14.4004V12.0004Z" fill="#222222"/>
<path d="M22.0579 19.0442C21.7508 18.9199 21.401 19.0681 21.2766 19.3753C21.1523 19.6824 21.3005 20.0322 21.6077 20.1566C22.2592 20.4203 22.7803 20.9414 23.044 21.5929C23.1684 21.9001 23.5182 22.0483 23.8253 21.9239C24.1325 21.7996 24.2807 21.4498 24.1564 21.1427C23.7707 20.1899 23.0107 19.4299 22.0579 19.0442Z" fill="#222222"/>
<path fill-rule="evenodd" clip-rule="evenodd" d="M20.0004 16.2004C16.1344 16.2004 13.0004 19.3344 13.0004 23.2004V27.4004H12.0004C11.669 27.4004 11.4004 27.669 11.4004 28.0004C11.4004 28.3318 11.669 28.6004 12.0004 28.6004H28.0004C28.3318 28.6004 28.6004 28.3318 28.6004 28.0004C28.6004 27.669 28.3318 27.4004 28.0004 27.4004H27.0004V23.2004C27.0004 19.3344 23.8664 16.2004 20.0004 16.2004ZM20.6004 27.4004H25.8004V23.2004C25.8004 19.9971 23.2036 17.4004 20.0004 17.4004C16.7971 17.4004 14.2004 19.9971 14.2004 23.2004V27.4004H19.4004V26.098C18.7013 25.8509 18.2004 25.1841 18.2004 24.4004C18.2004 23.4063 19.0063 22.6004 20.0004 22.6004C20.9945 22.6004 21.8004 23.4063 21.8004 24.4004C21.8004 25.1841 21.2995 25.8509 20.6004 26.098V27.4004ZM20.0004 25.0004C20.3318 25.0004 20.6004 24.7318 20.6004 24.4004C20.6004 24.069 20.3318 23.8004 20.0004 23.8004C19.669 23.8004 19.4004 24.069 19.4004 24.4004C19.4004 24.7318 19.669 25.0004 20.0004 25.0004Z" fill="#222222"/>
<path d="M27.6247 14.7761C27.859 15.0104 27.859 15.3903 27.6247 15.6247L26.4247 16.8247C26.1903 17.059 25.8104 17.059 25.5761 16.8247C25.3418 16.5903 25.3418 16.2104 25.5761 15.9761L26.7761 14.7761C27.0104 14.5418 27.3903 14.5418 27.6247 14.7761Z" fill="#222222"/>
<path d="M13.2247 14.7761C12.9903 14.5418 12.6104 14.5418 12.3761 14.7761C12.1418 15.0104 12.1418 15.3903 12.3761 15.6247L13.5761 16.8247C13.8104 17.059 14.1903 17.059 14.4247 16.8247C14.659 16.5903 14.659 16.2104 14.4247 15.9761L13.2247 14.7761Z" fill="#222222"/>
</svg>
