<svg width="40" height="40" viewBox="0 0 40 40" fill="none" xmlns="http://www.w3.org/2000/svg">
<circle cx="20" cy="20" r="19.5" fill="#F5F5F5" stroke="#E9E9E9"/>
<path fill-rule="evenodd" clip-rule="evenodd" d="M20.0004 12.6004C15.9135 12.6004 12.6004 15.9135 12.6004 20.0004C12.6004 21.1852 12.8784 22.3034 13.3722 23.2949C13.5704 23.6928 13.6467 24.1686 13.5217 24.636L13.0452 26.4168C12.9577 26.7439 13.2569 27.0431 13.584 26.9556L15.3648 26.4791C15.8322 26.354 16.308 26.4304 16.7059 26.6286C17.6974 27.1224 18.8155 27.4004 20.0004 27.4004C24.0873 27.4004 27.4004 24.0873 27.4004 20.0004C27.4004 15.9135 24.0873 12.6004 20.0004 12.6004ZM11.4004 20.0004C11.4004 15.2507 15.2507 11.4004 20.0004 11.4004C24.75 11.4004 28.6004 15.2507 28.6004 20.0004C28.6004 24.75 24.75 28.6004 20.0004 28.6004C18.6257 28.6004 17.3248 28.2774 16.1709 27.7027C15.9987 27.6169 15.8229 27.5987 15.675 27.6383L13.8942 28.1148C12.6751 28.441 11.5598 27.3257 11.886 26.1066L12.3625 24.3258C12.4021 24.1779 12.3839 24.0021 12.2981 23.8299C11.7234 22.676 11.4004 21.375 11.4004 20.0004ZM22.8247 17.9761C23.059 18.2104 23.059 18.5903 22.8247 18.8247L19.6247 22.0247C19.3937 22.2556 19.0205 22.2594 18.7849 22.0332L17.1849 20.4972C16.9458 20.2677 16.9381 19.8879 17.1676 19.6489C17.397 19.4098 17.7769 19.4021 18.0159 19.6316L19.1918 20.7604L21.9761 17.9761C22.2104 17.7418 22.5903 17.7418 22.8247 17.9761Z" fill="#222222"/>
</svg>
