<svg width="35" height="35" viewBox="0 0 35 35" fill="none" xmlns="http://www.w3.org/2000/svg">
<path fill-rule="evenodd" clip-rule="evenodd" d="M11.6663 5.54199C12.1496 5.54199 12.5413 5.93374 12.5413 6.41699V7.30683C13.3137 7.29198 14.1646 7.29198 15.1005 7.29199H19.8988C20.8347 7.29198 21.6856 7.29198 22.458 7.30683V6.41699C22.458 5.93374 22.8498 5.54199 23.333 5.54199C23.8163 5.54199 24.208 5.93374 24.208 6.41699V7.38193C24.5113 7.40505 24.7985 7.43411 25.0702 7.47065C26.438 7.65455 27.5451 8.04202 28.4182 8.91511C29.2913 9.7882 29.6788 10.8953 29.8627 12.2631C29.9215 12.7003 29.9609 13.1773 29.9874 13.6971C30.0223 13.7916 30.0413 13.8937 30.0413 14.0003C30.0413 14.0812 30.0304 14.1595 30.0098 14.2339C30.0414 15.1695 30.0413 16.2319 30.0413 17.4345V19.8995C30.0414 22.0435 30.0414 23.7418 29.8627 25.0709C29.6788 26.4387 29.2913 27.5458 28.4182 28.4189C27.5451 29.292 26.438 29.6794 25.0702 29.8633C23.7411 30.042 22.0429 30.042 19.8988 30.042H15.1005C12.9565 30.042 11.2582 30.042 9.92915 29.8633C8.56132 29.6794 7.45422 29.292 6.58113 28.4189C5.70803 27.5458 5.32056 26.4387 5.13667 25.0709C4.95797 23.7418 4.95799 22.0435 4.95801 19.8995V17.4345C4.958 16.2319 4.95799 15.1695 4.98952 14.2339C4.96898 14.1595 4.95801 14.0812 4.95801 14.0003C4.95801 13.8937 4.97708 13.7915 5.01199 13.6971C5.03845 13.1773 5.07789 12.7003 5.13667 12.2631C5.32056 10.8953 5.70803 9.7882 6.58113 8.91511C7.45422 8.04202 8.56132 7.65455 9.92915 7.47065C10.2009 7.43411 10.4881 7.40505 10.7913 7.38193V6.41699C10.7913 5.93374 11.1831 5.54199 11.6663 5.54199ZM6.72327 14.8753C6.70838 15.6368 6.70801 16.504 6.70801 17.5003V19.8337C6.70801 22.0583 6.70987 23.6387 6.87106 24.8377C7.02887 26.0114 7.32482 26.6877 7.81856 27.1814C8.31231 27.6752 8.98856 27.9711 10.1623 28.1289C11.3613 28.2901 12.9417 28.292 15.1663 28.292H19.833C22.0576 28.292 23.6381 28.2901 24.837 28.1289C26.0108 27.9711 26.687 27.6752 27.1808 27.1814C27.6745 26.6877 27.9705 26.0114 28.1283 24.8377C28.2895 23.6387 28.2913 22.0583 28.2913 19.8337V17.5003C28.2913 16.504 28.291 15.6368 28.2761 14.8753H6.72327ZM28.196 13.1253H6.80331C6.82199 12.9044 6.84433 12.6951 6.87106 12.4963C7.02887 11.3225 7.32482 10.6463 7.81856 10.1525C8.31231 9.6588 8.98856 9.36285 10.1623 9.20504C11.3613 9.04385 12.9417 9.04199 15.1663 9.04199H19.833C22.0576 9.04199 23.6381 9.04385 24.837 9.20504C26.0108 9.36285 26.687 9.6588 27.1808 10.1525C27.6745 10.6463 27.9705 11.3225 28.1283 12.4963C28.155 12.6951 28.1774 12.9044 28.196 13.1253ZM16.0845 17.8586C16.4115 17.994 16.6247 18.3131 16.6247 18.667V23.3337C16.6247 23.8169 16.2329 24.2087 15.7497 24.2087C15.2664 24.2087 14.8747 23.8169 14.8747 23.3337V20.7794L14.6184 21.0357C14.2767 21.3774 13.7227 21.3774 13.381 21.0357C13.0392 20.694 13.0392 20.14 13.381 19.7983L15.131 18.0483C15.3812 17.798 15.7576 17.7232 16.0845 17.8586ZM19.833 19.542C19.6719 19.542 19.5413 19.6726 19.5413 19.8337V22.167C19.5413 22.3281 19.6719 22.4587 19.833 22.4587C19.9941 22.4587 20.1247 22.3281 20.1247 22.167V19.8337C20.1247 19.6726 19.9941 19.542 19.833 19.542ZM17.7913 19.8337C17.7913 18.7061 18.7054 17.792 19.833 17.792C20.9606 17.792 21.8747 18.7061 21.8747 19.8337V22.167C21.8747 23.2946 20.9606 24.2087 19.833 24.2087C18.7054 24.2087 17.7913 23.2946 17.7913 22.167V19.8337Z" fill="white"/>
</svg>
