<svg width="24" height="24" viewBox="0 0 24 24" fill="none" xmlns="http://www.w3.org/2000/svg">
<path fill-rule="evenodd" clip-rule="evenodd" d="M14.3992 3.40039H11.1541C9.68388 3.40038 8.51937 3.40037 7.608 3.5229C6.67006 3.649 5.9109 3.9147 5.31221 4.51339C4.71352 5.11208 4.44783 5.87123 4.32173 6.80917C4.1992 7.72054 4.19921 8.88505 4.19922 10.3552V15.2004C4.19922 16.6982 5.29686 17.9396 6.73163 18.1642C6.84201 18.7754 7.05324 19.2971 7.4779 19.7217C7.95943 20.2032 8.56573 20.4104 9.28582 20.5072C9.97939 20.6004 10.8612 20.6004 11.9553 20.6004H14.4431C15.5372 20.6004 16.419 20.6004 17.1126 20.5072C17.8327 20.4104 18.439 20.2032 18.9205 19.7217C19.4021 19.2402 19.6092 18.6339 19.706 17.9138C19.7992 17.2202 19.7992 16.3384 19.7992 15.2443V11.1565C19.7992 10.0624 19.7992 9.18056 19.706 8.48699C19.6092 7.7669 19.4021 7.1606 18.9205 6.67907C18.4959 6.25441 17.9742 6.04318 17.363 5.9328C17.1384 4.49803 15.897 3.40039 14.3992 3.40039ZM16.1027 5.81733C15.8604 5.10938 15.1893 4.60039 14.3992 4.60039H11.1992C9.67376 4.60039 8.59003 4.60167 7.7679 4.7122C6.96303 4.82041 6.49931 5.02335 6.16074 5.36191C5.82217 5.70048 5.61924 6.1642 5.51103 6.96907C5.40049 7.7912 5.39922 8.87493 5.39922 10.4004V15.2004C5.39922 15.9904 5.90821 16.6616 6.61615 16.9039C6.5992 16.4159 6.59921 15.8641 6.59922 15.2443V11.1565C6.5992 10.0624 6.59919 9.18056 6.69244 8.48699C6.78925 7.7669 6.99637 7.1606 7.4779 6.67907C7.95943 6.19754 8.56573 5.99042 9.28582 5.89361C9.97939 5.80036 10.8612 5.80037 11.9553 5.80039H14.4431C15.063 5.80038 15.6147 5.80037 16.1027 5.81733ZM8.32643 7.5276C8.54784 7.30619 8.8587 7.16183 9.44572 7.08291C10.05 7.00167 10.8509 7.00039 11.9992 7.00039H14.3992C15.5476 7.00039 16.3484 7.00167 16.9527 7.08291C17.5397 7.16183 17.8506 7.30619 18.072 7.5276C18.2934 7.74901 18.4378 8.05987 18.5167 8.64689C18.5979 9.25117 18.5992 10.0521 18.5992 11.2004V15.2004C18.5992 16.3487 18.5979 17.1496 18.5167 17.7539C18.4378 18.3409 18.2934 18.6518 18.072 18.8732C17.8506 19.0946 17.5397 19.239 16.9527 19.3179C16.3484 19.3991 15.5476 19.4004 14.3992 19.4004H11.9992C10.8509 19.4004 10.05 19.3991 9.44572 19.3179C8.8587 19.239 8.54784 19.0946 8.32643 18.8732C8.10502 18.6518 7.96066 18.3409 7.88174 17.7539C7.80049 17.1496 7.79922 16.3487 7.79922 15.2004V11.2004C7.79922 10.0521 7.80049 9.25117 7.88174 8.64689C7.96066 8.05987 8.10502 7.74901 8.32643 7.5276Z" fill="#444444"/>
</svg>
