<svg width="12" height="12" viewBox="0 0 12 12" fill="none" xmlns="http://www.w3.org/2000/svg">
<path d="M5.73333 1.12822e-07H5.70273C4.47159 -6.75363e-06 3.50677 -1.21911e-05 2.75398 0.101198C1.98345 0.204793 1.37544 0.420974 0.898206 0.898206C0.420974 1.37544 0.204793 1.98345 0.101198 2.75398C-1.21911e-05 3.50677 -6.75363e-06 4.47159 1.12821e-07 5.70273V5.76394C-6.75363e-06 6.99508 -1.21911e-05 7.9599 0.101198 8.71269C0.204793 9.48322 0.420974 10.0912 0.898206 10.5685C1.37544 11.0457 1.98345 11.2619 2.75398 11.3655C3.50677 11.4667 4.47159 11.4667 5.70273 11.4667H5.76393C6.99508 11.4667 7.9599 11.4667 8.71269 11.3655C9.48322 11.2619 10.0912 11.0457 10.5685 10.5685C11.0457 10.0912 11.2619 9.48322 11.3655 8.71269C11.4667 7.9599 11.4667 6.99508 11.4667 5.76393V5.73333C11.4667 5.51242 11.2876 5.33333 11.0667 5.33333C10.8458 5.33333 10.6667 5.51242 10.6667 5.73333C10.6667 7.00172 10.6658 7.91277 10.5726 8.60609C10.4809 9.28791 10.3066 9.69896 10.0028 10.0028C9.69896 10.3066 9.28791 10.4809 8.60609 10.5726C7.91277 10.6658 7.00172 10.6667 5.73333 10.6667C4.46495 10.6667 3.5539 10.6658 2.86057 10.5726C2.17876 10.4809 1.76771 10.3066 1.46389 10.0028C1.16007 9.69896 0.985732 9.28791 0.894064 8.60609C0.80085 7.91277 0.8 7.00172 0.8 5.73333C0.8 4.46495 0.80085 3.5539 0.894064 2.86057C0.985732 2.17876 1.16007 1.76771 1.46389 1.46389C1.76771 1.16007 2.17876 0.985732 2.86057 0.894064C3.5539 0.80085 4.46495 0.8 5.73333 0.8C5.95425 0.8 6.13333 0.620914 6.13333 0.4C6.13333 0.179086 5.95425 1.12822e-07 5.73333 1.12822e-07Z" fill="#959595"/>
<path d="M5.98382 4.91716C5.82761 5.07337 5.82761 5.32663 5.98382 5.48284C6.14003 5.63905 6.3933 5.63905 6.54951 5.48284L10.6667 1.36569V3.25C10.6667 3.47091 10.8458 3.65 11.0667 3.65C11.2876 3.65 11.4667 3.47091 11.4667 3.25V0.4C11.4667 0.179086 11.2876 1.12822e-07 11.0667 1.12822e-07H8.21667C7.99575 1.12822e-07 7.81667 0.179086 7.81667 0.4C7.81667 0.620914 7.99575 0.8 8.21667 0.8H10.101L5.98382 4.91716Z" fill="#959595"/>
</svg>
