<svg width="35" height="35" viewBox="0 0 35 35" fill="none" xmlns="http://www.w3.org/2000/svg">
<path fill-rule="evenodd" clip-rule="evenodd" d="M17.4318 4.95825H17.5656C20.2588 4.95824 22.3693 4.95823 24.016 5.17962C25.7016 5.40624 27.0316 5.87913 28.0755 6.92308C29.1195 7.96702 29.5924 9.29705 29.819 10.9826C30.0404 12.6293 30.0404 14.7399 30.0404 17.433V17.5669C30.0404 20.26 30.0404 22.3705 29.819 24.0173C29.5924 25.7028 29.1195 27.0328 28.0755 28.0768C27.0316 29.1207 25.7016 29.5936 24.016 29.8202C22.3693 30.0416 20.2588 30.0416 17.5656 30.0416H17.4318C14.7386 30.0416 12.6281 30.0416 10.9814 29.8202C9.29583 29.5936 7.9658 29.1207 6.92186 28.0768C5.87791 27.0328 5.40502 25.7028 5.1784 24.0173C4.957 22.3705 4.95702 20.26 4.95703 17.5669V17.433C4.95702 14.7399 4.957 12.6293 5.1784 10.9826C5.40502 9.29705 5.87791 7.96702 6.92186 6.92308C7.9658 5.87913 9.29583 5.40624 10.9814 5.17962C12.6281 4.95823 14.7386 4.95824 17.4318 4.95825ZM11.2145 6.91402C9.72307 7.11454 8.82389 7.49592 8.15929 8.16051C7.49469 8.82511 7.11332 9.72429 6.9128 11.2158C6.70889 12.7324 6.70703 14.7253 6.70703 17.4999C6.70703 20.2745 6.70889 22.2674 6.9128 23.7841C7.11332 25.2756 7.49469 26.1747 8.15929 26.8393C8.82389 27.5039 9.72307 27.8853 11.2145 28.0858C12.7312 28.2897 14.7241 28.2916 17.4987 28.2916C20.2733 28.2916 22.2662 28.2897 23.7829 28.0858C25.2743 27.8853 26.1735 27.5039 26.8381 26.8393C27.5027 26.1747 27.8841 25.2756 28.0846 23.7841C28.2885 22.2674 28.2904 20.2745 28.2904 17.4999C28.2904 14.7253 28.2885 12.7324 28.0846 11.2158C27.8841 9.72429 27.5027 8.82511 26.8381 8.16051C26.1735 7.49592 25.2743 7.11454 23.7829 6.91402C22.2662 6.71011 20.2733 6.70825 17.4987 6.70825C14.7241 6.70825 12.7312 6.71011 11.2145 6.91402ZM13.4154 15.4583C12.2878 15.4583 11.3737 16.3723 11.3737 17.4999C11.3737 18.6275 12.2878 19.5416 13.4154 19.5416C14.5429 19.5416 15.457 18.6275 15.457 17.4999C15.457 16.3723 14.5429 15.4583 13.4154 15.4583ZM9.6237 17.4999C9.6237 15.4058 11.3213 13.7083 13.4154 13.7083C15.2083 13.7083 16.7106 14.9527 17.1056 16.6249H23.332C24.4596 16.6249 25.3737 17.539 25.3737 18.6666V19.8333C25.3737 20.3165 24.9819 20.7083 24.4987 20.7083C24.0155 20.7083 23.6237 20.3165 23.6237 19.8333V18.6666C23.6237 18.5055 23.4931 18.3749 23.332 18.3749H22.457V19.2499C22.457 19.7332 22.0653 20.1249 21.582 20.1249C21.0988 20.1249 20.707 19.7332 20.707 19.2499V18.3749H17.1056C16.7106 20.0472 15.2083 21.2916 13.4154 21.2916C11.3213 21.2916 9.6237 19.594 9.6237 17.4999Z" fill="white"/>
</svg>
