<svg width="25" height="25" viewBox="0 0 25 25" fill="none" xmlns="http://www.w3.org/2000/svg">
<path d="M12.9613 16.2551C12.8429 16.3846 12.6755 16.4583 12.5 16.4583C12.3245 16.4583 12.1571 16.3846 12.0387 16.2551L8.7054 12.6092C8.47249 12.3545 8.49019 11.9591 8.74494 11.7262C8.99969 11.4933 9.39502 11.511 9.62794 11.7658L11.875 14.2235V5C11.875 4.65482 12.1548 4.375 12.5 4.375C12.8452 4.375 13.125 4.65482 13.125 5V14.2235L15.3721 11.7658C15.605 11.511 16.0003 11.4933 16.2551 11.7262C16.5098 11.9591 16.5275 12.3545 16.2946 12.6092L12.9613 16.2551Z" fill="white"/>
<path d="M5.625 15C5.625 14.6548 5.34518 14.375 5 14.375C4.65482 14.375 4.375 14.6548 4.375 15V15.0457C4.37498 16.1854 4.37497 17.104 4.4721 17.8265C4.57295 18.5766 4.7887 19.2081 5.29029 19.7097C5.79189 20.2113 6.42345 20.4271 7.17354 20.5279C7.89602 20.625 8.81462 20.625 9.95428 20.625H15.0457C16.1854 20.625 17.104 20.625 17.8265 20.5279C18.5766 20.4271 19.2081 20.2113 19.7097 19.7097C20.2113 19.2081 20.4271 18.5766 20.5279 17.8265C20.625 17.104 20.625 16.1854 20.625 15.0457V15C20.625 14.6548 20.3452 14.375 20 14.375C19.6548 14.375 19.375 14.6548 19.375 15C19.375 16.1962 19.3737 17.0304 19.289 17.6599C19.2068 18.2714 19.0565 18.5952 18.8258 18.8258C18.5952 19.0565 18.2714 19.2068 17.6599 19.289C17.0304 19.3737 16.1962 19.375 15 19.375H10C8.80382 19.375 7.96956 19.3737 7.3401 19.289C6.72862 19.2068 6.40481 19.0565 6.17418 18.8258C5.94354 18.5952 5.79317 18.2714 5.71096 17.6599C5.62633 17.0304 5.625 16.1962 5.625 15Z" fill="white"/>
</svg>
