<svg width="35" height="35" viewBox="0 0 35 35" fill="none" xmlns="http://www.w3.org/2000/svg">
<path fill-rule="evenodd" clip-rule="evenodd" d="M17.4997 6.70801C11.5396 6.70801 6.70801 11.5396 6.70801 17.4997C6.70801 23.4597 11.5396 28.2913 17.4997 28.2913C23.4597 28.2913 28.2913 23.4597 28.2913 17.4997C28.2913 11.5396 23.4597 6.70801 17.4997 6.70801ZM4.95801 17.4997C4.95801 10.5731 10.5731 4.95801 17.4997 4.95801C24.4262 4.95801 30.0413 10.5731 30.0413 17.4997C30.0413 24.4262 24.4262 30.0413 17.4997 30.0413C10.5731 30.0413 4.95801 24.4262 4.95801 17.4997ZM13.2967 21.6453C13.5845 21.2571 14.1325 21.1756 14.5207 21.4634C15.3705 22.0932 16.3961 22.458 17.4997 22.458C18.6032 22.458 19.6289 22.0932 20.4786 21.4634C20.8669 21.1756 21.4149 21.2571 21.7026 21.6453C21.9904 22.0335 21.909 22.5815 21.5207 22.8693C20.3862 23.7102 18.9988 24.208 17.4997 24.208C16.0005 24.208 14.6131 23.7102 13.4786 22.8693C13.0904 22.5815 13.009 22.0335 13.2967 21.6453Z" fill="white"/>
<path d="M22.1663 15.7497C22.1663 16.7162 21.644 17.4997 20.9997 17.4997C20.3553 17.4997 19.833 16.7162 19.833 15.7497C19.833 14.7832 20.3553 13.9997 20.9997 13.9997C21.644 13.9997 22.1663 14.7832 22.1663 15.7497Z" fill="white"/>
<path d="M15.1663 15.7497C15.1663 16.7162 14.644 17.4997 13.9997 17.4997C13.3553 17.4997 12.833 16.7162 12.833 15.7497C12.833 14.7832 13.3553 13.9997 13.9997 13.9997C14.644 13.9997 15.1663 14.7832 15.1663 15.7497Z" fill="white"/>
</svg>
