<svg width="35" height="35" viewBox="0 0 35 35" fill="none" xmlns="http://www.w3.org/2000/svg">
<path fill-rule="evenodd" clip-rule="evenodd" d="M11.5012 4.95826C11.5359 4.95827 11.5711 4.95827 11.6068 4.95827L11.6499 4.95827C12.0599 4.95824 12.3237 4.95822 12.5817 4.98234C13.6915 5.08613 14.7443 5.52218 15.6024 6.23357C15.8019 6.3989 15.9884 6.58548 16.2783 6.87543L16.9508 7.54789C17.9374 8.53455 18.3168 8.90287 18.7549 9.14664C19.0093 9.28815 19.2791 9.39991 19.559 9.47969C20.0412 9.61714 20.5699 9.62494 21.9652 9.62494L22.4606 9.62494C23.9457 9.62492 25.1429 9.6249 26.0901 9.74399C27.0717 9.8674 27.9058 10.1308 28.591 10.7471C28.7058 10.8503 28.815 10.9595 28.9182 11.0743C29.5346 11.7595 29.7979 12.5936 29.9213 13.5753C30.0404 14.5225 30.0404 15.7197 30.0404 17.2048V19.8991C30.0404 22.0431 30.0404 23.7414 29.8617 25.0705C29.6778 26.4383 29.2904 27.5454 28.4173 28.4185C27.5442 29.2916 26.4371 29.679 25.0692 29.8629C23.7402 30.0416 22.0419 30.0416 19.8979 30.0416H15.0996C12.9555 30.0416 11.2573 30.0416 9.92819 29.8629C8.56036 29.679 7.45326 29.2916 6.58017 28.4185C5.70708 27.5454 5.31961 26.4383 5.13571 25.0705C4.95702 23.7414 4.95703 22.0431 4.95705 19.8991L4.95705 11.608C4.95705 11.5723 4.95705 11.5371 4.95704 11.5024C4.95691 10.5739 4.95683 9.98291 5.05313 9.47249C5.47608 7.23078 7.22956 5.4773 9.47127 5.05435C9.98169 4.95805 10.5726 4.95813 11.5012 4.95826ZM11.6068 6.70827C10.5373 6.70827 10.1239 6.7121 9.79573 6.77401C8.26193 7.0634 7.06218 8.26315 6.77279 9.79695C6.71087 10.1251 6.70705 10.5386 6.70705 11.608V19.8333C6.70705 22.0579 6.70891 23.6383 6.8701 24.8373C7.02791 26.0111 7.32386 26.6873 7.8176 27.181C8.31135 27.6748 8.9876 27.9707 10.1614 28.1286C11.3603 28.2897 12.9408 28.2916 15.1654 28.2916H19.832C22.0567 28.2916 23.6371 28.2897 24.8361 28.1286C26.0098 27.9707 26.6861 27.6748 27.1798 27.181C27.6736 26.6873 27.9695 26.0111 28.1273 24.8373C28.2885 23.6383 28.2904 22.0579 28.2904 19.8333V17.2642C28.2904 15.7057 28.2888 14.6188 28.185 13.7936C28.084 12.9901 27.8985 12.5574 27.6171 12.2445C27.5552 12.1757 27.4896 12.1102 27.4208 12.0482C27.1079 11.7668 26.6752 11.5813 25.8718 11.4803C25.0465 11.3766 23.9597 11.3749 22.4012 11.3749H21.9652C21.9218 11.3749 21.8789 11.3749 21.8366 11.375C20.614 11.3752 19.8255 11.3754 19.0793 11.1627C18.6702 11.046 18.2758 10.8827 17.9041 10.6759C17.226 10.2986 16.6686 9.741 15.8043 8.8763C15.7743 8.84635 15.744 8.81602 15.7133 8.78532L15.0714 8.14336C14.7409 7.81287 14.6144 7.68768 14.4856 7.58084C13.8984 7.09411 13.1781 6.79575 12.4187 6.72474C12.2521 6.70916 12.0741 6.70827 11.6068 6.70827ZM17.4987 17.2083C16.6933 17.2083 16.0404 17.8612 16.0404 18.6666C16.0404 19.472 16.6933 20.1249 17.4987 20.1249C18.3041 20.1249 18.957 19.472 18.957 18.6666C18.957 17.8612 18.3041 17.2083 17.4987 17.2083ZM14.2904 18.6666C14.2904 16.8947 15.7268 15.4583 17.4987 15.4583C19.2706 15.4583 20.707 16.8947 20.707 18.6666C20.707 20.1352 19.7203 21.3733 18.3737 21.7542V23.9166C18.3737 24.3999 17.982 24.7916 17.4987 24.7916C17.0155 24.7916 16.6237 24.3999 16.6237 23.9166V21.7542C15.2771 21.3733 14.2904 20.1352 14.2904 18.6666Z" fill="white"/>
</svg>
