<svg width="28" height="28" viewBox="0 0 28 28" fill="none" xmlns="http://www.w3.org/2000/svg">
<path fill-rule="evenodd" clip-rule="evenodd" d="M23.3346 14.0003C23.3346 8.84567 19.156 4.66699 14.0013 4.66699C8.84664 4.66699 4.66797 8.84567 4.66797 14.0003C4.66797 19.155 8.84664 23.3337 14.0013 23.3337C19.156 23.3337 23.3346 19.155 23.3346 14.0003ZM14.0013 8.63366C14.3879 8.63366 14.7013 8.94706 14.7013 9.33366V14.9337C14.7013 15.3203 14.3879 15.6337 14.0013 15.6337C13.6147 15.6337 13.3013 15.3203 13.3013 14.9337V9.33366C13.3013 8.94706 13.6147 8.63366 14.0013 8.63366ZM14.0013 18.667C14.5168 18.667 14.9346 18.2491 14.9346 17.7337C14.9346 17.2182 14.5168 16.8003 14.0013 16.8003C13.4858 16.8003 13.068 17.2182 13.068 17.7337C13.068 18.2491 13.4858 18.667 14.0013 18.667Z" fill="#DC2D2D"/>
</svg>
