<svg width="24" height="24" viewBox="0 0 24 24" fill="none" xmlns="http://www.w3.org/2000/svg">
<path fill-rule="evenodd" clip-rule="evenodd" d="M15.6 4.2002C14.1641 4.2002 13 5.36425 13 6.8002C13 6.95692 13.0139 7.11041 13.0404 7.25949L9.25593 9.90866C9.23669 9.92212 9.21849 9.9365 9.20134 9.95171C8.75994 9.60617 8.20403 9.4002 7.6 9.4002C6.16406 9.4002 5 10.5643 5 12.0002C5 13.4361 6.16406 14.6002 7.6 14.6002C8.20403 14.6002 8.75994 14.3942 9.20134 14.0487C9.2185 14.0639 9.23669 14.0783 9.25593 14.0917L13.0404 16.7409C13.0139 16.89 13 17.0435 13 17.2002C13 18.6361 14.1641 19.8002 15.6 19.8002C17.0359 19.8002 18.2 18.6361 18.2 17.2002C18.2 15.7643 17.0359 14.6002 15.6 14.6002C14.7578 14.6002 14.0091 15.0007 13.5339 15.6216L9.95044 13.1131C10.1105 12.7757 10.2 12.3984 10.2 12.0002C10.2 11.602 10.1105 11.2247 9.95044 10.8873L13.5339 8.37883C14.0091 8.99973 14.7578 9.4002 15.6 9.4002C17.0359 9.4002 18.2 8.23614 18.2 6.8002C18.2 5.36425 17.0359 4.2002 15.6 4.2002ZM14.2 6.8002C14.2 6.027 14.8268 5.4002 15.6 5.4002C16.3732 5.4002 17 6.027 17 6.8002C17 7.57339 16.3732 8.2002 15.6 8.2002C14.8268 8.2002 14.2 7.57339 14.2 6.8002ZM7.6 10.6002C6.8268 10.6002 6.2 11.227 6.2 12.0002C6.2 12.7734 6.8268 13.4002 7.6 13.4002C8.3732 13.4002 9 12.7734 9 12.0002C9 11.227 8.3732 10.6002 7.6 10.6002ZM15.6 15.8002C14.8268 15.8002 14.2 16.427 14.2 17.2002C14.2 17.9734 14.8268 18.6002 15.6 18.6002C16.3732 18.6002 17 17.9734 17 17.2002C17 16.427 16.3732 15.8002 15.6 15.8002Z" fill="white"/>
</svg>
