<svg width="40" height="40" viewBox="0 0 40 40" fill="none" xmlns="http://www.w3.org/2000/svg">
<circle cx="20" cy="20" r="19.5" fill="#F5F5F5" stroke="#E9E9E9"/>
<path fill-rule="evenodd" clip-rule="evenodd" d="M21.6794 12.3133C22.8966 11.0961 24.87 11.0961 26.0871 12.3133C27.3043 13.5304 27.3043 15.5038 26.0871 16.721L20.0119 22.7962C19.6695 23.1387 19.4604 23.3478 19.2274 23.5296C18.9528 23.7437 18.6557 23.9274 18.3413 24.0772C18.0745 24.2043 17.794 24.2978 17.3345 24.4509L15.1964 25.1636L14.6831 25.3348C14.2236 25.4879 13.717 25.3683 13.3746 25.0259C13.0321 24.6834 12.9125 24.1768 13.0657 23.7173L13.9495 21.0659C14.1026 20.6065 14.1961 20.3259 14.3232 20.0591C14.4731 19.7447 14.6567 19.4476 14.8708 19.173C15.0526 18.94 15.2618 18.7309 15.6042 18.3885L21.6794 12.3133ZM15.1687 23.908L14.4924 23.2317L15.0752 21.4835C15.2449 20.9745 15.3149 20.7675 15.4065 20.5753C15.5188 20.3397 15.6565 20.1169 15.8171 19.9111C15.948 19.7432 16.1017 19.588 16.4811 19.2086L21.1939 14.4958C21.3884 14.9838 21.7176 15.5728 22.2726 16.1278C22.8276 16.6828 23.4166 17.012 23.9046 17.2065L19.1918 21.9193C18.8124 22.2987 18.6572 22.4524 18.4894 22.5833C18.2835 22.7439 18.0607 22.8816 17.8251 22.9939C17.6329 23.0855 17.426 23.1556 16.917 23.3252L15.1687 23.908ZM24.8608 16.2503C24.7617 16.2286 24.6379 16.1958 24.497 16.147C24.1098 16.0126 23.6005 15.7586 23.1211 15.2793C22.6418 14.7999 22.3878 14.2906 22.2534 13.9034C22.2046 13.7626 22.1718 13.6387 22.1501 13.5396L22.5279 13.1618C23.2765 12.4133 24.4901 12.4133 25.2386 13.1618C25.9872 13.9103 25.9872 15.1239 25.2386 15.8725L24.8608 16.2503ZM13 28.0004C13 27.669 13.2686 27.4004 13.6 27.4004H26.4V28.6004H13.6C13.2686 28.6004 13 28.3318 13 28.0004Z" fill="#222222"/>
</svg>
