<svg width="20" height="20" viewBox="0 0 20 20" fill="none" xmlns="http://www.w3.org/2000/svg">
<path d="M8.05654 15.4569C7.90454 15.4569 7.75254 15.4009 7.63254 15.2809L2.77654 10.4249C2.54454 10.1929 2.54454 9.80888 2.77654 9.57688L7.63254 4.72088C7.86454 4.48888 8.24854 4.48888 8.48054 4.72088C8.71254 4.95288 8.71254 5.33688 8.48054 5.56888L4.04854 10.0009L8.48054 14.4329C8.71254 14.6649 8.71254 15.0489 8.48054 15.2809C8.36854 15.4009 8.20854 15.4569 8.05654 15.4569Z" fill="#292D32"/>
<path d="M16.8003 10.6004H3.33633C3.00833 10.6004 2.73633 10.3284 2.73633 10.0004C2.73633 9.67239 3.00833 9.40039 3.33633 9.40039H16.8003C17.1283 9.40039 17.4003 9.67239 17.4003 10.0004C17.4003 10.3284 17.1283 10.6004 16.8003 10.6004Z" fill="#292D32"/>
</svg>
