<svg width="22" height="22" viewBox="0 0 22 22" fill="none" xmlns="http://www.w3.org/2000/svg">
<path d="M15.4013 6.67456C16.3547 6.76834 16.9965 6.98029 17.4755 7.45929C18.3346 8.31844 18.3346 9.70123 18.3346 12.4668C18.3346 15.2324 18.3346 16.6152 17.4755 17.4743C16.6163 18.3335 15.2335 18.3335 12.468 18.3335H9.53464C6.76906 18.3335 5.38628 18.3335 4.52712 17.4743C3.66797 16.6152 3.66797 15.2324 3.66797 12.4668C3.66797 9.70123 3.66797 8.31844 4.52712 7.45929C5.00612 6.98029 5.64789 6.76834 6.6013 6.67456" stroke="white" stroke-width="1.5"/>
<path d="M9.53516 6.6001H12.4685" stroke="white" stroke-width="1.5" stroke-linecap="round"/>
<path d="M10.2656 8.80005H11.7323" stroke="white" stroke-width="1.5" stroke-linecap="round"/>
<path d="M8.18475 10.8527L8.04083 10.7328C7.33308 10.143 6.9792 9.84812 6.79038 9.44498C6.60156 9.04183 6.60156 8.58119 6.60156 7.65991V7.33341C6.60156 5.60493 6.60156 4.74069 7.13853 4.20372C7.6755 3.66675 8.53975 3.66675 10.2682 3.66675H11.7349C13.4634 3.66675 14.3276 3.66675 14.8646 4.20372C15.4016 4.74069 15.4016 5.60493 15.4016 7.33341V7.65991C15.4016 8.58119 15.4016 9.04183 15.2127 9.44498C15.0239 9.84812 14.67 10.143 13.9623 10.7328L13.8184 10.8527C12.4715 11.9751 11.7981 12.5363 11.0016 12.5363C10.2051 12.5363 9.53162 11.9751 8.18475 10.8527Z" stroke="white" stroke-width="1.5" stroke-linecap="round"/>
<path d="M6.60156 9.53345L8.18475 10.8528C9.53162 11.9752 10.2051 12.5364 11.0016 12.5364C11.7981 12.5364 12.4715 11.9752 13.8184 10.8528L15.4016 9.53345" stroke="white" stroke-width="1.5" stroke-linecap="round"/>
</svg>
