<svg width="20" height="20" viewBox="0 0 20 20" fill="none" xmlns="http://www.w3.org/2000/svg">
<path d="M11.544 4.944C11.696 4.944 11.848 5 11.968 5.12L16.824 9.976C17.056 10.208 17.056 10.592 16.824 10.824L11.968 15.68C11.736 15.912 11.352 15.912 11.12 15.68C10.888 15.448 10.888 15.064 11.12 14.832L15.552 10.4L11.12 5.968C10.888 5.736 10.888 5.352 11.12 5.12C11.232 5 11.392 4.944 11.544 4.944Z" fill="#111111"/>
<path d="M2.79928 9.8L16.2633 9.8C16.5913 9.8 16.8633 10.072 16.8633 10.4C16.8633 10.728 16.5913 11 16.2633 11L2.79928 11C2.47128 11 2.19928 10.728 2.19928 10.4C2.19928 10.072 2.47128 9.8 2.79928 9.8Z" fill="#111111"/>
</svg>
