<svg width="20" height="20" viewBox="0 0 20 20" fill="none" xmlns="http://www.w3.org/2000/svg">
<path d="M11.9435 4.54312C12.0955 4.54312 12.2475 4.59912 12.3675 4.71912L17.2235 9.57512C17.4555 9.80712 17.4555 10.1911 17.2235 10.4231L12.3675 15.2791C12.1355 15.5111 11.7515 15.5111 11.5195 15.2791C11.2875 15.0471 11.2875 14.6631 11.5195 14.4311L15.9515 9.99912L11.5195 5.56712C11.2875 5.33512 11.2875 4.95112 11.5195 4.71912C11.6315 4.59912 11.7915 4.54312 11.9435 4.54312Z" fill="#292D32"/>
<path d="M3.19967 9.39961L16.6637 9.39961C16.9917 9.39961 17.2637 9.67161 17.2637 9.99961C17.2637 10.3276 16.9917 10.5996 16.6637 10.5996L3.19967 10.5996C2.87167 10.5996 2.59967 10.3276 2.59967 9.99961C2.59967 9.67161 2.87167 9.39961 3.19967 9.39961Z" fill="#292D32"/>
</svg>
