<svg width="34" height="34" viewBox="0 0 34 34" fill="none" xmlns="http://www.w3.org/2000/svg">
<path fill-rule="evenodd" clip-rule="evenodd" d="M17.4552 7.32509C17.0498 7.71 16.5581 8.33172 15.8287 9.25901L15.46 9.72774C15.4357 9.75862 15.4116 9.78938 15.3877 9.81997C15.0569 10.2421 14.7516 10.6317 14.3228 10.8605C13.8868 11.0931 13.3983 11.1202 12.884 11.1487C12.8468 11.1508 12.8094 11.1528 12.7719 11.155L12.2005 11.1878C11.0676 11.253 10.316 11.2986 9.79219 11.4118C9.28742 11.5208 9.21168 11.6478 9.17932 11.7129C9.14079 11.7905 9.08841 11.9545 9.29967 12.4684C9.51481 12.9918 9.9143 13.6711 10.511 14.6798L10.8128 15.1899C10.8317 15.2219 10.8506 15.2537 10.8693 15.2853C11.1452 15.7498 11.3934 16.1679 11.4587 16.655C11.5235 17.1382 11.3976 17.6114 11.2557 18.1448C11.246 18.181 11.2363 18.2176 11.2266 18.2544L11.0717 18.84C10.7659 19.9967 10.5608 20.7798 10.4919 21.3538C10.4229 21.928 10.5229 22.0567 10.5628 22.0998C10.5634 22.1004 10.564 22.1011 10.5647 22.1018C10.591 22.1307 10.679 22.227 11.1845 22.1687C11.67 22.1127 12.3233 21.9408 13.2737 21.679C12.9651 21.422 12.6976 21.1842 12.4891 20.9603C12.1208 20.5648 11.7715 20.0405 11.868 19.3632C11.9653 18.6808 12.4521 18.2793 12.9196 18.0103C13.3675 17.7525 13.9906 17.5085 14.7076 17.2278L15.164 17.049C15.394 16.959 15.522 16.9081 15.6148 16.8629C15.6673 16.8373 15.6884 16.8227 15.6946 16.8178C15.6994 16.8115 15.7135 16.7903 15.738 16.7379C15.7816 16.6448 15.8301 16.5163 15.9163 16.2852L16.0872 15.8265C16.3555 15.1064 16.5888 14.4802 16.8391 14.0285C17.1008 13.5562 17.4943 13.0645 18.1743 12.9555C18.8487 12.8474 19.3792 13.1848 19.7826 13.5453C20.1713 13.8926 20.6038 14.4102 21.1039 15.0087L21.4205 15.3874C21.5803 15.5787 21.6708 15.6861 21.7449 15.7617C21.778 15.7956 21.7983 15.8129 21.8095 15.8216C21.8149 15.8258 21.8181 15.828 21.8197 15.829L21.8225 15.8306L21.8253 15.8318C21.8269 15.8324 21.8304 15.8337 21.8368 15.8354C21.8502 15.8391 21.8757 15.8449 21.9221 15.8511C22.0261 15.8651 22.1652 15.8732 22.413 15.8866L22.9041 15.9132C23.1361 15.9258 23.3588 15.9378 23.5707 15.9513C24.0793 15.5036 24.4185 15.1744 24.6302 14.8977C24.857 14.6016 24.8593 14.4676 24.8489 14.3899C24.8386 14.3127 24.8037 14.1647 24.3606 13.8938C23.9009 13.6128 23.2044 13.3204 22.1545 12.8835L21.6249 12.6631C21.5903 12.6487 21.5559 12.6345 21.5216 12.6203C21.0436 12.4225 20.5923 12.2358 20.2565 11.8733C19.9264 11.5169 19.7636 11.05 19.5858 10.5404C19.5731 10.5038 19.5602 10.467 19.5473 10.4299L19.349 9.86463C18.9569 8.74666 18.691 7.99496 18.4307 7.49577C18.175 7.00559 18.0379 6.98386 18.0121 6.97978C18.0115 6.97968 18.011 6.9796 18.0105 6.97952C18.01 6.97943 18.0094 6.97932 18.0088 6.9792C17.9847 6.97464 17.8509 6.94939 17.4552 7.32509ZM25.5472 16.3189C25.6863 16.172 25.8115 16.0279 25.9205 15.8856C26.2924 15.3998 26.5487 14.8389 26.4595 14.1739C26.3531 13.3804 25.8178 12.8801 25.2082 12.5074C24.6276 12.1525 23.8117 11.813 22.8423 11.4096L22.2492 11.1628C21.6016 10.8933 21.5124 10.8378 21.4486 10.7689C21.3787 10.6935 21.3225 10.5815 21.0807 9.89209L20.8604 9.26421C20.496 8.22497 20.1927 7.36024 19.8715 6.74433C19.5451 6.11853 19.0814 5.51353 18.2834 5.37759C17.483 5.24125 16.8471 5.66165 16.3363 6.14666C15.8345 6.6231 15.2701 7.34067 14.5928 8.20179L14.1828 8.72308C13.7324 9.2957 13.6452 9.38024 13.5578 9.42684C13.4781 9.46939 13.3784 9.49242 12.6786 9.53266L12.1073 9.56551C12.0841 9.56684 12.0611 9.56817 12.0382 9.56948C10.9929 9.62954 10.1123 9.68014 9.44904 9.82342C8.75217 9.97398 8.08102 10.271 7.72388 10.9902C7.37289 11.6971 7.52212 12.4182 7.79669 13.0862C8.06212 13.7319 8.52429 14.5131 9.07927 15.4512L9.41418 16.0173C9.7793 16.6344 9.83236 16.7532 9.84813 16.8709C9.86447 16.9927 9.84272 17.1312 9.65556 17.839L9.48437 18.4864C9.19899 19.5656 8.9626 20.4595 8.87847 21.16C8.79276 21.8737 8.83232 22.623 9.37079 23.2042C9.92503 23.8024 10.671 23.8637 11.3708 23.783C12.0428 23.7054 12.8979 23.469 13.9133 23.1883L14.0524 23.1498L14.6998 22.8353C14.7166 22.85 14.7319 22.864 14.7461 22.8773C14.7806 22.9098 14.7983 22.9296 14.8073 22.9406C14.8115 22.9459 14.8137 22.9491 14.8147 22.9505L14.8162 22.953L14.8173 22.9555C14.8179 22.9569 14.8192 22.9603 14.821 22.9664C14.8249 22.9794 14.8311 23.0045 14.8382 23.0506C14.854 23.1537 14.8647 23.2921 14.8826 23.5391L14.9182 24.0288C14.9742 24.8004 15.0228 25.4695 15.136 25.9764C15.2543 26.5061 15.4903 27.0846 16.0995 27.3905C16.7108 27.6975 17.3155 27.5382 17.8088 27.3131C18.2794 27.0983 18.8391 26.7338 19.4831 26.3144L19.8929 26.0476C20.0995 25.9131 20.2149 25.8387 20.3055 25.7896C20.3457 25.7678 20.3687 25.758 20.3805 25.7536C20.386 25.7515 20.389 25.7507 20.3899 25.7504L20.391 25.7502L20.3925 25.7501C20.3937 25.75 20.3971 25.7498 20.4035 25.7501C20.417 25.7506 20.4429 25.7528 20.4891 25.761C20.5926 25.7794 20.7281 25.814 20.9689 25.8767L21.4462 26.0008C22.1988 26.1967 22.8506 26.3663 23.3671 26.4224C23.9029 26.4806 24.5345 26.4462 25.017 25.9561C25.5002 25.4652 25.5234 24.8329 25.4552 24.2985C25.3895 23.7839 25.2076 23.1365 24.9977 22.3896L24.8645 21.9155C24.7973 21.6764 24.7602 21.5421 24.74 21.4394C24.731 21.3936 24.7283 21.3681 24.7276 21.355C24.7272 21.3489 24.7273 21.3456 24.7273 21.3446C24.7274 21.3445 24.7274 21.3435 24.7275 21.3432C24.7277 21.3424 24.7285 21.3395 24.7304 21.3341C24.7345 21.3225 24.7438 21.2996 24.7649 21.2591C24.8124 21.168 24.8848 21.0516 25.0159 20.8431L25.276 20.4293C25.6844 19.7796 26.0397 19.2145 26.2465 18.7409C26.4634 18.2444 26.6128 17.6364 26.293 17.0302C26.1114 16.6859 25.843 16.4651 25.5472 16.3189ZM18.4081 14.5592C18.4078 14.5585 18.4118 14.5584 18.4207 14.561C18.4128 14.5612 18.4083 14.5599 18.4081 14.5592ZM18.4343 14.5659C18.4725 14.5814 18.555 14.6276 18.6999 14.757C18.9889 15.0153 19.3453 15.4385 19.8971 16.0987L20.1736 16.4295C20.1932 16.453 20.2129 16.4767 20.2327 16.5005C20.4741 16.7911 20.7318 17.1013 21.0932 17.2828C21.4555 17.4647 21.8579 17.4853 22.2335 17.5045C22.2643 17.5061 22.2948 17.5076 22.3252 17.5093L22.7537 17.5325C23.6091 17.5787 24.1579 17.6106 24.5357 17.6874C24.7161 17.7241 24.8046 17.7617 24.844 17.7845C24.847 17.7862 24.8496 17.7878 24.8518 17.7892C24.8517 17.7904 24.8516 17.7917 24.8515 17.7931C24.8481 17.8345 24.8297 17.9249 24.7574 18.0905C24.6055 18.4383 24.3186 18.8989 23.8664 19.6183L23.6401 19.9783C23.6239 20.004 23.6076 20.0299 23.5911 20.0559C23.3924 20.3697 23.176 20.7117 23.1186 21.1145C23.0615 21.5155 23.1723 21.9053 23.2748 22.2658C23.2833 22.2957 23.2918 22.3255 23.3001 22.3551L23.4162 22.7684C23.6481 23.5937 23.7947 24.1235 23.8432 24.5041C23.8654 24.6775 23.8598 24.7679 23.8523 24.8101C23.8101 24.8185 23.7189 24.8261 23.5426 24.8069C23.1597 24.7653 22.6256 24.6286 21.7945 24.4123L21.3781 24.304C21.3483 24.2963 21.3184 24.2884 21.2883 24.2805C20.9248 24.1847 20.5334 24.0816 20.1338 24.1457C19.7322 24.2101 19.3941 24.4317 19.0829 24.6356C19.0572 24.6525 19.0316 24.6693 19.0062 24.6858L18.6495 24.9181C17.9368 25.3821 17.4801 25.6768 17.1341 25.8348C16.9693 25.91 16.8784 25.9302 16.8362 25.9345C16.8337 25.9347 16.8315 25.9349 16.8296 25.935C16.8281 25.9328 16.8263 25.93 16.8243 25.9267C16.801 25.8882 16.7619 25.8011 16.7219 25.6222C16.6382 25.2473 16.5963 24.7009 16.5344 23.8484L16.5033 23.4214C16.5011 23.3911 16.499 23.3606 16.4969 23.3299C16.4708 22.9558 16.4428 22.5536 16.2535 22.1947C16.0648 21.8371 15.7491 21.5856 15.4537 21.3502C15.4294 21.3309 15.4053 21.3117 15.3814 21.2925L15.0447 21.0227C14.3731 20.4844 13.9425 20.1365 13.6783 19.8529C13.5492 19.7142 13.5008 19.6335 13.4837 19.5951C13.5112 19.5646 13.5784 19.506 13.73 19.4187C14.0594 19.2292 14.5659 19.0285 15.3594 18.7177L15.7566 18.5621C15.7851 18.551 15.8138 18.5398 15.8428 18.5286C16.1895 18.3941 16.5677 18.2473 16.8527 17.9578C17.1379 17.668 17.2784 17.2875 17.4069 16.9392C17.4177 16.9101 17.4283 16.8812 17.439 16.8526L17.5877 16.4536C17.8848 15.6563 18.0767 15.1479 18.2605 14.8162C18.3466 14.6607 18.4046 14.593 18.4343 14.5659ZM13.4754 19.5673C13.4762 19.5675 13.4776 19.5719 13.4777 19.5799C13.4748 19.571 13.4747 19.567 13.4754 19.5673ZM13.4733 19.6076C13.4706 19.6159 13.4675 19.6201 13.4666 19.6201C13.4657 19.6201 13.4671 19.6159 13.4733 19.6076ZM23.8425 24.8417C23.842 24.841 23.8434 24.8363 23.848 24.8294C23.8453 24.8388 23.8429 24.8423 23.8425 24.8417ZM23.8715 24.8054C23.8782 24.8007 23.8828 24.7992 23.8835 24.7997C23.8841 24.8001 23.8807 24.8025 23.8715 24.8054ZM18.4453 14.5567C18.4536 14.5503 18.4578 14.5489 18.4578 14.5498C18.4578 14.5507 18.4536 14.5539 18.4453 14.5567Z" fill="white"/>
</svg>
