<svg width="40" height="40" viewBox="0 0 40 40" fill="none" xmlns="http://www.w3.org/2000/svg">
<circle cx="20" cy="20" r="19.5" fill="#F5F5F5" stroke="#E9E9E9"/>
<path fill-rule="evenodd" clip-rule="evenodd" d="M17.5916 14.6466C18.5356 12.7247 20.5127 11.4004 22.8004 11.4004C26.0036 11.4004 28.6004 13.9971 28.6004 17.2004C28.6004 18.0581 28.4138 18.8738 28.0785 19.6079C27.991 19.7994 27.974 19.9804 28.0129 20.1258L28.1148 20.5066C28.441 21.7257 27.3257 22.841 26.1066 22.5148L25.7258 22.4129C25.6176 22.3839 25.4897 22.386 25.3523 22.425C24.9443 25.9024 21.9874 28.6004 18.4004 28.6004C17.3204 28.6004 16.296 28.3554 15.3811 27.9174C15.2 27.8307 15.0217 27.8131 14.875 27.8524L13.8942 28.1148C12.6751 28.441 11.5598 27.3257 11.886 26.1066L12.1484 25.1258C12.1877 24.9791 12.1701 24.8008 12.0834 24.6197C11.6454 23.7048 11.4004 22.6804 11.4004 21.6004C11.4004 18.0079 14.1066 15.0476 17.5916 14.6466ZM18.9884 14.6247C22.4482 14.9125 25.1935 17.7165 25.3892 21.2017C25.5992 21.1817 25.8175 21.1952 26.036 21.2537L26.4168 21.3556C26.7439 21.4431 27.0431 21.1439 26.9556 20.8168L26.8537 20.436C26.728 19.9661 26.8099 19.497 26.987 19.1093C27.2523 18.5286 27.4004 17.8826 27.4004 17.2004C27.4004 14.6599 25.3409 12.6004 22.8004 12.6004C21.2149 12.6004 19.8158 13.4027 18.9884 14.6247ZM18.4004 15.8004C15.1971 15.8004 12.6004 18.3971 12.6004 21.6004C12.6004 22.4972 12.8035 23.3449 13.1657 24.1015C13.3541 24.4949 13.433 24.9674 13.3076 25.436L13.0452 26.4168C12.9577 26.7439 13.2569 27.0431 13.584 26.9556L14.5648 26.6931C15.0334 26.5678 15.5059 26.6467 15.8993 26.8351C16.6558 27.1973 17.5036 27.4004 18.4004 27.4004C21.6036 27.4004 24.2004 24.8036 24.2004 21.6004C24.2004 18.3971 21.6036 15.8004 18.4004 15.8004Z" fill="#222222"/>
<path d="M16.4004 21.6004C16.4004 22.0422 16.0422 22.4004 15.6004 22.4004C15.1586 22.4004 14.8004 22.0422 14.8004 21.6004C14.8004 21.1586 15.1586 20.8004 15.6004 20.8004C16.0422 20.8004 16.4004 21.1586 16.4004 21.6004Z" fill="#222222"/>
<path d="M19.2004 21.6004C19.2004 22.0422 18.8422 22.4004 18.4004 22.4004C17.9586 22.4004 17.6004 22.0422 17.6004 21.6004C17.6004 21.1586 17.9586 20.8004 18.4004 20.8004C18.8422 20.8004 19.2004 21.1586 19.2004 21.6004Z" fill="#222222"/>
<path d="M22.0004 21.6004C22.0004 22.0422 21.6422 22.4004 21.2004 22.4004C20.7586 22.4004 20.4004 22.0422 20.4004 21.6004C20.4004 21.1586 20.7586 20.8004 21.2004 20.8004C21.6422 20.8004 22.0004 21.1586 22.0004 21.6004Z" fill="#222222"/>
</svg>
