<svg width="20" height="20" viewBox="0 0 20 20" fill="none" xmlns="http://www.w3.org/2000/svg">
<path d="M11.544 4.944C11.696 4.944 11.848 5 11.968 5.12L16.824 9.976C17.056 10.208 17.056 10.592 16.824 10.824L11.968 15.68C11.736 15.912 11.352 15.912 11.12 15.68C10.888 15.448 10.888 15.064 11.12 14.832L15.552 10.4L11.12 5.968C10.888 5.736 10.888 5.352 11.12 5.12C11.232 5 11.392 4.944 11.544 4.944Z" fill="white"/>
<path d="M2.80026 9.8L16.2643 9.8C16.5923 9.8 16.8643 10.072 16.8643 10.4C16.8643 10.728 16.5923 11 16.2643 11L2.80026 11C2.47226 11 2.20026 10.728 2.20026 10.4C2.20026 10.072 2.47226 9.8 2.80026 9.8Z" fill="white"/>
</svg>
