<svg width="35" height="35" viewBox="0 0 35 35" fill="none" xmlns="http://www.w3.org/2000/svg">
<path d="M15.275 16.0371C15.3795 15.8879 15.4663 15.764 15.5435 15.658C15.6088 15.7717 15.6818 15.9042 15.7695 16.0638L17.7648 19.6917C17.9586 20.0441 18.1486 20.3897 18.3393 20.6406C18.5434 20.9089 18.9024 21.2767 19.4776 21.2875C20.0528 21.2984 20.4253 20.9443 20.6394 20.6838C20.8394 20.4403 21.0423 20.102 21.2491 19.7571L21.3137 19.6494C21.5713 19.2201 21.7335 18.9516 21.8771 18.7577C22.0093 18.5791 22.0857 18.5208 22.1427 18.4885C22.1997 18.4562 22.289 18.4207 22.5103 18.3992C22.7504 18.3759 23.064 18.3749 23.5647 18.3749H24.4997C24.9829 18.3749 25.3747 17.9832 25.3747 17.4999C25.3747 17.0167 24.9829 16.6249 24.4997 16.6249L23.527 16.6249C23.0753 16.6249 22.6758 16.6249 22.341 16.6574C21.978 16.6927 21.6247 16.7708 21.2805 16.9656C20.9363 17.1605 20.6876 17.4233 20.4706 17.7164C20.2704 17.9868 20.0649 18.3293 19.8325 18.7167L19.7771 18.8091C19.6759 18.9777 19.5916 19.1182 19.5161 19.2388C19.4452 19.1155 19.3662 18.9719 19.2714 18.7996L17.2771 15.1734C17.0973 14.8463 16.9181 14.5204 16.7364 14.2815C16.5379 14.0205 16.1976 13.6754 15.6521 13.6459C15.1067 13.6165 14.7311 13.9229 14.5057 14.1611C14.2993 14.379 14.0861 14.6837 13.8721 14.9896L13.5112 15.5053C13.2462 15.8838 13.08 16.1197 12.9362 16.2899C12.8038 16.4465 12.7303 16.4977 12.6759 16.526C12.6216 16.5543 12.5374 16.5852 12.3332 16.6038C12.1114 16.6241 11.8228 16.6249 11.3607 16.6249H10.4997C10.0164 16.6249 9.62467 17.0167 9.62467 17.4999C9.62467 17.9832 10.0164 18.3749 10.4997 18.3749L11.3958 18.3749C11.8123 18.3749 12.1815 18.375 12.4924 18.3466C12.8296 18.3158 13.1586 18.2477 13.4841 18.0782C13.8097 17.9087 14.0541 17.6783 14.2727 17.4196C14.4742 17.1812 14.6859 16.8788 14.9247 16.5376L15.275 16.0371Z" fill="white"/>
<path fill-rule="evenodd" clip-rule="evenodd" d="M30.0413 14.3036C30.0413 10.5923 28.3005 7.70724 25.6378 6.59952C23.1535 5.56601 20.153 6.19423 17.4997 8.67598C14.8463 6.19423 11.8458 5.56607 9.36156 6.59961C6.69888 7.70736 4.95801 10.5924 4.95801 14.3036C4.95801 16.7837 6.27548 19.2257 7.91691 21.3294C9.57493 23.4543 11.6609 25.3572 13.4021 26.7771L13.5592 26.9054C14.9591 28.0486 15.9708 28.8748 17.4997 28.8748C19.0286 28.8748 20.0403 28.0486 21.4401 26.9054L21.5973 26.7771C23.3385 25.3573 25.4244 23.4544 27.0825 21.3294C28.7239 19.2257 30.0413 16.7837 30.0413 14.3036ZM18.1403 10.5111C20.588 7.88037 23.1312 7.45215 24.9656 8.21528C26.8238 8.98831 28.2913 11.1186 28.2913 14.3036C28.2913 16.1956 27.2641 18.2517 25.7027 20.2529C24.1579 22.2328 22.1829 24.0415 20.4914 25.4209C18.8662 26.7461 18.3415 27.1248 17.4997 27.1248C16.6579 27.1248 16.1332 26.7461 14.508 25.4208C12.8165 24.0415 10.8414 22.2327 9.29661 20.2528C7.7352 18.2517 6.70801 16.1956 6.70801 14.3036C6.70801 11.1188 8.17556 8.98842 10.0338 8.21536C11.8681 7.4522 14.4113 7.88038 16.8591 10.5111C17.0246 10.689 17.2567 10.79 17.4997 10.79C17.7427 10.79 17.9747 10.689 18.1403 10.5111Z" fill="white"/>
</svg>
