<svg width="35" height="35" viewBox="0 0 35 35" fill="none" xmlns="http://www.w3.org/2000/svg">
<path fill-rule="evenodd" clip-rule="evenodd" d="M17.4997 4.95801C14.4391 4.95801 11.958 7.4391 11.958 10.4997C11.958 13.5603 14.4391 16.0413 17.4997 16.0413C20.5603 16.0413 23.0413 13.5603 23.0413 10.4997C23.0413 7.4391 20.5603 4.95801 17.4997 4.95801ZM13.708 10.4997C13.708 8.40559 15.4056 6.70801 17.4997 6.70801C19.5938 6.70801 21.2913 8.40559 21.2913 10.4997C21.2913 12.5938 19.5938 14.2913 17.4997 14.2913C15.4056 14.2913 13.708 12.5938 13.708 10.4997Z" fill="white"/>
<path fill-rule="evenodd" clip-rule="evenodd" d="M17.4997 17.7913C15.1205 17.7913 12.9234 18.3406 11.2908 19.2735C9.683 20.1922 8.45801 21.5948 8.45801 23.333C8.45801 25.0712 9.683 26.4738 11.2908 27.3926C12.9234 28.3255 15.1205 28.8747 17.4997 28.8747C19.8789 28.8747 22.0759 28.3255 23.7085 27.3926C25.3163 26.4738 26.5413 25.0712 26.5413 23.333C26.5413 21.5948 25.3163 20.1922 23.7085 19.2735C22.0759 18.3406 19.8789 17.7913 17.4997 17.7913ZM10.208 23.333C10.208 22.4939 10.8112 21.5631 12.1591 20.7929C13.4822 20.0368 15.3686 19.5413 17.4997 19.5413C19.6308 19.5413 21.5171 20.0368 22.8403 20.7929C24.1882 21.5631 24.7913 22.4939 24.7913 23.333C24.7913 24.1722 24.1882 25.1029 22.8403 25.8731C21.5171 26.6292 19.6308 27.1247 17.4997 27.1247C15.3686 27.1247 13.4822 26.6292 12.1591 25.8731C10.8112 25.1029 10.208 24.1722 10.208 23.333Z" fill="white"/>
</svg>
