<svg width="34" height="34" viewBox="0 0 34 34" fill="none" xmlns="http://www.w3.org/2000/svg">
<path fill-rule="evenodd" clip-rule="evenodd" d="M16.9984 6.97754C11.464 6.97754 6.97754 11.464 6.97754 16.9984C6.97754 18.6029 7.35402 20.1171 8.02273 21.4596C8.29113 21.9985 8.39448 22.6428 8.22514 23.2757L7.5799 25.6873C7.46139 26.1302 7.86659 26.5354 8.30949 26.4168L10.721 25.7716C11.3539 25.6023 11.9983 25.7056 12.5371 25.974C13.8797 26.6427 15.3939 27.0192 16.9984 27.0192C22.5327 27.0192 27.0192 22.5327 27.0192 16.9984C27.0192 11.464 22.5327 6.97754 16.9984 6.97754ZM5.35254 16.9984C5.35254 10.5666 10.5666 5.35254 16.9984 5.35254C23.4302 5.35254 28.6442 10.5666 28.6442 16.9984C28.6442 23.4302 23.4302 28.6442 16.9984 28.6442C15.1369 28.6442 13.3752 28.2069 11.8126 27.4286C11.5794 27.3124 11.3414 27.2878 11.1411 27.3414L8.72951 27.9866C7.07869 28.4283 5.56842 26.9181 6.01012 25.2672L6.65536 22.8557C6.70895 22.6554 6.68432 22.4173 6.56818 22.1841C5.78989 20.6216 5.35254 18.8599 5.35254 16.9984ZM20.5431 12.4724C21.881 12.9726 22.6859 14.3323 22.6859 16.0325C22.6859 17.0245 22.215 17.9539 21.6514 18.7258C21.0782 19.5109 20.341 20.2252 19.6606 20.8041C19.6267 20.8329 19.5931 20.8616 19.5598 20.89C18.7614 21.5708 18.0978 22.1367 16.9984 22.1367C15.899 22.1367 15.2353 21.5708 14.437 20.89C14.4036 20.8616 14.37 20.8329 14.3362 20.8041C13.6557 20.2252 12.9186 19.5108 12.3454 18.7258C11.7817 17.9539 11.3109 17.0245 11.3109 16.0325C11.3109 14.3323 12.1158 12.9726 13.4537 12.4724C14.5835 12.0499 15.869 12.3242 16.9984 13.2019C18.1277 12.3242 19.4133 12.0499 20.5431 12.4724ZM19.9739 13.9944C19.4136 13.7849 18.5204 13.8967 17.5789 14.8583C17.4261 15.0144 17.2168 15.1023 16.9984 15.1023C16.7799 15.1023 16.5707 15.0144 16.4178 14.8583C15.4764 13.8967 14.5831 13.7849 14.0228 13.9944C13.4716 14.2005 12.9359 14.8324 12.9359 16.0325C12.9359 16.523 13.1794 17.1124 13.6577 17.7676C14.1266 18.4096 14.759 19.0304 15.3891 19.5664C16.3297 20.3666 16.5499 20.5117 16.9984 20.5117C17.4469 20.5117 17.6671 20.3666 18.6076 19.5664C19.2377 19.0304 19.8702 18.4096 20.339 17.7676C20.8174 17.1124 21.0609 16.523 21.0609 16.0325C21.0609 14.8324 20.5251 14.2005 19.9739 13.9944Z" fill="white"/>
</svg>
