<svg width="16" height="16" viewBox="0 0 16 16" fill="none" xmlns="http://www.w3.org/2000/svg">
<path d="M8.00091 2.2666H7.97031C6.73917 2.26659 5.77435 2.26659 5.02155 2.3678C4.25103 2.47139 3.64302 2.68758 3.16578 3.16481C2.68855 3.64204 2.47237 4.25005 2.36878 5.02058C2.26757 5.77337 2.26757 6.73819 2.26758 7.96933V8.03054C2.26757 9.26168 2.26757 10.2265 2.36878 10.9793C2.47237 11.7498 2.68855 12.3578 3.16578 12.8351C3.64302 13.3123 4.25103 13.5285 5.02155 13.6321C5.77435 13.7333 6.73917 13.7333 7.97031 13.7333H8.03151C9.26265 13.7333 10.2275 13.7333 10.9803 13.6321C11.7508 13.5285 12.3588 13.3123 12.836 12.8351C13.3133 12.3578 13.5295 11.7498 13.633 10.9793C13.7343 10.2265 13.7343 9.26168 13.7342 8.03053V7.99994C13.7342 7.77902 13.5552 7.59994 13.3342 7.59994C13.1133 7.59994 12.9342 7.77902 12.9342 7.99994C12.9342 9.26832 12.9334 10.1794 12.8402 10.8727C12.7485 11.5545 12.5742 11.9656 12.2704 12.2694C11.9665 12.5732 11.5555 12.7475 10.8737 12.8392C10.1803 12.9324 9.2693 12.9333 8.00091 12.9333C6.73253 12.9333 5.82147 12.9324 5.12815 12.8392C4.44634 12.7475 4.03529 12.5732 3.73147 12.2694C3.42765 11.9656 3.25331 11.5545 3.16164 10.8727C3.06843 10.1794 3.06758 9.26832 3.06758 7.99994C3.06758 6.73155 3.06843 5.8205 3.16164 5.12718C3.25331 4.44536 3.42765 4.03431 3.73147 3.73049C4.03529 3.42668 4.44634 3.25233 5.12815 3.16067C5.82147 3.06745 6.73253 3.0666 8.00091 3.0666C8.22183 3.0666 8.40091 2.88752 8.40091 2.6666C8.40091 2.44569 8.22183 2.2666 8.00091 2.2666Z" fill="#165CE7"/>
<path d="M8.2514 7.18376C8.09519 7.33997 8.09519 7.59324 8.2514 7.74944C8.40761 7.90565 8.66088 7.90565 8.81709 7.74944L12.9342 3.63229V5.5166C12.9342 5.73752 13.1133 5.9166 13.3342 5.9166C13.5552 5.9166 13.7342 5.73752 13.7342 5.5166V2.6666C13.7342 2.44569 13.5552 2.2666 13.3342 2.2666H10.4842C10.2633 2.2666 10.0842 2.44569 10.0842 2.6666C10.0842 2.88752 10.2633 3.0666 10.4842 3.0666H12.3686L8.2514 7.18376Z" fill="#165CE7"/>
</svg>
