<svg width="35" height="35" viewBox="0 0 35 35" fill="none" xmlns="http://www.w3.org/2000/svg">
<path fill-rule="evenodd" clip-rule="evenodd" d="M17.5 6.70825C13.1508 6.70825 9.625 10.234 9.625 14.5833C9.625 16.9149 10.6372 19.0089 12.2489 20.4521L12.254 20.4566C12.9034 21.0381 13.3968 21.4799 13.7495 21.8033C14.0815 22.1077 14.3446 22.3565 14.4824 22.5266L14.4974 22.5451C14.7556 22.8636 14.9805 23.1411 15.1289 23.4731C15.2772 23.805 15.3339 24.1578 15.399 24.5626L15.4028 24.5861C15.4362 24.7935 15.4495 25.0484 15.4549 25.3749H19.5451C19.5505 25.0484 19.5638 24.7935 19.5972 24.5861L19.601 24.5626C19.6661 24.1578 19.7228 23.805 19.8711 23.4731C20.0195 23.1411 20.2444 22.8636 20.5026 22.5451L20.5176 22.5266C20.6554 22.3565 20.9185 22.1077 21.2505 21.8033C21.6032 21.4799 22.0966 21.0381 22.7461 20.4566L22.7511 20.4521C24.3628 19.0089 25.375 16.9149 25.375 14.5833C25.375 10.234 21.8492 6.70825 17.5 6.70825ZM19.5342 27.1249H15.4658C15.4697 27.2465 15.4754 27.3528 15.4841 27.4484C15.5079 27.7111 15.548 27.8064 15.5756 27.8541C15.6524 27.9871 15.7628 28.0976 15.8958 28.1744C15.9435 28.2019 16.0389 28.242 16.3015 28.2659C16.5762 28.2907 16.9387 28.2916 17.5 28.2916C18.0613 28.2916 18.4238 28.2907 18.6985 28.2659C18.9611 28.242 19.0565 28.2019 19.1042 28.1744C19.2372 28.0976 19.3476 27.9871 19.4244 27.8541C19.452 27.8064 19.4921 27.7111 19.5159 27.4484C19.5246 27.3528 19.5303 27.2465 19.5342 27.1249ZM7.875 14.5833C7.875 9.26751 12.1843 4.95825 17.5 4.95825C22.8157 4.95825 27.125 9.26751 27.125 14.5833C27.125 17.4332 25.8853 19.9947 23.9185 21.7558C23.2629 22.3428 22.7773 22.7777 22.4331 23.0932C22.261 23.251 22.1295 23.3742 22.0324 23.4688C21.984 23.5159 21.9469 23.5533 21.9193 23.5822C21.9057 23.5965 21.8954 23.6076 21.888 23.616C21.8803 23.6245 21.8772 23.6283 21.8772 23.6283C21.5737 24.0029 21.508 24.0995 21.4689 24.1871C21.4297 24.2746 21.4016 24.388 21.325 24.864C21.2948 25.0519 21.2917 25.3738 21.2917 26.2499V26.2875C21.2917 26.8006 21.2917 27.2432 21.2588 27.6063C21.224 27.9904 21.1469 28.3707 20.94 28.7291C20.7096 29.1281 20.3782 29.4595 19.9792 29.6899C19.6208 29.8968 19.2405 29.9739 18.8564 30.0087C18.4933 30.0416 18.0507 30.0416 17.5376 30.0416H17.4624C16.9493 30.0416 16.5067 30.0416 16.1436 30.0087C15.7595 29.9739 15.3792 29.8968 15.0208 29.6899C14.6218 29.4595 14.2904 29.1281 14.06 28.7291C13.8531 28.3707 13.776 27.9904 13.7412 27.6063C13.7083 27.2432 13.7083 26.8006 13.7083 26.2875L13.7083 26.2499C13.7083 25.3738 13.7052 25.0519 13.675 24.864C13.5984 24.388 13.5703 24.2746 13.5311 24.1871C13.492 24.0995 13.4263 24.0029 13.1228 23.6283C13.1228 23.6283 13.1193 23.6241 13.112 23.616C13.1046 23.6076 13.0943 23.5965 13.0807 23.5822C13.0531 23.5533 13.016 23.516 12.9676 23.4688C12.8705 23.3742 12.739 23.251 12.5669 23.0932C12.2227 22.7777 11.7371 22.3428 11.0815 21.7558C9.11473 19.9947 7.875 17.4332 7.875 14.5833Z" fill="white"/>
<path fill-rule="evenodd" clip-rule="evenodd" d="M18.9251 12.7046C19.3183 12.9855 19.4094 13.5319 19.1285 13.9252L17.6168 16.0416H19.4165C19.7443 16.0416 20.0446 16.2248 20.1945 16.5162C20.3445 16.8076 20.319 17.1585 20.1285 17.4252L17.6285 20.9252C17.3476 21.3184 16.8012 21.4095 16.4079 21.1286C16.0147 20.8477 15.9236 20.3012 16.2045 19.908L17.7162 17.7916H15.9165C15.5887 17.7916 15.2885 17.6084 15.1385 17.317C14.9885 17.0255 15.014 16.6747 15.2045 16.408L17.7045 12.908C17.9854 12.5148 18.5319 12.4237 18.9251 12.7046Z" fill="white"/>
</svg>
