<svg width="28" height="38" viewBox="0 0 28 38" fill="none" xmlns="http://www.w3.org/2000/svg">
<path d="M1 4.58424H20.7241M1 4.58424L4.58648 8.16848M1 4.58424L4.58621 1M20.7241 4.58424L17.1379 1M20.7241 4.58424L17.1379 8.16848M11.7586 35.9463C7.5217 34.3627 3.98776 28.9437 2.21904 25.7696C1.45536 24.3992 1.85764 22.7157 3.08323 21.7358C4.4493 20.6436 6.41858 20.7526 7.65564 21.9889L9.06897 23.4015V13.0968C9.06897 11.8596 10.0725 10.8567 11.3103 10.8567C12.5482 10.8567 13.5517 11.8596 13.5517 13.0968V18.4732C13.5517 17.236 14.5552 16.233 15.7931 16.233C17.031 16.233 18.0345 17.236 18.0345 18.4732V20.2653C18.0345 19.0281 19.038 18.0251 20.2759 18.0251C21.5137 18.0251 22.5172 19.0281 22.5172 20.2653V22.0574C22.5172 20.8202 23.5208 19.8172 24.7586 19.8172C25.9965 19.8172 27 20.8202 27 22.0574V29.1076C27 30.0666 26.7628 31.0144 26.2097 31.7982C25.292 33.0986 23.6424 35.0804 21.6207 35.9463C18.4828 37.2904 15.6766 37.4108 11.7586 35.9463Z" stroke="white" stroke-width="2" stroke-linecap="round" stroke-linejoin="round"/>
</svg>
