<svg width="35" height="35" viewBox="0 0 35 35" fill="none" xmlns="http://www.w3.org/2000/svg">
<path fill-rule="evenodd" clip-rule="evenodd" d="M21.6795 5.15645C23.2102 5.67158 24.2078 7.11186 24.2078 9.00014C24.2078 10.1873 23.5329 11.2799 22.7809 12.1517C22.0078 13.0478 21.0294 13.852 20.1735 14.4759C20.1368 14.5026 20.1005 14.5292 20.0644 14.5556C19.2337 15.1625 18.5484 15.6632 17.4994 15.6632C16.4504 15.6632 15.7652 15.1625 14.9345 14.5556C14.8984 14.5292 14.862 14.5026 14.8253 14.4759C13.9695 13.852 12.9911 13.0478 12.218 12.1517C11.4659 11.2799 10.7911 10.1873 10.7911 9.00016C10.7911 7.11187 11.7886 5.67159 13.3193 5.15645C14.6249 4.71708 16.1447 5.00709 17.4994 5.99327C18.8542 5.00709 20.3739 4.71708 21.6795 5.15645ZM21.1213 6.81505C20.3606 6.55905 19.2262 6.72467 18.0916 7.76765C17.7568 8.07538 17.2421 8.07538 16.9073 7.76765C15.7726 6.72467 14.6382 6.55905 13.8775 6.81505C13.1478 7.06063 12.5411 7.76508 12.5411 9.00016C12.5411 9.54565 12.873 10.2319 13.5431 11.0086C14.1921 11.7609 15.051 12.4747 15.8562 13.0617C16.8399 13.7788 17.0736 13.9132 17.4994 13.9132C17.9252 13.9132 18.159 13.7788 19.1426 13.0618C19.9479 12.4748 20.8068 11.7609 21.4558 11.0086C22.1258 10.2319 22.4578 9.54566 22.4578 9.00014C22.4578 7.76507 21.8511 7.06062 21.1213 6.81505ZM13.6307 20.3558C15.8074 19.9341 18.1377 20.0287 20.0232 21.1533C20.2881 21.3113 20.5363 21.5081 20.7529 21.7514C21.1914 22.244 21.4179 22.8561 21.4286 23.4699C21.6517 23.326 21.8753 23.1661 22.1023 22.9946L24.2107 21.4019C25.2661 20.6047 26.7998 20.6045 27.8553 21.4015C28.8306 22.1379 29.2194 23.4595 28.5212 24.5786C28.025 25.374 27.2777 26.4741 26.5172 27.1785C25.7485 27.8905 24.6544 28.4891 23.8268 28.8886C22.8218 29.3737 21.7363 29.6419 20.6807 29.8127C18.5233 30.162 16.2784 30.1085 14.1452 29.669C13.0551 29.4445 11.9222 29.3277 10.8027 29.3277H8.16609C7.68284 29.3277 7.29109 28.936 7.29109 28.4527C7.29109 27.9695 7.68284 27.5777 8.16609 27.5777H10.8027C12.0418 27.5777 13.293 27.7067 14.4984 27.955C16.4257 28.3521 18.4562 28.4 20.401 28.0852C21.3681 27.9287 22.2712 27.6962 23.0661 27.3125C23.8635 26.9277 24.7599 26.4208 25.3281 25.8945C25.9027 25.3624 26.5458 24.4388 27.0365 23.6523C27.1845 23.415 27.1641 23.0724 26.8008 22.7981C26.3694 22.4724 25.6968 22.4725 25.2656 22.7983L23.1572 24.391C22.3155 25.0268 21.2795 25.707 19.9946 25.9119C19.8649 25.9326 19.7299 25.9515 19.5898 25.9682C19.5229 25.9803 19.4534 25.9882 19.3815 25.9909C18.7255 26.0561 17.9658 26.0713 17.1276 25.9921C16.6464 25.9467 16.2933 25.5199 16.3387 25.0387C16.3841 24.5576 16.811 24.2045 17.2921 24.2499C18.0241 24.319 18.6808 24.3037 19.238 24.2465C19.2493 24.2454 19.2606 24.2442 19.2718 24.243C19.2951 24.2295 19.3306 24.2048 19.3773 24.1641C19.75 23.8388 19.7833 23.2941 19.4459 22.9151C19.3603 22.819 19.255 22.7328 19.1268 22.6563C17.7488 21.8344 15.9084 21.6971 13.9635 22.0738C12.0297 22.4485 10.1085 23.3115 8.67225 24.3301C8.27806 24.6096 7.73189 24.5167 7.45235 24.1225C7.1728 23.7283 7.26573 23.1821 7.65992 22.9026C9.29135 21.7456 11.4428 20.7797 13.6307 20.3558Z" fill="white"/>
</svg>
