<svg width="23" height="22" viewBox="0 0 23 22" fill="none" xmlns="http://www.w3.org/2000/svg">
<path d="M12.6016 3.66699C12.6016 3.66699 14.3128 3.82256 16.4907 6.00044C18.6685 8.17833 18.8241 9.88953 18.8241 9.88953" stroke="white" stroke-width="1.5" stroke-linecap="round"/>
<path d="M13.1172 6.25977C13.1172 6.25977 13.8432 6.46718 14.9321 7.55613C16.021 8.64507 16.2285 9.37104 16.2285 9.37104" stroke="white" stroke-width="1.5" stroke-linecap="round"/>
<path d="M13.7723 13.2203L13.2285 12.7038L13.2285 12.7038L13.7723 13.2203ZM14.1063 12.8687L14.6501 13.3852H14.6501L14.1063 12.8687ZM15.8785 12.6228L15.5044 13.2728H15.5044L15.8785 12.6228ZM17.2795 13.4292L16.9054 14.0792L17.2795 13.4292ZM17.6743 15.9566L18.2181 16.4731L17.6743 15.9566ZM16.6326 17.0533L16.0888 16.5368L16.6326 17.0533ZM15.661 17.5733L15.7347 18.3197L15.661 17.5733ZM8.4297 14.2822L8.97349 13.7657L8.4297 14.2822ZM4.90056 7.30874L4.15163 7.34894L4.15163 7.34894L4.90056 7.30874ZM9.64862 8.43601L10.1924 8.95252V8.95252L9.64862 8.43601ZM9.76355 6.37533L10.3759 5.94235V5.94235L9.76355 6.37533ZM8.83882 5.06744L8.22643 5.50042L8.22643 5.50042L8.83882 5.06744ZM6.55683 4.84673L7.10063 5.36324L7.10063 5.36324L6.55683 4.84673ZM5.40579 6.05856L4.862 5.54204L4.862 5.54204L5.40579 6.05856ZM10.8114 11.7747L11.3552 11.2582L10.8114 11.7747ZM14.3161 13.7369L14.6501 13.3852L13.5625 12.3522L13.2285 12.7038L14.3161 13.7369ZM15.5044 13.2728L16.9054 14.0792L17.6537 12.7792L16.2526 11.9727L15.5044 13.2728ZM17.1305 15.4401L16.0888 16.5368L17.1764 17.5698L18.2181 16.4731L17.1305 15.4401ZM15.5874 16.827C14.5869 16.9257 11.9052 16.8522 8.97349 13.7657L7.88591 14.7987C11.1828 18.2697 14.3454 18.4568 15.7347 18.3197L15.5874 16.827ZM8.97349 13.7657C6.16528 10.8091 5.70648 8.33049 5.64948 7.26855L4.15163 7.34894C4.22685 8.75029 4.82065 11.5716 7.88591 14.7987L8.97349 13.7657ZM9.98208 9.17396L10.1924 8.95252L9.10482 7.91949L8.89449 8.14093L9.98208 9.17396ZM10.3759 5.94235L9.45122 4.63446L8.22643 5.50042L9.15115 6.80831L10.3759 5.94235ZM6.01304 4.33021L4.862 5.54204L5.94959 6.57507L7.10063 5.36324L6.01304 4.33021ZM9.43829 8.65744C8.89449 8.14093 8.8938 8.14166 8.89311 8.14239C8.89287 8.14264 8.89217 8.14338 8.8917 8.14388C8.89076 8.14488 8.88981 8.1459 8.88884 8.14694C8.88691 8.14903 8.88492 8.15118 8.88289 8.15341C8.87883 8.15788 8.87458 8.16265 8.87017 8.16772C8.86133 8.17788 8.85182 8.18928 8.84179 8.20195C8.82173 8.2273 8.79958 8.25777 8.77667 8.29357C8.73071 8.3654 8.68217 8.45795 8.6415 8.57225C8.55855 8.80536 8.51677 9.10504 8.57014 9.46927C8.67452 10.1817 9.13425 11.098 10.2676 12.2912L11.3552 11.2582C10.3215 10.17 10.0947 9.52766 10.0543 9.25181C10.0445 9.1849 10.0455 9.13945 10.048 9.11284C10.0493 9.09932 10.0511 9.08977 10.0524 9.08385C10.053 9.08085 10.0536 9.07867 10.054 9.07726C10.0544 9.07584 10.0547 9.07515 10.0547 9.07513C10.0547 9.07511 10.0545 9.07572 10.054 9.07694C10.0535 9.07815 10.0527 9.07993 10.0515 9.08225C10.0492 9.0869 10.0456 9.09355 10.0401 9.10206C10.0347 9.11055 10.0275 9.12083 10.018 9.13282C10.0133 9.13882 10.0079 9.14525 10.002 9.1521C9.999 9.15553 9.99586 9.15906 9.99255 9.16271C9.99089 9.16453 9.98919 9.16638 9.98745 9.16825C9.98657 9.16919 9.98569 9.17013 9.9848 9.17109C9.98435 9.17156 9.98367 9.17228 9.98345 9.17252C9.98277 9.17324 9.98208 9.17396 9.43829 8.65744ZM10.2676 12.2912C11.3965 13.4797 12.2774 13.9786 12.9842 14.0934C13.3492 14.1526 13.6529 14.1063 13.8896 14.013C14.0048 13.9675 14.0972 13.9137 14.1678 13.8635C14.2031 13.8385 14.2329 13.8145 14.2574 13.793C14.2697 13.7822 14.2807 13.772 14.2905 13.7626C14.2954 13.7579 14.2999 13.7534 14.3042 13.7491C14.3063 13.747 14.3084 13.7449 14.3104 13.7428C14.3114 13.7418 14.3123 13.7408 14.3133 13.7398C14.3138 13.7393 14.3145 13.7386 14.3147 13.7383C14.3154 13.7376 14.3161 13.7369 13.7723 13.2203C13.2285 12.7038 13.2292 12.7031 13.2299 12.7024C13.2301 12.7021 13.2308 12.7014 13.2312 12.701C13.2321 12.7 13.233 12.6991 13.2339 12.6982C13.2357 12.6963 13.2375 12.6945 13.2392 12.6928C13.2427 12.6893 13.2461 12.6859 13.2494 12.6827C13.256 12.6763 13.2623 12.6706 13.2683 12.6654C13.2801 12.6549 13.2908 12.6466 13.3001 12.64C13.3189 12.6267 13.3323 12.6203 13.3392 12.6176C13.3593 12.6097 13.3291 12.6297 13.2247 12.6128C12.9928 12.5751 12.3933 12.3512 11.3552 11.2582L10.2676 12.2912ZM9.45122 4.63446C8.64109 3.48864 7.00602 3.28479 6.01304 4.33021L7.10063 5.36324C7.39026 5.05832 7.91754 5.06354 8.22643 5.50042L9.45122 4.63446ZM5.64948 7.26855C5.63744 7.04431 5.73383 6.80223 5.94959 6.57507L4.862 5.54204C4.44178 5.98445 4.11199 6.61033 4.15163 7.34894L5.64948 7.26855ZM16.0888 16.5368C15.9061 16.7292 15.7337 16.8125 15.5874 16.827L15.7347 18.3197C16.3443 18.2595 16.8293 17.9352 17.1764 17.5698L16.0888 16.5368ZM10.1924 8.95252C10.9716 8.13221 11.0223 6.85652 10.3759 5.94235L9.15115 6.80831C9.40892 7.17288 9.36194 7.64879 9.10482 7.91949L10.1924 8.95252ZM16.9054 14.0792C17.3991 14.3634 17.4876 15.0641 17.1305 15.4401L18.2181 16.4731C19.2674 15.3684 18.9594 13.5307 17.6537 12.7792L16.9054 14.0792ZM14.6501 13.3852C14.8676 13.1562 15.2065 13.1013 15.5044 13.2728L16.2526 11.9727C15.369 11.4641 14.2684 11.609 13.5625 12.3522L14.6501 13.3852Z" fill="white"/>
</svg>
