<svg width="35" height="35" viewBox="0 0 35 35" fill="none" xmlns="http://www.w3.org/2000/svg">
<path d="M14.818 20.1406C14.9877 19.6881 14.7584 19.1837 14.3059 19.014C13.8535 18.8444 13.3491 19.0736 13.1794 19.5261L11.4294 24.1928C11.2597 24.6452 11.489 25.1496 11.9415 25.3193C12.3939 25.489 12.8983 25.2597 13.068 24.8072L14.818 20.1406Z" fill="white"/>
<path d="M11.1174 20.4521C11.4591 20.1103 11.4591 19.5563 11.1174 19.2146C10.7757 18.8729 10.2217 18.8729 9.87998 19.2146L8.71331 20.3813C8.37161 20.723 8.37161 21.277 8.71331 21.6187L9.87998 22.7854C10.2217 23.1271 10.7757 23.1271 11.1174 22.7854C11.4591 22.4437 11.4591 21.8897 11.1174 21.5479L10.5695 21L11.1174 20.4521Z" fill="white"/>
<path d="M16.3674 21.5479C16.0257 21.2062 15.4717 21.2062 15.13 21.5479C14.7883 21.8897 14.7883 22.4437 15.13 22.7854L15.6779 23.3333L15.13 23.8813C14.7883 24.223 14.7883 24.777 15.13 25.1187C15.4717 25.4604 16.0257 25.4604 16.3674 25.1187L17.5341 23.9521C17.8758 23.6103 17.8758 23.0563 17.5341 22.7146L16.3674 21.5479Z" fill="white"/>
<path fill-rule="evenodd" clip-rule="evenodd" d="M15.0995 6.125H19.8979C20.2645 6.125 20.6181 6.12499 20.959 6.12588C20.9722 6.1253 20.9854 6.125 20.9987 6.125C21.0137 6.125 21.0286 6.12538 21.0435 6.12613C22.6581 6.1311 23.9862 6.15805 25.0692 6.30366C26.437 6.48756 27.5442 6.87503 28.4172 7.74812C29.2903 8.62121 29.6778 9.72832 29.8617 11.0961C30.0404 12.4252 30.0404 14.1234 30.0404 16.2675V18.7325C30.0404 20.8765 30.0404 22.5748 29.8617 23.9039C29.6778 25.2717 29.2903 26.3788 28.4172 27.2519C27.5442 28.125 26.4371 28.5124 25.0692 28.6963C23.9862 28.8419 22.6581 28.8689 21.0435 28.8739C21.0286 28.8746 21.0137 28.875 20.9987 28.875C20.9854 28.875 20.9722 28.8747 20.959 28.8741C20.6198 28.875 20.268 28.875 19.9033 28.875H15.0996C12.9555 28.875 11.2572 28.875 9.92817 28.6963C8.56035 28.5124 7.45324 28.125 6.58015 27.2519C5.70706 26.3788 5.31959 25.2717 5.13569 23.9039C4.957 22.5748 4.95701 20.8765 4.95703 18.7325V16.2675C4.95701 14.1235 4.957 12.4252 5.13569 11.0961C5.31959 9.72832 5.70706 8.62121 6.58015 7.74812C7.45324 6.87503 8.56035 6.48756 9.92817 6.30366C11.2573 6.12497 12.9555 6.12498 15.0995 6.125ZM20.1237 7.87503L20.1237 27.125L15.1654 27.125C12.9407 27.125 11.3603 27.1231 10.1614 26.9619C8.98759 26.8041 8.31133 26.5082 7.81759 26.0144C7.32384 25.5207 7.02789 24.8444 6.87008 23.6707C6.70889 22.4717 6.70703 20.8913 6.70703 18.6667V16.3333C6.70703 14.1087 6.70889 12.5283 6.87008 11.3293C7.02789 10.1556 7.32384 9.4793 7.81759 8.98555C8.31133 8.49181 8.98759 8.19586 10.1614 8.03805C11.3603 7.87686 12.9407 7.875 15.1654 7.875L20.1237 7.87503ZM24.836 26.9619C24.0416 27.0688 23.0796 27.1056 21.8737 27.1183L21.8737 7.88168C23.0796 7.89439 24.0416 7.93124 24.836 8.03805C26.0098 8.19586 26.6861 8.49181 27.1798 8.98555C27.6736 9.4793 27.9695 10.1556 28.1273 11.3293C28.2885 12.5283 28.2904 14.1087 28.2904 16.3333V18.6667C28.2904 20.8913 28.2885 22.4717 28.1273 23.6707C27.9695 24.8444 27.6736 25.5207 27.1798 26.0144C26.6861 26.5082 26.0098 26.8041 24.836 26.9619Z" fill="white"/>
</svg>
