<svg width="28" height="28" viewBox="0 0 28 28" fill="none" xmlns="http://www.w3.org/2000/svg">
<path fill-rule="evenodd" clip-rule="evenodd" d="M13.0156 3.9668H14.9847C16.2611 3.96678 17.2899 3.96676 18.0991 4.07555C18.9392 4.1885 19.6465 4.43014 20.2083 4.99192C20.4869 5.27049 20.6868 5.58486 20.8312 5.93345C21.7011 6.04242 22.4315 6.28178 23.0083 6.85864C23.5701 7.42043 23.8118 8.12778 23.9247 8.96788C24.0335 9.77705 24.0335 10.8059 24.0335 12.0823V15.9181C24.0335 17.1945 24.0335 18.2233 23.9247 19.0325C23.8118 19.8726 23.5701 20.5799 23.0083 21.1417C22.4315 21.7186 21.7011 21.9579 20.8312 22.0669C20.6867 22.4155 20.4869 22.7298 20.2083 23.0083C19.6465 23.5701 18.9392 23.8118 18.0991 23.9247C17.2899 24.0335 16.2611 24.0335 14.9847 24.0335H13.0156C11.7392 24.0335 10.7103 24.0335 9.90116 23.9247C9.06106 23.8118 8.35371 23.5701 7.79192 23.0083C7.51338 22.7298 7.31354 22.4155 7.16907 22.0669C6.29915 21.9579 5.5688 21.7186 4.99192 21.1417C4.43014 20.5799 4.1885 19.8726 4.07555 19.0325C3.96676 18.2233 3.96678 17.1945 3.9668 15.9181V12.0823C3.96678 10.8059 3.96676 9.77705 4.07555 8.96788C4.1885 8.12778 4.43014 7.42043 4.99192 6.85864C5.56879 6.28178 6.29912 6.04242 7.16903 5.93344C7.3135 5.58485 7.51335 5.27049 7.79192 4.99192C8.35371 4.43014 9.06106 4.1885 9.90116 4.07555C10.7103 3.96676 11.7392 3.96678 13.0156 3.9668ZM6.84 7.41124C6.43156 7.50967 6.17693 7.65353 5.98187 7.84859C5.72356 8.1069 5.55515 8.46957 5.46307 9.15443C5.36828 9.85942 5.3668 10.7938 5.3668 12.1335V15.8668C5.3668 17.2066 5.36828 18.1409 5.46307 18.8459C5.55515 19.5308 5.72356 19.8935 5.98187 20.1518C6.17694 20.3468 6.43157 20.4907 6.84001 20.5891C6.76677 19.832 6.76678 18.9034 6.7668 17.7847V10.2156C6.76678 9.09689 6.76677 8.16837 6.84 7.41124ZM21.1602 20.5891C21.5687 20.4907 21.8233 20.3468 22.0184 20.1518C22.2767 19.8935 22.4451 19.5308 22.5372 18.8459C22.632 18.1409 22.6335 17.2066 22.6335 15.8668V12.1335C22.6335 10.7938 22.632 9.85942 22.5372 9.15443C22.4451 8.46957 22.2767 8.1069 22.0184 7.84859C21.8233 7.65353 21.5687 7.50967 21.1603 7.41124C21.2335 8.16837 21.2335 9.09689 21.2335 10.2156V17.7847C21.2335 18.9034 21.2335 19.832 21.1602 20.5891ZM10.0877 5.46307C9.40285 5.55515 9.04018 5.72356 8.78187 5.98187C8.52356 6.24019 8.35514 6.60285 8.26307 7.28771C8.16828 7.9927 8.1668 8.92708 8.1668 10.2668V17.7335C8.1668 19.0732 8.16828 20.0076 8.26307 20.7126C8.35514 21.3974 8.52356 21.7601 8.78187 22.0184C9.04018 22.2767 9.40285 22.4451 10.0877 22.5372C10.7927 22.632 11.7271 22.6335 13.0668 22.6335H14.9335C16.2732 22.6335 17.2076 22.632 17.9125 22.5372C18.5974 22.4451 18.9601 22.2767 19.2184 22.0184C19.4767 21.7601 19.6451 21.3974 19.7372 20.7126C19.832 20.0076 19.8335 19.0732 19.8335 17.7335V10.2668C19.8335 8.92708 19.832 7.9927 19.7372 7.28771C19.6451 6.60285 19.4767 6.24019 19.2184 5.98187C18.9601 5.72356 18.5974 5.55514 17.9125 5.46307C17.2076 5.36828 16.2732 5.3668 14.9335 5.3668H13.0668C11.7271 5.3668 10.7927 5.36828 10.0877 5.46307ZM10.5001 11.2001C10.5001 10.8135 10.8135 10.5001 11.2001 10.5001H16.8001C17.1867 10.5001 17.5001 10.8135 17.5001 11.2001C17.5001 11.5867 17.1867 11.9001 16.8001 11.9001H11.2001C10.8135 11.9001 10.5001 11.5867 10.5001 11.2001ZM10.5001 14.9335C10.5001 14.5469 10.8135 14.2335 11.2001 14.2335H16.8001C17.1867 14.2335 17.5001 14.5469 17.5001 14.9335C17.5001 15.3201 17.1867 15.6335 16.8001 15.6335H11.2001C10.8135 15.6335 10.5001 15.3201 10.5001 14.9335ZM10.5001 18.6668C10.5001 18.2802 10.8135 17.9668 11.2001 17.9668H14.0001C14.3867 17.9668 14.7001 18.2802 14.7001 18.6668C14.7001 19.0534 14.3867 19.3668 14.0001 19.3668H11.2001C10.8135 19.3668 10.5001 19.0534 10.5001 18.6668Z" fill="white"/>
</svg>
