<svg width="20" height="20" viewBox="0 0 20 20" fill="none" xmlns="http://www.w3.org/2000/svg">
<path d="M11.9444 4.54312C12.0964 4.54312 12.2484 4.59912 12.3684 4.71912L17.2244 9.57512C17.4564 9.80712 17.4564 10.1911 17.2244 10.4231L12.3684 15.2791C12.1364 15.5111 11.7524 15.5111 11.5204 15.2791C11.2884 15.0471 11.2884 14.6631 11.5204 14.4311L15.9524 9.99912L11.5204 5.56712C11.2884 5.33512 11.2884 4.95112 11.5204 4.71912C11.6324 4.59912 11.7924 4.54312 11.9444 4.54312Z" fill="white"/>
<path d="M3.19967 9.39961L16.6637 9.39961C16.9917 9.39961 17.2637 9.67161 17.2637 9.99961C17.2637 10.3276 16.9917 10.5996 16.6637 10.5996L3.19967 10.5996C2.87167 10.5996 2.59967 10.3276 2.59967 9.99961C2.59967 9.67161 2.87167 9.39961 3.19967 9.39961Z" fill="white"/>
</svg>
