<svg width="37" height="36" viewBox="0 0 37 36" fill="none" xmlns="http://www.w3.org/2000/svg">
<path fill-rule="evenodd" clip-rule="evenodd" d="M23.7723 6.02507L23.8521 6.04645C25.1713 6.39994 26.2168 6.68006 27.0391 6.97711C27.8802 7.28095 28.5661 7.62853 29.1312 8.15777C29.954 8.92842 30.5298 9.92576 30.7858 11.0237C30.9616 11.7776 30.9197 12.5454 30.7623 13.4258C30.6083 14.2865 30.3282 15.332 29.9747 16.6513L29.3322 19.0492C28.9787 20.3685 28.6986 21.4139 28.4015 22.2362C28.0977 23.0773 27.7501 23.7632 27.2209 24.3283C26.4747 25.1249 25.5161 25.69 24.4594 25.9575C24.1507 26.6652 23.6999 27.306 23.1312 27.8387C22.5661 28.368 21.8802 28.7155 21.0391 29.0194C20.2168 29.3164 19.1714 29.5966 17.8522 29.95L17.7724 29.9714C16.4531 30.3249 15.4077 30.605 14.547 30.759C13.6666 30.9164 12.8988 30.9583 12.1448 30.7825C11.0469 30.5265 10.0496 29.9507 9.27894 29.1279C8.7497 28.5628 8.40212 27.8769 8.09827 27.0358C7.80122 26.2135 7.5211 25.168 7.16762 23.8488L6.52508 21.4508C6.17158 20.1315 5.89144 19.0861 5.73754 18.2254C5.58012 17.3451 5.53818 16.5773 5.71398 15.8233C5.96998 14.7254 6.54579 13.7281 7.36861 12.9574C7.93367 12.4282 8.61957 12.0806 9.4607 11.7767C10.283 11.4797 11.3285 11.1996 12.6477 10.8461L12.6876 10.8354C13.005 10.7504 13.3052 10.67 13.5895 10.5949C14.0594 8.91598 14.473 7.72912 15.2789 6.86861C16.0496 6.04579 17.0469 5.46998 18.1448 5.21398C18.8988 5.03818 19.6666 5.08012 20.547 5.23754C21.4076 5.39144 22.4531 5.67157 23.7723 6.02507ZM13.0456 12.603C11.7342 12.9545 10.7945 13.2088 10.0723 13.4697C9.34095 13.7338 8.91155 13.9785 8.59907 14.2712C8.03609 14.7985 7.64212 15.4808 7.46696 16.232C7.36974 16.649 7.37257 17.1432 7.50944 17.9086C7.64828 18.6851 7.90787 19.6568 8.27443 21.0248L8.8956 23.343C9.26215 24.711 9.52321 25.6824 9.7912 26.4242C10.0554 27.1556 10.3 27.5849 10.5927 27.8974C11.12 28.4604 11.8024 28.8544 12.5536 29.0295C12.9705 29.1268 13.4647 29.1239 14.2301 28.9871C15.0066 28.8482 15.9783 28.5886 17.3463 28.2221C18.7143 27.8555 19.6857 27.5945 20.4275 27.3265C21.1589 27.0623 21.5882 26.8176 21.9007 26.525C22.0658 26.3703 22.2164 26.2024 22.3511 26.0234C22.1363 25.9931 21.9152 25.9544 21.6864 25.9089C20.8803 25.7486 19.9119 25.4891 18.7166 25.1689L18.6477 25.1504C17.3285 24.7969 16.283 24.5168 15.4607 24.2198C14.6196 23.9159 13.9337 23.5683 13.3686 23.0391C12.5458 22.2684 11.97 21.2711 11.714 20.1732C11.5382 19.4192 11.5801 18.6514 11.7375 17.7711C11.8914 16.9104 12.1716 15.8649 12.5251 14.5457L13.0456 12.603ZM20.2301 7.00944C19.4647 6.87257 18.9705 6.86974 18.5536 6.96696C17.8024 7.14212 17.12 7.53609 16.5927 8.09907C16.0694 8.65783 15.7473 9.52104 15.1872 11.5715C15.0962 11.9047 15 12.2639 14.8956 12.6535L14.2744 14.9717C13.9079 16.3397 13.6483 17.3114 13.5094 18.0879C13.3726 18.8533 13.3697 19.3475 13.467 19.7645C13.6421 20.5157 14.0361 21.198 14.5991 21.7253C14.9116 22.018 15.3409 22.2626 16.0723 22.5268C16.8141 22.7948 17.7855 23.0559 19.1535 23.4224C20.384 23.7521 21.2959 23.996 22.0375 24.1435C22.7758 24.2903 23.2768 24.3263 23.6874 24.2757C23.7767 24.2646 23.8626 24.2494 23.9462 24.2299C24.6974 24.0547 25.3798 23.6608 25.9071 23.0978C26.1998 22.7853 26.4444 22.3559 26.7086 21.6246C26.9766 20.8827 27.2376 19.9114 27.6042 18.5434L28.2254 16.2252C28.5919 14.8572 28.8515 13.8854 28.9904 13.109C29.1272 12.3435 29.1301 11.8494 29.0328 11.4324C28.8577 10.6812 28.4637 9.99882 27.9007 9.47153C27.5882 9.17886 27.1589 8.93421 26.4275 8.67003C25.6857 8.40204 24.7143 8.14099 23.3463 7.77443C21.9783 7.40787 21.0066 7.14828 20.2301 7.00944ZM17.3625 15.3667C17.4911 14.8865 17.9846 14.6016 18.4648 14.7303L24.2603 16.2832C24.7404 16.4118 25.0254 16.9053 24.8967 17.3855C24.7681 17.8656 24.2746 18.1505 23.7944 18.0218L17.9989 16.4689C17.5188 16.3403 17.2338 15.8468 17.3625 15.3667ZM16.4303 18.8439C16.5589 18.3638 17.0524 18.0789 17.5325 18.2075L21.0099 19.1393C21.49 19.2679 21.7749 19.7614 21.6463 20.2415C21.5176 20.7217 21.0241 21.0066 20.544 20.8779L17.0667 19.9462C16.5865 19.8175 16.3016 19.324 16.4303 18.8439Z" fill="#09646E"/>
</svg>
