<svg width="28" height="28" viewBox="0 0 28 28" fill="none" xmlns="http://www.w3.org/2000/svg">
<path fill-rule="evenodd" clip-rule="evenodd" d="M11.2001 8.63301C9.7826 8.63301 8.63346 9.78214 8.63346 11.1997C8.63346 12.6172 9.7826 13.7663 11.2001 13.7663C12.6177 13.7663 13.7668 12.6172 13.7668 11.1997C13.7668 9.78214 12.6177 8.63301 11.2001 8.63301ZM10.0335 11.1997C10.0335 10.5553 10.5558 10.033 11.2001 10.033C11.8445 10.033 12.3668 10.5553 12.3668 11.1997C12.3668 11.844 11.8445 12.3663 11.2001 12.3663C10.5558 12.3663 10.0335 11.844 10.0335 11.1997Z" fill="white"/>
<path fill-rule="evenodd" clip-rule="evenodd" d="M11.2001 14.233C10.0841 14.233 9.0391 14.4577 8.24722 14.8536C7.4972 15.2287 6.7668 15.8762 6.7668 16.7997L6.76668 16.858C6.76525 17.3343 6.76284 18.1364 7.52301 18.6866C7.87577 18.942 8.34123 19.1048 8.91784 19.2086C9.49979 19.3133 10.2455 19.3663 11.2001 19.3663C12.1547 19.3663 12.9005 19.3133 13.4824 19.2086C14.059 19.1048 14.5245 18.942 14.8772 18.6866C15.6374 18.1364 15.635 17.3343 15.6336 16.858L15.6335 16.7997C15.6335 15.8762 14.9031 15.2287 14.153 14.8536C13.3612 14.4577 12.3162 14.233 11.2001 14.233ZM8.1668 16.7997C8.1668 16.6922 8.27213 16.4064 8.87332 16.1058C9.43263 15.8262 10.2543 15.633 11.2001 15.633C12.146 15.633 12.9676 15.8262 13.5269 16.1058C14.1281 16.4064 14.2335 16.6922 14.2335 16.7997C14.2335 17.3638 14.1975 17.4504 14.0563 17.5526C13.9424 17.635 13.7079 17.7455 13.2345 17.8307C12.7665 17.9149 12.1122 17.9663 11.2001 17.9663C10.2881 17.9663 9.63381 17.9149 9.16575 17.8307C8.69236 17.7455 8.45783 17.635 8.34392 17.5526C8.20272 17.4504 8.1668 17.3638 8.1668 16.7997Z" fill="white"/>
<path d="M20.5335 14.6997C20.9201 14.6997 21.2335 14.3863 21.2335 13.9997C21.2335 13.6131 20.9201 13.2997 20.5335 13.2997H16.8001C16.4135 13.2997 16.1001 13.6131 16.1001 13.9997C16.1001 14.3863 16.4135 14.6997 16.8001 14.6997H20.5335Z" fill="white"/>
<path d="M21.2335 11.1997C21.2335 11.5863 20.9201 11.8997 20.5335 11.8997H15.8668C15.4802 11.8997 15.1668 11.5863 15.1668 11.1997C15.1668 10.8131 15.4802 10.4997 15.8668 10.4997H20.5335C20.9201 10.4997 21.2335 10.8131 21.2335 11.1997Z" fill="white"/>
<path d="M20.5335 17.4997C20.9201 17.4997 21.2335 17.1863 21.2335 16.7997C21.2335 16.4131 20.9201 16.0997 20.5335 16.0997H17.7335C17.3469 16.0997 17.0335 16.4131 17.0335 16.7997C17.0335 17.1863 17.3469 17.4997 17.7335 17.4997H20.5335Z" fill="white"/>
<path fill-rule="evenodd" clip-rule="evenodd" d="M12.0808 5.83301H15.9195C17.6347 5.83299 18.9933 5.83298 20.0566 5.97593C21.1508 6.12305 22.0365 6.43303 22.735 7.1315C23.4334 7.82997 23.7434 8.71566 23.8905 9.80992C24.0335 10.8732 24.0335 12.2318 24.0335 13.947V14.0523C24.0335 15.7676 24.0335 17.1262 23.8905 18.1894C23.7434 19.2837 23.4334 20.1694 22.735 20.8678C22.0365 21.5663 21.1508 21.8763 20.0566 22.0234C18.9933 22.1664 17.6347 22.1664 15.9195 22.1663H12.0808C10.3656 22.1664 9.00697 22.1664 7.94371 22.0234C6.84945 21.8763 5.96376 21.5663 5.26529 20.8678C4.56682 20.1694 4.25684 19.2837 4.10972 18.1894C3.96677 17.1262 3.96678 15.7676 3.9668 14.0523V13.947C3.96678 12.2318 3.96677 10.8732 4.10972 9.80992C4.25684 8.71566 4.56682 7.82997 5.26529 7.1315C5.96376 6.43303 6.84945 6.12305 7.94371 5.97593C9.00697 5.83298 10.3656 5.83299 12.0808 5.83301ZM8.13026 7.36345C7.19124 7.4897 6.65024 7.72646 6.25524 8.12145C5.86024 8.51645 5.62349 9.05745 5.49724 9.99647C5.36828 10.9556 5.3668 12.22 5.3668 13.9997C5.3668 15.7794 5.36828 17.0437 5.49724 18.0029C5.62349 18.9419 5.86024 19.4829 6.25524 19.8779C6.65024 20.2729 7.19124 20.5097 8.13026 20.6359C9.08941 20.7649 10.3538 20.7663 12.1335 20.7663H15.8668C17.6465 20.7663 18.9109 20.7649 19.87 20.6359C20.809 20.5097 21.35 20.2729 21.745 19.8779C22.14 19.4829 22.3768 18.9419 22.503 18.0029C22.632 17.0437 22.6335 15.7794 22.6335 13.9997C22.6335 12.22 22.632 10.9556 22.503 9.99647C22.3768 9.05745 22.14 8.51645 21.745 8.12145C21.35 7.72646 20.809 7.4897 19.87 7.36345C18.9109 7.2345 17.6465 7.23301 15.8668 7.23301H12.1335C10.3538 7.23301 9.08941 7.2345 8.13026 7.36345Z" fill="white"/>
</svg>
