<svg width="28" height="28" viewBox="0 0 28 28" fill="none" xmlns="http://www.w3.org/2000/svg">
<path fill-rule="evenodd" clip-rule="evenodd" d="M13.0156 3.9668H14.9847C16.2611 3.96678 17.2899 3.96676 18.0991 4.07555C18.9392 4.1885 19.6465 4.43014 20.2083 4.99192C20.7701 5.55371 21.0118 6.26106 21.1247 7.10116C21.2335 7.91033 21.2335 8.93917 21.2335 10.2156V17.7847C21.2335 19.0611 21.2335 20.0899 21.1247 20.8991C21.0118 21.7392 20.7701 22.4465 20.2083 23.0083C19.6465 23.5701 18.9392 23.8118 18.0991 23.9247C17.2899 24.0335 16.2611 24.0335 14.9847 24.0335H13.0156C11.7392 24.0335 10.7103 24.0335 9.90116 23.9247C9.06106 23.8118 8.35371 23.5701 7.79192 23.0083C7.23013 22.4465 6.9885 21.7392 6.87555 20.8991C6.76676 20.0899 6.76678 19.0611 6.7668 17.7847V10.2156C6.76678 8.93916 6.76676 7.91033 6.87555 7.10116C6.9885 6.26106 7.23013 5.55371 7.79192 4.99192C8.35371 4.43014 9.06106 4.1885 9.90116 4.07555C10.7103 3.96676 11.7392 3.96678 13.0156 3.9668ZM10.0877 5.46307C9.40285 5.55515 9.04018 5.72356 8.78187 5.98187C8.52356 6.24019 8.35514 6.60285 8.26307 7.28771C8.16828 7.9927 8.1668 8.92708 8.1668 10.2668V17.7335C8.1668 19.0732 8.16828 20.0076 8.26307 20.7126C8.35514 21.3974 8.52356 21.7601 8.78187 22.0184C9.04018 22.2767 9.40285 22.4451 10.0877 22.5372C10.7927 22.632 11.7271 22.6335 13.0668 22.6335H14.9335C16.2732 22.6335 17.2076 22.632 17.9125 22.5372C18.5974 22.4451 18.9601 22.2767 19.2184 22.0184C19.4767 21.7601 19.6451 21.3974 19.7372 20.7126C19.832 20.0076 19.8335 19.0732 19.8335 17.7335V10.2668C19.8335 8.92708 19.832 7.9927 19.7372 7.28771C19.6451 6.60285 19.4767 6.24019 19.2184 5.98187C18.9601 5.72356 18.5974 5.55515 17.9125 5.46307C17.2076 5.36828 16.2732 5.3668 14.9335 5.3668H13.0668C11.7271 5.3668 10.7927 5.36828 10.0877 5.46307ZM4.6668 6.7668C5.0534 6.7668 5.3668 7.0802 5.3668 7.4668V20.5335C5.3668 20.9201 5.0534 21.2335 4.6668 21.2335C4.2802 21.2335 3.9668 20.9201 3.9668 20.5335V7.4668C3.9668 7.0802 4.2802 6.7668 4.6668 6.7668ZM23.3335 6.7668C23.7201 6.7668 24.0335 7.0802 24.0335 7.4668V20.5335C24.0335 20.9201 23.7201 21.2335 23.3335 21.2335C22.9469 21.2335 22.6335 20.9201 22.6335 20.5335V7.4668C22.6335 7.0802 22.9469 6.7668 23.3335 6.7668ZM10.5001 11.2001C10.5001 10.8135 10.8135 10.5001 11.2001 10.5001H16.8001C17.1867 10.5001 17.5001 10.8135 17.5001 11.2001C17.5001 11.5867 17.1867 11.9001 16.8001 11.9001H11.2001C10.8135 11.9001 10.5001 11.5867 10.5001 11.2001ZM10.5001 14.9335C10.5001 14.5469 10.8135 14.2335 11.2001 14.2335H16.8001C17.1867 14.2335 17.5001 14.5469 17.5001 14.9335C17.5001 15.3201 17.1867 15.6335 16.8001 15.6335H11.2001C10.8135 15.6335 10.5001 15.3201 10.5001 14.9335ZM10.5001 18.6668C10.5001 18.2802 10.8135 17.9668 11.2001 17.9668H14.0001C14.3867 17.9668 14.7001 18.2802 14.7001 18.6668C14.7001 19.0534 14.3867 19.3668 14.0001 19.3668H11.2001C10.8135 19.3668 10.5001 19.0534 10.5001 18.6668Z" fill="white"/>
</svg>
