<svg width="28" height="28" viewBox="0 0 28 28" fill="none" xmlns="http://www.w3.org/2000/svg">
<path d="M8.40509 15.2769C8.43191 15.0007 8.64681 14.7163 9.00027 14.6216C9.35373 14.5269 9.68203 14.6657 9.8434 14.8916C10.0681 15.2061 10.5053 15.2789 10.8199 15.0542C11.1345 14.8294 11.2073 14.3922 10.9825 14.0777C10.4687 13.3586 9.53311 13.0294 8.63793 13.2693C7.74274 13.5091 7.09704 14.262 7.01164 15.1417C6.97429 15.5265 7.25594 15.8687 7.64073 15.906C8.02552 15.9434 8.36774 15.6617 8.40509 15.2769Z" fill="white"/>
<path d="M13.8146 13.8273C13.8414 13.551 14.0563 13.2666 14.4098 13.1719C14.7632 13.0772 15.0915 13.216 15.2529 13.4419C15.4776 13.7564 15.9148 13.8293 16.2294 13.6045C16.544 13.3798 16.6168 12.9426 16.392 12.628C15.8782 11.9089 14.9426 11.5797 14.0474 11.8196C13.1522 12.0595 12.5065 12.8123 12.4212 13.692C12.3838 14.0768 12.6654 14.419 13.0502 14.4564C13.435 14.4937 13.7772 14.2121 13.8146 13.8273Z" fill="white"/>
<path d="M15.1207 17.949L15.5379 17.3869C15.8484 17.6174 15.9132 18.0558 15.6828 18.3662C15.4545 18.6738 15.022 18.7403 14.7122 18.5174L14.7031 18.5116C14.6897 18.5031 14.6635 18.4874 14.6248 18.4675C14.5475 18.4277 14.4215 18.3719 14.2504 18.3255C13.9129 18.2338 13.3829 18.1731 12.6771 18.3622C11.9713 18.5514 11.5426 18.8689 11.2961 19.117C11.1712 19.2429 11.09 19.3541 11.0429 19.4273C11.0194 19.4638 11.0045 19.4906 10.9972 19.5046L10.9922 19.5142C10.8353 19.8622 10.4275 20.0208 10.076 19.8686C9.72127 19.7149 9.55824 19.3028 9.71188 18.948L10.3542 19.2262C9.71188 18.948 9.71172 18.9484 9.71188 18.948L9.71252 18.9465L9.71321 18.945L9.71474 18.9415L9.71841 18.9333L9.72825 18.9122C9.73595 18.8961 9.74596 18.8759 9.75848 18.8522C9.78352 18.8046 9.8187 18.7425 9.86563 18.6696C9.95946 18.5238 10.1009 18.3338 10.3028 18.1305C10.7101 17.7204 11.3522 17.2678 12.3147 17.0099C13.2772 16.7521 14.0596 16.8229 14.6174 16.9744C14.894 17.0495 15.1114 17.1434 15.2656 17.2227C15.3427 17.2624 15.4042 17.2986 15.4496 17.3272C15.4724 17.3416 15.4911 17.354 15.5058 17.3641L15.5249 17.3775L15.5322 17.3827L15.5352 17.385L15.5366 17.386L15.5379 17.3869C15.5382 17.3872 15.5379 17.3869 15.1207 17.949Z" fill="white"/>
<path fill-rule="evenodd" clip-rule="evenodd" d="M15.1691 4.90083L15.2078 4.91895C16.2976 5.42929 16.7873 5.65712 17.294 5.81797C17.4736 5.87498 17.6549 5.92576 17.8377 5.97025C18.3529 6.0957 18.8852 6.15429 20.0732 6.28197L20.1157 6.28654C20.87 6.36758 21.4972 6.43499 21.9913 6.54802C22.5083 6.6663 22.9753 6.8538 23.3431 7.24066C23.557 7.46561 23.7292 7.72749 23.8526 8.01321C24.0624 8.49877 24.0638 9.00623 23.9868 9.54289C23.9126 10.0606 23.7505 10.693 23.5533 11.4622L22.7546 14.5784C22.0863 17.1859 20.3904 18.6346 18.6887 19.4215C18.0116 20.891 16.9491 22.0172 16.0715 22.7663L16.0516 22.7833C15.8178 22.9829 15.588 23.1792 15.2864 23.3515C14.9731 23.5306 14.6105 23.6694 14.1021 23.8119C13.5941 23.9542 13.2128 24.0238 12.8535 24.0325C12.5074 24.041 12.2119 23.9907 11.9141 23.94L11.8883 23.9356C9.72159 23.5674 6.27718 22.3362 5.24568 18.3118L4.44694 15.1955C4.24978 14.4263 4.08768 13.7939 4.01346 13.2762C3.93652 12.7396 3.93789 12.2321 4.14764 11.7465C4.27107 11.4608 4.44328 11.1989 4.65715 10.974C5.02498 10.5871 5.49196 10.3996 6.00898 10.2813C6.50303 10.1683 7.13032 10.1009 7.88461 10.0199L7.92707 10.0153C8.41141 9.96325 8.78677 9.92268 9.09641 9.88438L9.67992 7.60782C9.87696 6.83901 10.0391 6.2065 10.2225 5.71901C10.4122 5.21496 10.6582 4.76918 11.0813 4.45141C11.3292 4.26517 11.6086 4.12594 11.9064 4.04151C12.4199 3.89592 12.9188 3.98027 13.4205 4.14719C13.902 4.3074 14.4769 4.57664 15.1691 4.90083ZM21.3984 14.2308C21.0138 15.7314 20.222 16.7517 19.2867 17.4507C19.426 16.5411 19.3971 15.5419 19.1192 14.4579L18.2502 11.0679C18.3731 11.0203 18.4838 10.9375 18.5661 10.8223C18.7275 10.5965 19.0558 10.4577 19.4093 10.5524C19.7627 10.6471 19.9776 10.9315 20.0044 11.2077C20.0418 11.5925 20.384 11.8742 20.7688 11.8368C21.1536 11.7995 21.4352 11.4573 21.3979 11.0725C21.3125 10.1928 20.6668 9.43994 19.7716 9.20008C19.0755 9.01355 18.3549 9.17113 17.8272 9.58861C17.8109 9.542 17.7944 9.49657 17.7778 9.45235C17.5881 8.9483 17.3421 8.50251 16.919 8.18474C16.6711 7.9985 16.3917 7.85927 16.0939 7.77485C15.6087 7.63727 15.1364 7.70501 14.6626 7.85374C14.5662 7.81286 14.4659 7.77822 14.3621 7.75041C13.4669 7.51054 12.5313 7.8397 12.0175 8.5588C11.9075 8.71279 11.8688 8.89617 11.8948 9.06962C11.3808 9.30438 11.0474 9.44302 10.7063 9.5513C10.6776 9.5604 10.6489 9.56934 10.6202 9.57811L11.026 7.9946C11.2356 7.17684 11.3796 6.61934 11.5328 6.21213C11.6829 5.81322 11.8082 5.6563 11.922 5.57081C12.0341 5.48667 12.1582 5.42529 12.2882 5.38843C12.4127 5.35312 12.5954 5.34814 12.9785 5.47559C13.3728 5.60678 13.8732 5.83988 14.614 6.18681L14.6639 6.21017C15.6907 6.69104 16.2662 6.96057 16.8705 7.15236C17.0805 7.21903 17.2926 7.27845 17.5065 7.33052C18.122 7.48036 18.75 7.54784 19.869 7.66809L19.9236 7.67396C20.7313 7.76076 21.2754 7.8204 21.6791 7.91276C22.069 8.00197 22.2303 8.10203 22.3285 8.20534C22.4271 8.30904 22.5084 8.43181 22.5674 8.5684C22.6298 8.71271 22.6616 8.92126 22.601 9.34421C22.5389 9.77744 22.3968 10.3357 22.1872 11.1533L21.3984 14.2308ZM15.0218 9.20892C14.6275 9.34011 14.1271 9.57321 13.3862 9.92015L13.3364 9.9435C12.3096 10.4244 11.734 10.6939 11.1298 10.8857C10.9198 10.9524 10.7077 11.0118 10.4938 11.0639C9.87833 11.2137 9.25032 11.2812 8.13133 11.4014L8.07667 11.4073C7.269 11.4941 6.72487 11.5537 6.3212 11.6461C5.93125 11.7353 5.76997 11.8354 5.67175 11.9387C5.57315 12.0424 5.49186 12.1651 5.43285 12.3017C5.37051 12.446 5.33865 12.6546 5.39929 13.0775C5.4614 13.5108 5.60348 14.0691 5.81304 14.8866L6.60184 17.9642C7.4248 21.1749 10.1461 22.2195 12.1228 22.5554C12.4482 22.6107 12.6198 22.6378 12.8195 22.633C13.0163 22.6282 13.2728 22.5903 13.7245 22.4637C14.1758 22.3373 14.4171 22.2359 14.5917 22.1361C14.7695 22.0344 14.9073 21.9194 15.1626 21.7015C16.7202 20.3718 18.589 18.0281 17.763 14.8055L16.9742 11.7279C16.7646 10.9102 16.6207 10.3527 16.4675 9.94546C16.3173 9.54655 16.1921 9.38963 16.0782 9.30415C15.9662 9.22001 15.8421 9.15863 15.7121 9.12176C15.5875 9.08646 15.4048 9.08147 15.0218 9.20892Z" fill="white"/>
</svg>
