<svg width="28" height="28" viewBox="0 0 28 28" fill="none" xmlns="http://www.w3.org/2000/svg">
<path fill-rule="evenodd" clip-rule="evenodd" d="M14.3929 5.66707C14.0436 5.99868 13.62 6.53432 12.9916 7.33322L12.6739 7.73704C12.653 7.76365 12.6322 7.79015 12.6116 7.81651C12.3266 8.1802 12.0636 8.51584 11.6941 8.71298C11.3185 8.91338 10.8977 8.9367 10.4546 8.96125C10.4225 8.96302 10.3903 8.96481 10.358 8.96666L9.86575 8.99497C8.88967 9.0511 8.24218 9.0904 7.79086 9.18791C7.35598 9.28186 7.29072 9.39122 7.26284 9.44737C7.22965 9.51421 7.18453 9.65545 7.36653 10.0982C7.55189 10.5492 7.89606 11.1344 8.41014 12.0034L8.67013 12.4429C8.68645 12.4705 8.70271 12.4979 8.71885 12.5251C8.95649 12.9253 9.17037 13.2855 9.22664 13.7051C9.28246 14.1214 9.17396 14.5292 9.05171 14.9886C9.0434 15.0199 9.03502 15.0514 9.02663 15.0831L8.89322 15.5876C8.62971 16.5842 8.45305 17.2588 8.39366 17.7533C8.33425 18.248 8.42041 18.3589 8.45481 18.3961C8.4553 18.3966 8.45582 18.3972 8.45638 18.3978C8.4791 18.4227 8.55491 18.5057 8.9904 18.4554C9.40864 18.4071 9.97154 18.2591 10.7903 18.0335C10.5245 17.8121 10.294 17.6072 10.1144 17.4143C9.79708 17.0736 9.49615 16.6219 9.57929 16.0383C9.66304 15.4504 10.0824 15.1045 10.4852 14.8727C10.8712 14.6507 11.408 14.4405 12.0257 14.1986L12.4189 14.0446C12.617 13.967 12.7274 13.9232 12.8072 13.8843C12.8525 13.8622 12.8707 13.8496 12.876 13.8454C12.8802 13.84 12.8923 13.8218 12.9134 13.7766C12.951 13.6963 12.9928 13.5856 13.067 13.3865L13.2142 12.9914C13.4454 12.371 13.6464 11.8315 13.862 11.4423C14.0875 11.0354 14.4265 10.6118 15.0123 10.5179C15.5934 10.4247 16.0504 10.7154 16.398 11.026C16.7328 11.3253 17.1055 11.7712 17.5364 12.2868L17.8091 12.6131C17.9467 12.7778 18.0248 12.8704 18.0886 12.9356C18.1171 12.9647 18.1345 12.9796 18.1442 12.9872C18.1489 12.9908 18.1517 12.9926 18.153 12.9935L18.1554 12.9949L18.1579 12.9959C18.1592 12.9964 18.1623 12.9975 18.1677 12.9991C18.1793 13.0022 18.2012 13.0072 18.2412 13.0126C18.3308 13.0246 18.4507 13.0316 18.6642 13.0432L19.0872 13.0661C19.2871 13.0769 19.4791 13.0872 19.6616 13.0989C20.0998 12.7131 20.3919 12.4295 20.5744 12.1912C20.7698 11.936 20.7718 11.8207 20.7628 11.7536C20.7539 11.6872 20.7239 11.5597 20.3421 11.3263C19.9461 11.0842 19.346 10.8323 18.4415 10.4558L17.9852 10.266C17.9554 10.2536 17.9258 10.2413 17.8962 10.2291C17.4844 10.0587 17.0956 9.89782 16.8063 9.58552C16.5218 9.27851 16.3816 8.87623 16.2285 8.43716C16.2175 8.40563 16.2064 8.3739 16.1952 8.34201L16.0244 7.85498C15.6866 6.89181 15.4575 6.24419 15.2332 5.81411C15.013 5.3918 14.8948 5.37308 14.8726 5.36957C14.8721 5.36949 14.8717 5.36941 14.8712 5.36934C14.8708 5.36927 14.8703 5.36917 14.8698 5.36907C14.849 5.36514 14.7338 5.34338 14.3929 5.66707ZM21.3644 13.4156C21.4843 13.289 21.5921 13.1649 21.686 13.0422C22.0064 12.6237 22.2272 12.1405 22.1504 11.5676C22.0587 10.8839 21.5975 10.4529 21.0723 10.1318C20.5722 9.82604 19.8692 9.53356 19.034 9.18605L18.5231 8.97341C17.9651 8.74124 17.8883 8.69342 17.8333 8.63406C17.773 8.56906 17.7246 8.47259 17.5163 7.87864L17.3266 7.3377C17.0126 6.44235 16.7513 5.69735 16.4746 5.16672C16.1934 4.62757 15.7939 4.10634 15.1063 3.98922C14.4168 3.87176 13.869 4.23395 13.4289 4.65181C12.9966 5.06228 12.5103 5.68049 11.9268 6.42238L11.5735 6.87149C11.1855 7.36483 11.1103 7.43766 11.0351 7.4778C10.9664 7.51447 10.8805 7.5343 10.2776 7.56897L9.78538 7.59728C9.76546 7.59842 9.74562 7.59956 9.72585 7.6007C8.82531 7.65244 8.06661 7.69603 7.49522 7.81948C6.89484 7.94918 6.31662 8.20507 6.00893 8.82472C5.70654 9.43369 5.8351 10.055 6.07166 10.6305C6.30033 11.1868 6.69851 11.8598 7.17665 12.668L7.46519 13.1557C7.77975 13.6874 7.82546 13.7898 7.83905 13.8912C7.85313 13.9961 7.83439 14.1154 7.67315 14.7252L7.52566 15.283C7.27979 16.2127 7.07613 16.9828 7.00365 17.5864C6.92981 18.2012 6.96389 18.8468 7.42781 19.3475C7.90531 19.8629 8.54801 19.9158 9.15092 19.8462C9.72988 19.7794 10.4665 19.5757 11.3414 19.3338L11.4612 19.3007L12.019 19.0297C12.0334 19.0424 12.0466 19.0544 12.0589 19.0659C12.0886 19.0939 12.1038 19.111 12.1115 19.1205C12.1152 19.125 12.1171 19.1277 12.1179 19.129L12.1193 19.1311L12.1202 19.1332C12.1207 19.1345 12.1218 19.1374 12.1234 19.1427C12.1267 19.1539 12.1321 19.1755 12.1382 19.2152C12.1518 19.304 12.161 19.4233 12.1764 19.6361L12.2071 20.0579C12.2553 20.7227 12.2972 21.2991 12.3947 21.7359C12.4967 22.1923 12.7 22.6907 13.2248 22.9542C13.7515 23.2187 14.2725 23.0815 14.6975 22.8875C15.1029 22.7024 15.5852 22.3884 16.14 22.0271L16.493 21.7972C16.671 21.6814 16.7704 21.6172 16.8485 21.575C16.8832 21.5562 16.9029 21.5477 16.9131 21.5439C16.9178 21.5422 16.9204 21.5414 16.9212 21.5412L16.9221 21.541L16.9234 21.5409C16.9245 21.5408 16.9274 21.5407 16.9329 21.5409C16.9445 21.5414 16.9668 21.5433 17.0067 21.5503C17.0958 21.5661 17.2126 21.596 17.42 21.65L17.8312 21.7569C18.4796 21.9257 19.0412 22.0718 19.4861 22.1202C19.9477 22.1703 20.4919 22.1407 20.9076 21.7184C21.3239 21.2955 21.3439 20.7507 21.2851 20.2903C21.2285 19.8469 21.0718 19.2892 20.891 18.6457L20.7762 18.2373C20.7184 18.0313 20.6864 17.9155 20.669 17.8271C20.6612 17.7877 20.6589 17.7657 20.6583 17.7544C20.658 17.7491 20.658 17.7463 20.6581 17.7454C20.6581 17.7453 20.6581 17.7445 20.6582 17.7442C20.6584 17.7435 20.659 17.7411 20.6607 17.7364C20.6642 17.7264 20.6723 17.7067 20.6904 17.6718C20.7313 17.5933 20.7937 17.493 20.9066 17.3134L21.1307 16.9569C21.4827 16.3971 21.7887 15.9102 21.9669 15.5022C22.1537 15.0745 22.2825 14.5506 22.0069 14.0284C21.8505 13.7318 21.6193 13.5415 21.3644 13.4156ZM15.2138 11.8995C15.2136 11.8989 15.217 11.8988 15.2247 11.9011C15.2178 11.9013 15.214 11.9001 15.2138 11.8995ZM15.2364 11.9053C15.2693 11.9186 15.3403 11.9584 15.4652 12.07C15.7142 12.2925 16.0212 12.6571 16.4966 13.2258L16.7348 13.5109C16.7517 13.5311 16.7687 13.5515 16.7857 13.572C16.9937 13.8224 17.2158 14.0896 17.5271 14.246C17.8392 14.4027 18.1859 14.4204 18.5095 14.437C18.536 14.4384 18.5624 14.4397 18.5885 14.4411L18.9577 14.4611C19.6946 14.501 20.1675 14.5284 20.493 14.5946C20.6483 14.6262 20.7246 14.6586 20.7586 14.6782C20.7612 14.6797 20.7634 14.6811 20.7653 14.6823C20.7652 14.6833 20.7651 14.6845 20.765 14.6857C20.7621 14.7213 20.7462 14.7992 20.6839 14.9419C20.5531 15.2415 20.3059 15.6383 19.9163 16.2581L19.7213 16.5683C19.7074 16.5905 19.6933 16.6127 19.6791 16.6352C19.508 16.9055 19.3215 17.2001 19.2721 17.5472C19.2229 17.8927 19.3183 18.2285 19.4066 18.539C19.414 18.5649 19.4213 18.5905 19.4284 18.616L19.5285 18.9721C19.7282 19.6831 19.8545 20.1396 19.8964 20.4675C19.9154 20.6168 19.9106 20.6947 19.9042 20.7311C19.8678 20.7384 19.7892 20.7448 19.6373 20.7283C19.3075 20.6925 18.8474 20.5747 18.1313 20.3884L17.7725 20.2951C17.7469 20.2884 17.7211 20.2816 17.6952 20.2748C17.3821 20.1923 17.0448 20.1035 16.7005 20.1586C16.3545 20.2141 16.0633 20.405 15.7952 20.5808C15.773 20.5953 15.751 20.6098 15.7291 20.624L15.4217 20.8241C14.8078 21.2239 14.4143 21.4778 14.1162 21.6139C13.9742 21.6787 13.8959 21.6961 13.8595 21.6998C13.8574 21.7 13.8555 21.7001 13.8538 21.7003C13.8525 21.6983 13.851 21.6959 13.8493 21.6931C13.8292 21.6599 13.7955 21.5849 13.7611 21.4308C13.6889 21.1077 13.6529 20.637 13.5995 19.9025L13.5728 19.5346C13.5709 19.5086 13.569 19.4823 13.5672 19.4558C13.5447 19.1335 13.5206 18.787 13.3575 18.4778C13.1949 18.1698 12.923 17.9531 12.6684 17.7503C12.6475 17.7336 12.6267 17.7171 12.6061 17.7006L12.3161 17.4681C11.7375 17.0043 11.3665 16.7046 11.1389 16.4602C11.0277 16.3407 10.9859 16.2713 10.9712 16.2382C10.995 16.2119 11.0528 16.1614 11.1835 16.0862C11.4672 15.9229 11.9036 15.75 12.5872 15.4822L12.9294 15.3482C12.9539 15.3386 12.9787 15.329 13.0037 15.3193C13.3024 15.2034 13.6282 15.077 13.8738 14.8275C14.1195 14.5779 14.2405 14.2501 14.3512 13.95C14.3605 13.9249 14.3697 13.9 14.3788 13.8754L14.507 13.5316C14.7629 12.8448 14.9282 12.4067 15.0866 12.1209C15.1608 11.987 15.2108 11.9287 15.2364 11.9053ZM10.9641 16.2142C10.9647 16.2144 10.966 16.2182 10.9661 16.225C10.9635 16.2174 10.9635 16.214 10.9641 16.2142ZM10.9623 16.2489C10.9599 16.2561 10.9573 16.2597 10.9565 16.2597C10.9558 16.2597 10.9569 16.2561 10.9623 16.2489ZM19.8957 20.7583C19.8953 20.7577 19.8965 20.7537 19.9005 20.7477C19.8981 20.7558 19.8961 20.7588 19.8957 20.7583ZM19.9207 20.727C19.9265 20.723 19.9305 20.7217 19.931 20.7221C19.9316 20.7225 19.9287 20.7245 19.9207 20.727ZM15.2458 11.8974C15.253 11.8919 15.2566 11.8907 15.2566 11.8914C15.2566 11.8922 15.253 11.8949 15.2458 11.8974Z" fill="white"/>
</svg>
