<svg width="37" height="36" viewBox="0 0 37 36" fill="none" xmlns="http://www.w3.org/2000/svg">
<path fill-rule="evenodd" clip-rule="evenodd" d="M19.0068 7.28568C18.5577 7.71203 18.0131 8.40071 17.2051 9.42786L16.7967 9.94707C16.7698 9.98128 16.7431 10.0154 16.7165 10.0492C16.3502 10.5168 16.012 10.9484 15.537 11.2018C15.0541 11.4595 14.513 11.4895 13.9433 11.521C13.902 11.5233 13.8606 11.5256 13.8191 11.528L13.1862 11.5644C11.9312 11.6366 11.0988 11.6871 10.5185 11.8125C9.95936 11.9333 9.87546 12.0739 9.83961 12.1461C9.79694 12.232 9.73892 12.4136 9.97293 12.9829C10.2112 13.5627 10.6538 14.3151 11.3147 15.4324L11.649 15.9974C11.67 16.0329 11.6909 16.0681 11.7116 16.1031C12.0172 16.6176 12.2921 17.0807 12.3645 17.6203C12.4363 18.1555 12.2968 18.6798 12.1396 19.2706C12.1289 19.3107 12.1181 19.3512 12.1073 19.392L11.9358 20.0407C11.597 21.322 11.3699 22.1893 11.2935 22.8251C11.2171 23.4612 11.3279 23.6038 11.3721 23.6515C11.3728 23.6522 11.3734 23.653 11.3742 23.6537C11.4034 23.6857 11.5008 23.7924 12.0608 23.7278C12.5985 23.6658 13.3222 23.4754 14.375 23.1854C14.0331 22.9007 13.7368 22.6373 13.5059 22.3893C13.0979 21.9512 12.711 21.3704 12.8179 20.6201C12.9256 19.8643 13.4648 19.4195 13.9827 19.1215C14.4789 18.836 15.1691 18.5658 15.9632 18.2548L16.4688 18.0568C16.7236 17.957 16.8654 17.9007 16.9681 17.8506C17.0264 17.8222 17.0497 17.8061 17.0566 17.8007C17.0619 17.7937 17.0775 17.7703 17.1046 17.7122C17.1529 17.609 17.2067 17.4667 17.3021 17.2107L17.4914 16.7026C17.7886 15.905 18.047 15.2114 18.3243 14.711C18.6142 14.1878 19.0501 13.6432 19.8032 13.5224C20.5503 13.4027 21.1379 13.7764 21.5848 14.1758C22.0153 14.5605 22.4945 15.1338 23.0484 15.7968L23.399 16.2163C23.5761 16.4281 23.6764 16.5471 23.7584 16.6309C23.7951 16.6684 23.8175 16.6875 23.83 16.6972C23.8359 16.7019 23.8396 16.7043 23.8412 16.7053L23.8443 16.7071L23.8475 16.7085C23.8492 16.7092 23.8532 16.7106 23.8602 16.7125C23.875 16.7166 23.9033 16.723 23.9547 16.7299C24.0699 16.7454 24.224 16.7544 24.4985 16.7692L25.0424 16.7987C25.2994 16.8126 25.5462 16.8259 25.7809 16.8409C26.3443 16.3449 26.7199 15.9803 26.9545 15.6738C27.2057 15.3458 27.2083 15.1974 27.1967 15.1113C27.1853 15.0258 27.1467 14.8619 26.6558 14.5618C26.1466 14.2505 25.3751 13.9266 24.2121 13.4427L23.6255 13.1985C23.5872 13.1826 23.5491 13.1668 23.5111 13.1511C22.9816 12.932 22.4817 12.7252 22.1097 12.3237C21.744 11.929 21.5637 11.4117 21.3669 10.8472C21.3527 10.8067 21.3385 10.7659 21.3241 10.7249L21.1045 10.0987C20.6701 8.86033 20.3757 8.02768 20.0873 7.47473C19.8041 6.93176 19.6522 6.90769 19.6236 6.90317C19.623 6.90307 19.6224 6.90297 19.6219 6.90288C19.6213 6.90279 19.6207 6.90267 19.6199 6.90253C19.5932 6.89748 19.4451 6.86951 19.0068 7.28568ZM27.9702 17.248C28.1243 17.0853 28.263 16.9257 28.3837 16.768C28.7957 16.23 29.0795 15.6087 28.9807 14.872C28.8629 13.993 28.2699 13.4389 27.5946 13.026C26.9516 12.6329 26.0478 12.2569 24.974 11.8101L24.317 11.5367C23.5997 11.2382 23.5009 11.1767 23.4302 11.1004C23.3527 11.0168 23.2905 10.8928 23.0227 10.1291L22.7787 9.43362C22.375 8.28247 22.0391 7.3246 21.6833 6.64236C21.3217 5.94917 20.8081 5.27902 19.9241 5.12844C19.0375 4.97742 18.3332 5.44309 17.7674 5.98034C17.2115 6.50808 16.5864 7.30293 15.8361 8.25678L15.3819 8.83422C14.883 9.46851 14.7864 9.56215 14.6897 9.61376C14.6013 9.6609 14.4909 9.6864 13.7158 9.73098L13.0829 9.76737C13.0573 9.76884 13.0318 9.77031 13.0063 9.77177C11.8485 9.8383 10.873 9.89434 10.1384 10.0531C9.36646 10.2198 8.62304 10.5488 8.22743 11.3455C7.83865 12.1285 8.00395 12.9273 8.30809 13.6672C8.6021 14.3825 9.11404 15.2478 9.72879 16.2868L10.0998 16.9139C10.5042 17.5976 10.563 17.7292 10.5805 17.8595C10.5986 17.9944 10.5745 18.1478 10.3671 18.9319L10.1775 19.649C9.86141 20.8444 9.59956 21.8345 9.50636 22.6105C9.41143 23.401 9.45524 24.231 10.0517 24.8748C10.6656 25.5375 11.492 25.6054 12.2671 25.5159C13.0115 25.43 13.9586 25.1682 15.0834 24.8572L15.2375 24.8146L15.9546 24.4662C15.9732 24.4825 15.9902 24.498 16.0059 24.5128C16.0442 24.5487 16.0638 24.5707 16.0737 24.5829C16.0784 24.5887 16.0808 24.5922 16.0819 24.5938L16.0836 24.5966L16.0848 24.5993C16.0854 24.6009 16.0869 24.6047 16.0889 24.6115C16.0932 24.6259 16.1001 24.6537 16.1079 24.7046C16.1254 24.8189 16.1372 24.9722 16.1571 25.2459L16.1965 25.7882C16.2586 26.6429 16.3123 27.384 16.4378 27.9456C16.5688 28.5323 16.8303 29.1732 17.505 29.512C18.1822 29.8521 18.852 29.6756 19.3984 29.4262C19.9197 29.1883 20.5397 28.7845 21.2531 28.32L21.707 28.0245C21.9358 27.8755 22.0636 27.793 22.164 27.7387C22.2086 27.7145 22.234 27.7037 22.247 27.6988C22.2532 27.6965 22.2565 27.6956 22.2575 27.6953L22.2587 27.695L22.2603 27.6949C22.2617 27.6948 22.2655 27.6946 22.2726 27.6949C22.2875 27.6955 22.3162 27.6979 22.3674 27.707C22.482 27.7273 22.6322 27.7657 22.8989 27.8351L23.4275 27.9726C24.2612 28.1896 24.9832 28.3775 25.5553 28.4396C26.1488 28.5041 26.8485 28.466 27.3829 27.9231C27.9181 27.3794 27.9438 26.6789 27.8683 26.0869C27.7955 25.5169 27.594 24.7998 27.3615 23.9725L27.214 23.4474C27.1396 23.1825 27.0984 23.0337 27.0761 22.92C27.0661 22.8693 27.0631 22.841 27.0623 22.8265C27.0619 22.8197 27.062 22.8161 27.062 22.8149C27.0621 22.8149 27.0621 22.8138 27.0622 22.8134C27.0625 22.8125 27.0633 22.8094 27.0654 22.8033C27.07 22.7905 27.0803 22.7651 27.1037 22.7203C27.1562 22.6194 27.2365 22.4905 27.3816 22.2595L27.6697 21.8011C28.1222 21.0814 28.5157 20.4554 28.7448 19.9309C28.985 19.3809 29.1506 18.7074 28.7963 18.0359C28.5951 17.6546 28.2979 17.41 27.9702 17.248ZM20.0622 15.2988C20.062 15.298 20.0664 15.2979 20.0763 15.3009C20.0675 15.3011 20.0625 15.2996 20.0622 15.2988ZM20.0913 15.3063C20.1336 15.3234 20.225 15.3746 20.3854 15.518C20.7056 15.8041 21.1004 16.2728 21.7116 17.0041L22.0179 17.3706C22.0396 17.3966 22.0614 17.4228 22.0833 17.4492C22.3507 17.7711 22.6362 18.1147 23.0366 18.3157C23.4378 18.5172 23.8836 18.54 24.2996 18.5613C24.3337 18.563 24.3676 18.5648 24.4012 18.5666L24.8759 18.5923C25.8234 18.6436 26.4313 18.6788 26.8498 18.7639C27.0495 18.8046 27.1476 18.8462 27.1913 18.8715C27.1946 18.8734 27.1975 18.8751 27.1999 18.8767C27.1998 18.878 27.1997 18.8795 27.1996 18.881C27.1958 18.9269 27.1754 19.027 27.0953 19.2105C26.9271 19.5956 26.6093 20.1059 26.1084 20.9027L25.8577 21.3016C25.8398 21.33 25.8217 21.3587 25.8034 21.3875C25.5834 21.7351 25.3437 22.1139 25.2801 22.5601C25.2168 23.0043 25.3395 23.436 25.4531 23.8353C25.4625 23.8685 25.4719 23.9015 25.4811 23.9342L25.6097 24.3921C25.8665 25.3063 26.0289 25.8932 26.0827 26.3148C26.1072 26.5068 26.1011 26.607 26.0928 26.6537C26.046 26.663 25.945 26.6714 25.7497 26.6502C25.3256 26.6041 24.734 26.4526 23.8133 26.2131L23.3521 26.0931C23.3192 26.0845 23.286 26.0758 23.2526 26.067C22.85 25.961 22.4164 25.8467 21.9738 25.9177C21.5289 25.989 21.1545 26.2345 20.8098 26.4604C20.7813 26.4791 20.7529 26.4977 20.7248 26.516L20.3296 26.7733C19.5402 27.2873 19.0344 27.6138 18.6511 27.7887C18.4685 27.872 18.3679 27.8945 18.321 27.8992C18.3183 27.8994 18.3159 27.8996 18.3138 27.8998C18.3121 27.8972 18.3101 27.8942 18.3079 27.8906C18.2821 27.8479 18.2387 27.7514 18.1945 27.5533C18.1017 27.1379 18.0554 26.5327 17.9867 25.5884L17.9524 25.1154C17.9499 25.0819 17.9476 25.0481 17.9452 25.0141C17.9164 24.5997 17.8853 24.1542 17.6756 23.7567C17.4666 23.3606 17.1169 23.082 16.7897 22.8212C16.7628 22.7998 16.7361 22.7785 16.7096 22.7573L16.3367 22.4584C15.5927 21.8621 15.1157 21.4768 14.8232 21.1626C14.6801 21.009 14.6265 20.9196 14.6075 20.8771C14.6381 20.8433 14.7124 20.7784 14.8804 20.6817C15.2452 20.4718 15.8062 20.2494 16.6852 19.9052L17.1252 19.7328C17.1567 19.7205 17.1886 19.7081 17.2207 19.6957C17.6047 19.5467 18.0237 19.3841 18.3394 19.0634C18.6553 18.7425 18.8109 18.3209 18.9533 17.9351C18.9652 17.9029 18.977 17.8709 18.9888 17.8393L19.1535 17.3973C19.4826 16.5141 19.6951 15.9509 19.8987 15.5835C19.9942 15.4112 20.0584 15.3363 20.0913 15.3063ZM14.5984 20.8462C14.5992 20.8465 14.6008 20.8514 14.6009 20.8602C14.5977 20.8504 14.5976 20.846 14.5984 20.8462ZM14.596 20.8909C14.593 20.9001 14.5896 20.9047 14.5886 20.9047C14.5877 20.9047 14.5892 20.9002 14.596 20.8909ZM26.0819 26.6886C26.0814 26.688 26.0829 26.6827 26.088 26.675C26.085 26.6855 26.0824 26.6893 26.0819 26.6886ZM26.114 26.6484C26.1215 26.6432 26.1266 26.6416 26.1273 26.6421C26.128 26.6426 26.1242 26.6452 26.114 26.6484ZM20.1034 15.2961C20.1127 15.289 20.1173 15.2875 20.1173 15.2884C20.1173 15.2894 20.1127 15.2929 20.1034 15.2961Z" fill="white"/>
</svg>
