<svg width="37" height="36" viewBox="0 0 37 36" fill="none" xmlns="http://www.w3.org/2000/svg">
<path fill-rule="evenodd" clip-rule="evenodd" d="M16.0319 6.29981H20.9673C23.1726 6.29979 24.9194 6.29977 26.2864 6.48357C27.6933 6.67272 28.8321 7.07126 29.7301 7.9693C30.6282 8.86733 31.0267 10.0061 31.2158 11.413C31.3996 12.78 31.3996 14.5268 31.3996 16.7321V16.7998C31.3996 17.2969 30.9967 17.6998 30.4996 17.6998C30.0026 17.6998 29.5996 17.2969 29.5996 16.7998C29.5996 14.5116 29.5977 12.886 29.4319 11.6528C29.2696 10.4455 28.9652 9.74994 28.4573 9.24209C27.9495 8.73424 27.2539 8.42983 26.0466 8.26752C24.8134 8.10172 23.1878 8.09981 20.8996 8.09981H16.0996C13.8114 8.09981 12.1858 8.10172 10.9526 8.26752C9.74532 8.42983 9.04975 8.73424 8.54189 9.24209C8.03404 9.74994 7.72964 10.4455 7.56732 11.6528C7.40152 12.886 7.39961 14.5116 7.39961 16.7998V19.1998C7.39961 21.488 7.40152 23.1136 7.56732 24.3468C7.72964 25.5541 8.03404 26.2497 8.54189 26.7575C9.04975 27.2654 9.74532 27.5698 10.9526 27.7321C12.1858 27.8979 13.8114 27.8998 16.0996 27.8998H17.2996C17.7967 27.8998 18.1996 28.3027 18.1996 28.7998C18.1996 29.2969 17.7967 29.6998 17.2996 29.6998H16.0319C13.8266 29.6998 12.0798 29.6998 10.7128 29.516C9.30588 29.3269 8.16714 28.9283 7.2691 28.0303C6.37107 27.1323 5.97253 25.9935 5.78337 24.5866C5.59958 23.2196 5.59959 21.4728 5.59961 19.2675V16.7321C5.59959 14.5268 5.59958 12.78 5.78337 11.413C5.97253 10.0061 6.37107 8.86733 7.2691 7.9693C8.16714 7.07126 9.30588 6.67272 10.7128 6.48357C12.0798 6.29977 13.8266 6.29979 16.0319 6.29981ZM12.4632 11.9634C12.8147 11.6119 13.3845 11.6119 13.736 11.9634L16.9996 15.227V13.7998C16.9996 13.3027 17.4026 12.8998 17.8996 12.8998C18.3967 12.8998 18.7996 13.3027 18.7996 13.7998V17.3998C18.7996 17.8969 18.3967 18.2998 17.8996 18.2998H14.2996C13.8026 18.2998 13.3996 17.8969 13.3996 17.3998C13.3996 16.9027 13.8026 16.4998 14.2996 16.4998H15.7268L12.4632 13.2362C12.1117 12.8847 12.1117 12.3149 12.4632 11.9634ZM24.4372 18.2998H25.762C26.8402 18.2998 27.7392 18.2997 28.453 18.3957C29.2063 18.497 29.8865 18.7198 30.4331 19.2664C30.9796 19.8129 31.2024 20.4931 31.3037 21.2464C31.3997 21.9602 31.3996 22.8592 31.3996 23.9374V24.0622C31.3996 25.1404 31.3997 26.0394 31.3037 26.7532C31.2024 27.5065 30.9796 28.1867 30.4331 28.7333C29.8865 29.2798 29.2063 29.5026 28.453 29.6039C27.7392 29.6999 26.8402 29.6998 25.762 29.6998H24.4372C23.359 29.6998 22.46 29.6999 21.7462 29.6039C20.9929 29.5026 20.3127 29.2798 19.7662 28.7333C19.2196 28.1867 18.9968 27.5065 18.8955 26.7532C18.7995 26.0394 18.7996 25.1404 18.7996 24.0622V23.9374C18.7996 22.8592 18.7995 21.9602 18.8955 21.2464C18.9968 20.4931 19.2196 19.8129 19.7662 19.2664C20.3127 18.7198 20.9929 18.497 21.7462 18.3957C22.46 18.2997 23.359 18.2998 24.4372 18.2998ZM21.9861 20.1796C21.4323 20.2541 21.1953 20.3828 21.039 20.5391C20.8826 20.6955 20.7539 20.9325 20.6795 21.4863C20.6015 22.0659 20.5996 22.843 20.5996 23.9998C20.5996 25.1566 20.6015 25.9337 20.6795 26.5133C20.7539 27.0671 20.8826 27.3041 21.039 27.4605C21.1953 27.6168 21.4323 27.7455 21.9861 27.82C22.5657 27.8979 23.3428 27.8998 24.4996 27.8998H25.6996C26.8564 27.8998 27.6335 27.8979 28.2131 27.82C28.7669 27.7455 29.0039 27.6168 29.1603 27.4605C29.3167 27.3041 29.4453 27.0671 29.5198 26.5133C29.5977 25.9337 29.5996 25.1566 29.5996 23.9998C29.5996 22.843 29.5977 22.0659 29.5198 21.4863C29.4453 20.9325 29.3167 20.6955 29.1603 20.5391C29.0039 20.3828 28.7669 20.2541 28.2131 20.1796C27.6335 20.1017 26.8564 20.0998 25.6996 20.0998H24.4996C23.3428 20.0998 22.5657 20.1017 21.9861 20.1796Z" fill="white"/>
</svg>
