<svg width="37" height="36" viewBox="0 0 37 36" fill="none" xmlns="http://www.w3.org/2000/svg">
<path fill-rule="evenodd" clip-rule="evenodd" d="M12.4996 5.7002C12.9967 5.7002 13.3996 6.10314 13.3996 6.6002V7.51546C14.194 7.50018 15.0693 7.50019 16.0319 7.50019H20.9673C21.9299 7.50019 22.8052 7.50018 23.5996 7.51546V6.6002C23.5996 6.10314 24.0026 5.7002 24.4996 5.7002C24.9967 5.7002 25.3996 6.10314 25.3996 6.6002V7.5927C25.7115 7.61648 26.0069 7.64638 26.2864 7.68396C27.6933 7.87311 28.8321 8.27165 29.7301 9.16969C30.6282 10.0677 31.0267 11.2065 31.2158 12.6134C31.2763 13.063 31.3169 13.5537 31.3441 14.0883C31.38 14.1855 31.3996 14.2905 31.3996 14.4002C31.3996 14.4834 31.3883 14.5639 31.3672 14.6404C31.3996 15.6028 31.3996 16.6955 31.3996 17.9325V20.4002C31.3996 20.8973 30.9967 21.3002 30.4996 21.3002C30.0026 21.3002 29.5996 20.8973 29.5996 20.4002V18.0002C29.5996 16.9754 29.5992 16.0835 29.5839 15.3002H7.41531C7.39999 16.0835 7.39961 16.9754 7.39961 18.0002V20.4002C7.39961 22.6884 7.40152 24.314 7.56732 25.5472C7.72964 26.7545 8.03404 27.4501 8.54189 27.9579C9.04975 28.4658 9.74532 28.7702 10.9526 28.9325C12.1858 29.0983 13.8114 29.1002 16.0996 29.1002H20.8996C21.3967 29.1002 21.7996 29.5031 21.7996 30.0002C21.7996 30.4973 21.3967 30.9002 20.8996 30.9002H16.0319C13.8266 30.9002 12.0798 30.9002 10.7128 30.7164C9.30588 30.5273 8.16714 30.1287 7.2691 29.2307C6.37107 28.3327 5.97253 27.1939 5.78337 25.787C5.59958 24.42 5.59959 22.6732 5.59961 20.4679V17.9325C5.5996 16.6955 5.59959 15.6028 5.63202 14.6404C5.6109 14.5639 5.59961 14.4834 5.59961 14.4002C5.59961 14.2905 5.61922 14.1855 5.65513 14.0883C5.68235 13.5537 5.72292 13.063 5.78337 12.6134C5.97253 11.2065 6.37107 10.0677 7.2691 9.16969C8.16714 8.27165 9.30588 7.87311 10.7128 7.68396C10.9923 7.64638 11.2877 7.61648 11.5996 7.5927V6.6002C11.5996 6.10314 12.0026 5.7002 12.4996 5.7002ZM7.49763 13.5002H29.5016C29.4824 13.2729 29.4594 13.0577 29.4319 12.8532C29.2696 11.6459 28.9652 10.9503 28.4573 10.4425C27.9495 9.93463 27.2539 9.63022 26.0466 9.46791C24.8134 9.30211 23.1878 9.3002 20.8996 9.3002H16.0996C13.8114 9.3002 12.1858 9.30211 10.9526 9.46791C9.74532 9.63022 9.04975 9.93463 8.54189 10.4425C8.03404 10.9503 7.72964 11.6459 7.56732 12.8532C7.53983 13.0577 7.51685 13.2729 7.49763 13.5002ZM25.6996 22.5002C24.2084 22.5002 22.9996 23.709 22.9996 25.2002C22.9996 26.6914 24.2084 27.9002 25.6996 27.9002C27.1908 27.9002 28.3996 26.6914 28.3996 25.2002C28.3996 23.709 27.1908 22.5002 25.6996 22.5002ZM21.1996 25.2002C21.1996 22.7149 23.2143 20.7002 25.6996 20.7002C28.1849 20.7002 30.1996 22.7149 30.1996 25.2002C30.1996 26.1174 29.9252 26.9705 29.4541 27.6818L31.136 29.3638C31.4875 29.7153 31.4875 30.2851 31.136 30.6366C30.7845 30.9881 30.2147 30.9881 29.8632 30.6366L28.1813 28.9546C27.4699 29.4258 26.6168 29.7002 25.6996 29.7002C23.2143 29.7002 21.1996 27.6855 21.1996 25.2002Z" fill="white"/>
</svg>
