<svg width="37" height="36" viewBox="0 0 37 36" fill="none" xmlns="http://www.w3.org/2000/svg">
<path fill-rule="evenodd" clip-rule="evenodd" d="M13.6338 5.09961H23.3655C25.0066 5.09959 26.3294 5.09957 27.3697 5.23944C28.4498 5.38466 29.3593 5.69533 30.0816 6.41763C30.8039 7.13993 31.1146 8.04938 31.2598 9.12951C31.3997 10.1699 31.3996 11.4927 31.3996 13.1338V18.0654C31.3996 19.7066 31.3997 21.0293 31.2598 22.0697C31.1146 23.1498 30.8039 24.0593 30.0816 24.7816C29.4841 25.3791 28.7558 25.6971 27.9029 25.8708C27.0747 26.0394 26.0756 26.0819 24.8928 26.0944L24.886 26.0945L24.6167 26.0953C24.5006 26.4604 24.3118 26.8076 24.0502 27.1146C23.8929 27.2991 23.7978 27.5286 23.7785 27.7704C23.6632 29.2156 22.5156 30.3632 21.0704 30.4785C20.8286 30.4978 20.5991 30.5929 20.4146 30.7502C19.3111 31.6905 17.6881 31.6905 16.5846 30.7502C16.4001 30.5929 16.1706 30.4978 15.9289 30.4785C14.4836 30.3632 13.336 29.2156 13.2207 27.7704C13.2014 27.5286 13.1063 27.2991 12.9491 27.1146C12.6878 26.808 12.4991 26.4613 12.383 26.0968C11.1346 26.0884 10.0897 26.0546 9.23123 25.8969C8.32164 25.7298 7.54755 25.4115 6.91763 24.7816C6.19533 24.0593 5.88466 23.1498 5.73944 22.0697C5.59957 21.0294 5.59959 19.7066 5.59961 18.0655V13.1338C5.59959 11.4927 5.59957 10.1699 5.73944 9.12951C5.88466 8.04938 6.19533 7.13993 6.91763 6.41763C7.63993 5.69533 8.54938 5.38466 9.62951 5.23944C10.6699 5.09957 11.9927 5.09959 13.6338 5.09961ZM12.3848 24.2968C12.5011 23.9343 12.6891 23.5896 12.9491 23.2846C13.1063 23.1001 13.2014 22.8706 13.2207 22.6289C13.336 21.1836 14.4836 20.036 15.9289 19.9207C16.1706 19.9014 16.4001 19.8063 16.5846 19.6491C17.6881 18.7087 19.3111 18.7087 20.4146 19.6491C20.5991 19.8063 20.8286 19.9014 21.0704 19.9207C22.5156 20.036 23.6632 21.1836 23.7785 22.6289C23.7978 22.8706 23.8929 23.1001 24.0502 23.2846C24.3097 23.5892 24.4977 23.9334 24.6139 24.2953L24.8769 24.2945C26.0593 24.2819 26.9023 24.2376 27.5438 24.107C28.1612 23.9812 28.5305 23.7871 28.8088 23.5088C29.1409 23.1767 29.3575 22.7104 29.4758 21.8299C29.5977 20.9234 29.5996 19.7221 29.5996 17.9996V13.1996C29.5996 11.4771 29.5977 10.2758 29.4758 9.36935C29.3575 8.48882 29.1409 8.02254 28.8088 7.69042C28.4767 7.35831 28.0104 7.14177 27.1299 7.02339C26.2234 6.90152 25.0221 6.89961 23.2996 6.89961H13.6996C11.9771 6.89961 10.7758 6.90152 9.86936 7.02339C8.98882 7.14177 8.52254 7.35831 8.19042 7.69042C7.85831 8.02254 7.64177 8.48883 7.52339 9.36936C7.40152 10.2758 7.39961 11.4771 7.39961 13.1996V17.9996C7.39961 19.7221 7.40152 20.9234 7.52339 21.8299C7.64177 22.7104 7.85831 23.1767 8.19042 23.5088C8.48257 23.8009 8.87626 24.0016 9.55643 24.1265C10.2406 24.2522 11.1355 24.288 12.3848 24.2968ZM13.9996 10.7996C13.9996 10.3026 14.4026 9.89961 14.8996 9.89961H22.0996C22.5967 9.89961 22.9996 10.3026 22.9996 10.7996C22.9996 11.2967 22.5967 11.6996 22.0996 11.6996H14.8996C14.4026 11.6996 13.9996 11.2967 13.9996 10.7996ZM11.5996 14.9996C11.5996 14.5026 12.0026 14.0996 12.4996 14.0996H24.4996C24.9967 14.0996 25.3996 14.5026 25.3996 14.9996C25.3996 15.4967 24.9967 15.8996 24.4996 15.8996H12.4996C12.0026 15.8996 11.5996 15.4967 11.5996 14.9996ZM19.2471 21.0191C18.8164 20.652 18.1829 20.652 17.7522 21.0191C17.2793 21.422 16.6914 21.6656 16.072 21.715C15.5079 21.76 15.06 22.2079 15.015 22.772C14.9656 23.3914 14.722 23.9793 14.3191 24.4522C13.952 24.8829 13.952 25.5164 14.3191 25.9471C14.722 26.4199 14.9656 27.0079 15.015 27.6272C15.06 28.1913 15.5079 28.6392 16.072 28.6842C16.6914 28.7337 17.2793 28.9772 17.7522 29.3802C18.1829 29.7472 18.8164 29.7472 19.2471 29.3802C19.7199 28.9772 20.3079 28.7337 20.9272 28.6842C21.4913 28.6392 21.9392 28.1913 21.9842 27.6272C22.0337 27.0079 22.2772 26.4199 22.6802 25.9471C23.0472 25.5164 23.0472 24.8829 22.6802 24.4522C22.2772 23.9793 22.0337 23.3914 21.9842 22.772C21.9392 22.2079 21.4913 21.76 20.9272 21.715C20.3079 21.6656 19.7199 21.422 19.2471 21.0191ZM19.6855 23.3417C20.0489 23.0025 20.6184 23.0221 20.9576 23.3855C21.2967 23.7489 21.2771 24.3184 20.9137 24.6576L18.3423 27.0576C17.9965 27.3803 17.4599 27.3803 17.1141 27.0576L16.0855 26.0976C15.7221 25.7584 15.7025 25.1889 16.0417 24.8255C16.3808 24.4621 16.9503 24.4425 17.3137 24.7817L17.7282 25.1685L19.6855 23.3417Z" fill="#09646E"/>
</svg>
