<svg width="37" height="36" viewBox="0 0 37 36" fill="none" xmlns="http://www.w3.org/2000/svg">
<path d="M27.7727 18.9822C27.6522 18.4999 27.1635 18.2068 26.6813 18.3273L21.8813 19.5273C21.3991 19.6479 21.1059 20.1365 21.2265 20.6187C21.347 21.1009 21.8357 21.3941 22.3179 21.2736L27.1179 20.0736C27.6001 19.953 27.8933 19.4644 27.7727 18.9822Z" fill="white"/>
<path d="M27.7996 10.2004C27.7996 9.70338 27.3967 9.30043 26.8996 9.30043C26.4026 9.30043 25.9996 9.70338 25.9996 10.2004V14.3267L25.1004 13.8996L25.0899 13.8943C25.031 13.8642 24.7832 13.7375 24.4996 13.7375C24.216 13.7375 23.9682 13.8642 23.9094 13.8943L23.8988 13.8996L22.9996 14.3267V11.9405C22.9996 11.4434 22.5967 11.0405 22.0996 11.0405C21.6026 11.0405 21.1996 11.4434 21.1996 11.9405L21.1996 15.0451C21.1994 15.1785 21.1991 15.3688 21.2246 15.5322C21.2558 15.7319 21.3585 16.1174 21.7577 16.3518C22.1422 16.5775 22.5182 16.4937 22.6969 16.4381C22.8528 16.3897 23.0236 16.3083 23.151 16.2476L24.4996 15.607L25.8482 16.2476C25.9756 16.3083 26.1465 16.3897 26.3023 16.4381C26.481 16.4937 26.857 16.5775 27.2415 16.3518C27.6407 16.1174 27.7434 15.7319 27.7746 15.5322C27.8001 15.3688 27.7998 15.1785 27.7996 15.0451L27.7996 10.2004Z" fill="white"/>
<path d="M9.22648 14.1822C9.34703 13.6999 9.83568 13.4068 10.3179 13.5273L15.1179 14.7273C15.6001 14.8479 15.8933 15.3365 15.7727 15.8187C15.6522 16.3009 15.1635 16.5941 14.6813 16.4736L9.88133 15.2736C9.39911 15.153 9.10593 14.6644 9.22648 14.1822Z" fill="white"/>
<path d="M10.3179 18.3273C9.83568 18.2068 9.34703 18.4999 9.22648 18.9822C9.10593 19.4644 9.39911 19.953 9.88133 20.0736L14.6813 21.2736C15.1635 21.3941 15.6522 21.1009 15.7727 20.6187C15.8933 20.1365 15.6001 19.6479 15.1179 19.5273L10.3179 18.3273Z" fill="white"/>
<path fill-rule="evenodd" clip-rule="evenodd" d="M31.3996 9.52026C31.3996 7.7643 30.0012 6.25837 28.1666 6.32227C26.8007 6.36986 25.0151 6.51196 23.6415 6.92317C22.4474 7.28064 21.1044 7.97885 20.0574 8.58478C19.0757 9.15294 17.8536 9.18128 16.859 8.65537C15.6644 8.0237 14.0928 7.27497 12.7292 6.91515C11.5763 6.61091 10.1178 6.46477 8.9337 6.39199C7.06381 6.27707 5.59961 7.79881 5.59961 9.5978V22.9727C5.59961 24.8162 7.09215 26.2554 8.86126 26.3661C10.0118 26.438 11.3064 26.5764 12.27 26.8307C13.461 27.145 14.9339 27.8438 16.1232 28.4777C17.6031 29.2666 19.3961 29.2666 20.8761 28.4777C22.0653 27.8438 23.5382 27.145 24.7292 26.8307C25.6928 26.5764 26.9874 26.438 28.138 26.3661C29.9071 26.2554 31.3996 24.8162 31.3996 22.9727V9.52026ZM28.2293 8.12118C28.967 8.09549 29.5996 8.70236 29.5996 9.52026V22.9727C29.5996 23.7956 28.9176 24.5138 28.0256 24.5696C26.8495 24.6431 25.4105 24.7893 24.27 25.0903C22.8656 25.4609 21.2389 26.2446 20.0294 26.8893C19.8275 26.9969 19.6162 27.0817 19.3996 27.1436V10.7309C19.9424 10.6222 20.4701 10.4256 20.959 10.1427C21.9796 9.55206 23.1735 8.94222 24.1577 8.64756C25.2967 8.30658 26.8867 8.16795 28.2293 8.12118ZM17.5996 10.7704C17.0536 10.6855 16.5184 10.5114 16.0176 10.2466C14.8454 9.62679 13.4245 8.96024 12.27 8.65558C11.2953 8.39839 9.98246 8.25985 8.82328 8.1886C8.06253 8.14185 7.39961 8.76117 7.39961 9.5978V22.9727C7.39961 23.7956 8.08158 24.5138 8.97362 24.5696C10.1497 24.6431 11.5887 24.7893 12.7292 25.0903C14.1337 25.4609 15.7603 26.2446 16.9699 26.8893C17.1718 26.9969 17.383 27.0817 17.5996 27.1436V10.7704Z" fill="white"/>
</svg>
