<svg width="37" height="36" viewBox="0 0 37 36" fill="none" xmlns="http://www.w3.org/2000/svg">
<path fill-rule="evenodd" clip-rule="evenodd" d="M12.8159 7.51215C12.9594 6.15613 14.1067 5.09961 15.5008 5.09961H21.5008C22.8948 5.09961 24.0422 6.15614 24.1857 7.51216C25.1014 7.5308 25.8931 7.57816 26.5692 7.70234C27.4788 7.86942 28.2528 8.18771 28.8828 8.81763C29.6051 9.53993 29.9157 10.4494 30.061 11.5295C30.2008 12.5699 30.2008 13.8927 30.2008 15.5338V22.8654C30.2008 24.5066 30.2008 25.8293 30.061 26.8697C29.9157 27.9498 29.6051 28.8593 28.8828 29.5816C28.1605 30.3039 27.251 30.6146 26.1709 30.7598C25.1305 30.8997 23.8077 30.8996 22.1666 30.8996H14.8349C13.1938 30.8996 11.871 30.8997 10.8307 30.7598C9.75055 30.6146 8.8411 30.3039 8.1188 29.5816C7.3965 28.8593 7.08583 27.9498 6.94061 26.8697C6.80074 25.8293 6.80076 24.5066 6.80078 22.8655V15.5338C6.80076 13.8927 6.80074 12.5699 6.94061 11.5295C7.08583 10.4494 7.3965 9.53993 8.1188 8.81763C8.74872 8.18771 9.52281 7.86942 10.4324 7.70234C11.1085 7.57816 11.9002 7.5308 12.8159 7.51215ZM14.6008 8.40084C14.6008 8.40148 14.6008 8.40212 14.6008 8.40277V8.99961C14.6008 9.49667 15.0037 9.89961 15.5008 9.89961H21.5008C21.9978 9.89961 22.4008 9.49667 22.4008 8.99961V8.40276C22.4008 8.40212 22.4008 8.40148 22.4008 8.40084V7.79961C22.4008 7.30255 21.9978 6.89961 21.5008 6.89961H15.5008C15.0037 6.89961 14.6008 7.30255 14.6008 7.79961V8.40084ZM24.1828 9.31265C24.0277 10.6563 22.8861 11.6996 21.5008 11.6996H15.5008C14.1155 11.6996 12.9739 10.6563 12.8187 9.31265C11.9569 9.33105 11.2928 9.37441 10.7576 9.47273C10.0774 9.59766 9.68374 9.79828 9.39159 10.0904C9.05948 10.4225 8.84294 10.8888 8.72456 11.7694C8.60269 12.6758 8.60078 13.8771 8.60078 15.5996V22.7996C8.60078 24.5221 8.60269 25.7234 8.72456 26.6299C8.84294 27.5104 9.05948 27.9767 9.39159 28.3088C9.72371 28.6409 10.19 28.8574 11.0705 28.9758C11.9769 29.0977 13.1783 29.0996 14.9008 29.0996H22.1008C23.8233 29.0996 25.0246 29.0977 25.931 28.9758C26.8116 28.8574 27.2779 28.6409 27.61 28.3088C27.9421 27.9767 28.1586 27.5104 28.277 26.6299C28.3989 25.7234 28.4008 24.5221 28.4008 22.7996V15.5996C28.4008 13.8771 28.3989 12.6758 28.277 11.7694C28.1586 10.8888 27.9421 10.4225 27.61 10.0904C27.3178 9.79828 26.9241 9.59766 26.244 9.47273C25.7088 9.37441 25.0446 9.33105 24.1828 9.31265ZM11.6008 20.9996C11.6008 20.5026 12.0037 20.0996 12.5008 20.0996H22.1008C22.5978 20.0996 23.0008 20.5026 23.0008 20.9996C23.0008 21.4967 22.5978 21.8996 22.1008 21.8996H12.5008C12.0037 21.8996 11.6008 21.4967 11.6008 20.9996ZM11.6008 25.1996C11.6008 24.7026 12.0037 24.2996 12.5008 24.2996H19.1008C19.5978 24.2996 20.0008 24.7026 20.0008 25.1996C20.0008 25.6967 19.5978 26.0996 19.1008 26.0996H12.5008C12.0037 26.0996 11.6008 25.6967 11.6008 25.1996Z" fill="#09646E"/>
</svg>
