<svg width="28" height="28" viewBox="0 0 28 28" fill="none" xmlns="http://www.w3.org/2000/svg">
<path fill-rule="evenodd" clip-rule="evenodd" d="M13.5335 5.3668C9.02314 5.3668 5.3668 9.02314 5.3668 13.5335C5.3668 18.0438 9.02314 21.7001 13.5335 21.7001C18.0438 21.7001 21.7001 18.0438 21.7001 13.5335C21.7001 9.02314 18.0438 5.3668 13.5335 5.3668ZM3.9668 13.5335C3.9668 8.24994 8.24994 3.9668 13.5335 3.9668C18.817 3.9668 23.1001 8.24994 23.1001 13.5335C23.1001 15.9233 22.2239 18.1084 20.7751 19.7851L23.8284 22.8385C24.1018 23.1119 24.1018 23.5551 23.8284 23.8284C23.5551 24.1018 23.1119 24.1018 22.8385 23.8284L19.7851 20.7751C18.1084 22.2239 15.9233 23.1001 13.5335 23.1001C8.24994 23.1001 3.9668 18.817 3.9668 13.5335Z" fill="#00808E" stroke="#00808E" stroke-linecap="round"/>
</svg>
