<svg width="37" height="36" viewBox="0 0 37 36" fill="none" xmlns="http://www.w3.org/2000/svg">
<path fill-rule="evenodd" clip-rule="evenodd" d="M12.4996 5.7002C12.9967 5.7002 13.3996 6.10314 13.3996 6.6002V7.51546C14.194 7.50018 15.0693 7.50019 16.0319 7.50019H20.9673C21.9299 7.50019 22.8052 7.50018 23.5996 7.51546V6.6002C23.5996 6.10314 24.0026 5.7002 24.4996 5.7002C24.9967 5.7002 25.3996 6.10314 25.3996 6.6002V7.5927C25.7115 7.61648 26.0069 7.64638 26.2864 7.68396C27.6933 7.87311 28.8321 8.27165 29.7301 9.16969C30.6282 10.0677 31.0267 11.2065 31.2158 12.6134C31.2763 13.063 31.3169 13.5537 31.3441 14.0883C31.38 14.1855 31.3996 14.2905 31.3996 14.4002C31.3996 14.4834 31.3883 14.5639 31.3672 14.6404C31.3996 15.6028 31.3996 16.6955 31.3996 17.9325V20.4679C31.3996 22.6732 31.3996 24.42 31.2158 25.787C31.0267 27.1939 30.6282 28.3327 29.7301 29.2307C28.8321 30.1287 27.6933 30.5273 26.2864 30.7164C24.9194 30.9002 23.1726 30.9002 20.9673 30.9002H16.0319C13.8266 30.9002 12.0798 30.9002 10.7128 30.7164C9.30588 30.5273 8.16714 30.1287 7.2691 29.2307C6.37107 28.3327 5.97253 27.1939 5.78337 25.787C5.59958 24.42 5.59959 22.6732 5.59961 20.4679V17.9325C5.5996 16.6955 5.59959 15.6028 5.63202 14.6404C5.6109 14.5639 5.59961 14.4834 5.59961 14.4002C5.59961 14.2905 5.61922 14.1855 5.65513 14.0883C5.68235 13.5537 5.72292 13.063 5.78337 12.6134C5.97253 11.2065 6.37107 10.0677 7.2691 9.16969C8.16714 8.27165 9.30588 7.87311 10.7128 7.68396C10.9923 7.64638 11.2877 7.61648 11.5996 7.5927V6.6002C11.5996 6.10314 12.0026 5.7002 12.4996 5.7002ZM7.41531 15.3002C7.39999 16.0835 7.39961 16.9754 7.39961 18.0002V20.4002C7.39961 22.6884 7.40152 24.314 7.56732 25.5472C7.72964 26.7545 8.03404 27.4501 8.54189 27.9579C9.04975 28.4658 9.74532 28.7702 10.9526 28.9325C12.1858 29.0983 13.8114 29.1002 16.0996 29.1002H20.8996C23.1878 29.1002 24.8134 29.0983 26.0466 28.9325C27.2539 28.7702 27.9495 28.4658 28.4573 27.9579C28.9652 27.4501 29.2696 26.7545 29.4319 25.5472C29.5977 24.314 29.5996 22.6884 29.5996 20.4002V18.0002C29.5996 16.9754 29.5992 16.0835 29.5839 15.3002H7.41531ZM29.5016 13.5002H7.49763C7.51685 13.2729 7.53983 13.0577 7.56732 12.8532C7.72964 11.6459 8.03404 10.9503 8.54189 10.4425C9.04975 9.93463 9.74532 9.63022 10.9526 9.46791C12.1858 9.30211 13.8114 9.3002 16.0996 9.3002H20.8996C23.1878 9.3002 24.8134 9.30211 26.0466 9.46791C27.2539 9.63022 27.9495 9.93463 28.4573 10.4425C28.9652 10.9503 29.2696 11.6459 29.4319 12.8532C29.4594 13.0577 29.4824 13.2729 29.5016 13.5002ZM23.2996 19.5002C23.7967 19.5002 24.1996 19.9031 24.1996 20.4002V21.9002H25.6996C26.1967 21.9002 26.5996 22.3032 26.5996 22.8002C26.5996 23.2973 26.1967 23.7002 25.6996 23.7002H24.1996V25.2002C24.1996 25.6973 23.7967 26.1002 23.2996 26.1002C22.8026 26.1002 22.3996 25.6973 22.3996 25.2002V23.7002H20.8996C20.4026 23.7002 19.9996 23.2973 19.9996 22.8002C19.9996 22.3032 20.4026 21.9002 20.8996 21.9002L22.3996 21.9002V20.4002C22.3996 19.9031 22.8026 19.5002 23.2996 19.5002Z" fill="white"/>
</svg>
