<svg width="37" height="36" viewBox="0 0 37 36" fill="none" xmlns="http://www.w3.org/2000/svg">
<path fill-rule="evenodd" clip-rule="evenodd" d="M15.4352 7.5C14.0758 7.49997 12.9649 7.49995 12.0879 7.61786C11.1711 7.74112 10.3763 8.00785 9.7419 8.64229C9.10746 9.27672 8.84073 10.0715 8.71747 10.9883C8.59956 11.8653 8.59958 12.9762 8.59961 14.3356L8.59961 20.7071C8.42148 20.7119 8.25621 20.7201 8.10443 20.7338C7.70941 20.7696 7.31827 20.8489 6.94961 21.0617C6.53916 21.2987 6.19832 21.6396 5.96134 22.05C5.7485 22.4187 5.66923 22.8098 5.63343 23.2048C5.59958 23.5784 5.59959 24.0336 5.59961 24.5613V24.6387C5.59959 25.1664 5.59958 25.6216 5.63343 25.9952C5.66923 26.3902 5.7485 26.7813 5.96134 27.15C6.19832 27.5605 6.53916 27.9013 6.94961 28.1383C7.31827 28.3511 7.70941 28.4304 8.10443 28.4662C8.47796 28.5 8.93313 28.5 9.46082 28.5H9.53828C10.066 28.5 10.5213 28.5 10.8948 28.4662C11.2898 28.4304 11.681 28.3511 12.0496 28.1383C12.4601 27.9013 12.8009 27.5605 13.0379 27.15C13.2507 26.7813 13.33 26.3902 13.3658 25.9952C13.3997 25.6216 13.3996 25.1664 13.3996 24.6387V24.5613C13.3996 24.0336 13.3997 23.5784 13.3658 23.2048C13.33 22.8098 13.2507 22.4187 13.0379 22.05C12.8009 21.6396 12.4601 21.2987 12.0496 21.0617C11.681 20.8489 11.2898 20.7696 10.8948 20.7338C10.743 20.7201 10.5777 20.7119 10.3996 20.7071V14.4C10.3996 12.9603 10.4015 11.9711 10.5014 11.2281C10.5978 10.511 10.7704 10.1593 11.0147 9.91508C11.2589 9.67083 11.6106 9.49823 12.3277 9.40181C13.0708 9.30191 14.06 9.3 15.4996 9.3H21.4996C22.9393 9.3 23.9285 9.30191 24.6715 9.40181C25.3886 9.49823 25.7403 9.67083 25.9845 9.91508C26.2288 10.1593 26.4014 10.511 26.4978 11.2281C26.5977 11.9711 26.5996 12.9603 26.5996 14.4V15.8272L25.736 14.9636C25.3845 14.6121 24.8147 14.6121 24.4632 14.9636C24.1117 15.3151 24.1117 15.8849 24.4632 16.2364L26.8632 18.6364C27.2147 18.9879 27.7845 18.9879 28.136 18.6364L30.536 16.2364C30.8875 15.8849 30.8875 15.3151 30.536 14.9636C30.1845 14.6121 29.6147 14.6121 29.2632 14.9636L28.3996 15.8272V14.3356C28.3996 12.9762 28.3997 11.8653 28.2818 10.9883C28.1585 10.0715 27.8918 9.27672 27.2573 8.64229C26.6229 8.00785 25.8281 7.74112 24.9114 7.61786C24.0343 7.49995 22.9235 7.49997 21.5641 7.5H15.4352ZM9.49961 22.5C8.92228 22.5 8.54945 22.5009 8.26691 22.5265C7.99673 22.551 7.89865 22.5923 7.84961 22.6206C7.7128 22.6996 7.59918 22.8132 7.52019 22.95C7.49188 22.999 7.45057 23.0971 7.42608 23.3673C7.40047 23.6498 7.39961 24.0227 7.39961 24.6C7.39961 25.1773 7.40047 25.5502 7.42608 25.8327C7.45057 26.1029 7.49188 26.201 7.52019 26.25C7.59918 26.3868 7.71279 26.5004 7.84961 26.5794C7.89865 26.6077 7.99673 26.649 8.26691 26.6735C8.54945 26.6991 8.92228 26.7 9.49961 26.7C10.0769 26.7 10.4498 26.6991 10.7323 26.6735C11.0025 26.649 11.1006 26.6077 11.1496 26.5794C11.2864 26.5004 11.4 26.3868 11.479 26.25C11.5073 26.201 11.5487 26.1029 11.5731 25.8327C11.5988 25.5502 11.5996 25.1773 11.5996 24.6C11.5996 24.0227 11.5988 23.6498 11.5731 23.3673C11.5487 23.0971 11.5073 22.999 11.479 22.95C11.4 22.8132 11.2864 22.6996 11.1496 22.6206C11.1006 22.5923 11.0025 22.551 10.7323 22.5265C10.4498 22.5009 10.0769 22.5 9.49961 22.5Z" fill="white"/>
<path fill-rule="evenodd" clip-rule="evenodd" d="M18.4609 20.7C17.9332 20.7 17.478 20.7 17.1044 20.7338C16.7094 20.7696 16.3183 20.8489 15.9496 21.0617C15.5392 21.2987 15.1983 21.6396 14.9613 22.05C14.7485 22.4187 14.6692 22.8098 14.6334 23.2048C14.5996 23.5784 14.5996 24.0336 14.5996 24.5613V24.6387C14.5996 25.1664 14.5996 25.6216 14.6334 25.9952C14.6692 26.3902 14.7485 26.7813 14.9613 27.15C15.1983 27.5605 15.5392 27.9013 15.9496 28.1383C16.3183 28.3511 16.7094 28.4304 17.1044 28.4662C17.478 28.5 17.9331 28.5 18.4608 28.5H18.5383C19.066 28.5 19.5213 28.5 19.8948 28.4662C20.2898 28.4304 20.681 28.3511 21.0496 28.1383C21.4601 27.9013 21.8009 27.5605 22.0379 27.15C22.2507 26.7813 22.33 26.3902 22.3658 25.9952C22.3997 25.6217 22.3996 25.1665 22.3996 24.6388V24.5613C22.3996 24.0336 22.3997 23.5784 22.3658 23.2048C22.33 22.8098 22.2507 22.4187 22.0379 22.05C21.8009 21.6396 21.4601 21.2987 21.0496 21.0617C20.681 20.8489 20.2898 20.7696 19.8948 20.7338C19.5213 20.7 19.0661 20.7 18.5383 20.7H18.4609ZM16.8496 22.6206C16.8986 22.5923 16.9967 22.551 17.2669 22.5265C17.5495 22.5009 17.9223 22.5 18.4996 22.5C19.0769 22.5 19.4498 22.5009 19.7323 22.5265C20.0025 22.551 20.1006 22.5923 20.1496 22.6206C20.2864 22.6996 20.4 22.8132 20.479 22.95C20.5073 22.999 20.5487 23.0971 20.5731 23.3673C20.5988 23.6498 20.5996 24.0227 20.5996 24.6C20.5996 25.1773 20.5988 25.5502 20.5731 25.8327C20.5487 26.1029 20.5073 26.201 20.479 26.25C20.4 26.3868 20.2864 26.5004 20.1496 26.5794C20.1006 26.6077 20.0025 26.649 19.7323 26.6735C19.4498 26.6991 19.0769 26.7 18.4996 26.7C17.9223 26.7 17.5495 26.6991 17.2669 26.6735C16.9967 26.649 16.8986 26.6077 16.8496 26.5794C16.7128 26.5004 16.5992 26.3868 16.5202 26.25C16.4919 26.201 16.4506 26.1029 16.4261 25.8327C16.4005 25.5502 16.3996 25.1773 16.3996 24.6C16.3996 24.0227 16.4005 23.6498 16.4261 23.3673C16.4506 23.0971 16.4919 22.999 16.5202 22.95C16.5992 22.8132 16.7128 22.6996 16.8496 22.6206Z" fill="white"/>
<path fill-rule="evenodd" clip-rule="evenodd" d="M27.4609 20.7H27.5383C28.066 20.7 28.5212 20.7 28.8948 20.7338C29.2898 20.7696 29.681 20.8489 30.0496 21.0617C30.4601 21.2987 30.8009 21.6396 31.0379 22.05C31.2507 22.4187 31.33 22.8098 31.3658 23.2048C31.3996 23.5783 31.3996 24.0335 31.3996 24.5612V24.6387C31.3996 25.1664 31.3996 25.6217 31.3658 25.9952C31.33 26.3902 31.2507 26.7813 31.0379 27.15C30.8009 27.5605 30.4601 27.9013 30.0496 28.1383C29.681 28.3511 29.2898 28.4304 28.8948 28.4662C28.5213 28.5 28.0661 28.5 27.5384 28.5H27.4609C26.9332 28.5 26.478 28.5 26.1044 28.4662C25.7094 28.4304 25.3183 28.3511 24.9496 28.1383C24.5392 27.9013 24.1983 27.5605 23.9613 27.15C23.7485 26.7813 23.6692 26.3902 23.6334 25.9952C23.5996 25.6216 23.5996 25.1664 23.5996 24.6387V24.5613C23.5996 24.0336 23.5996 23.5784 23.6334 23.2048C23.6692 22.8098 23.7485 22.4187 23.9613 22.05C24.1983 21.6396 24.5392 21.2987 24.9496 21.0617C25.3183 20.8489 25.7094 20.7696 26.1044 20.7338C26.478 20.7 26.9332 20.7 27.4609 20.7ZM26.2669 22.5265C25.9967 22.551 25.8986 22.5923 25.8496 22.6206C25.7128 22.6996 25.5992 22.8132 25.5202 22.95C25.4919 22.999 25.4506 23.0971 25.4261 23.3673C25.4005 23.6498 25.3996 24.0227 25.3996 24.6C25.3996 25.1773 25.4005 25.5502 25.4261 25.8327C25.4506 26.1029 25.4919 26.201 25.5202 26.25C25.5992 26.3868 25.7128 26.5004 25.8496 26.5794C25.8986 26.6077 25.9967 26.649 26.2669 26.6735C26.5495 26.6991 26.9223 26.7 27.4996 26.7C28.0769 26.7 28.4498 26.6991 28.7323 26.6735C29.0025 26.649 29.1006 26.6077 29.1496 26.5794C29.2864 26.5004 29.4 26.3868 29.479 26.25C29.5073 26.201 29.5487 26.1029 29.5731 25.8327C29.5987 25.5502 29.5996 25.1773 29.5996 24.6C29.5996 24.0227 29.5987 23.6498 29.5731 23.3673C29.5487 23.0971 29.5073 22.999 29.479 22.95C29.4 22.8132 29.2864 22.6996 29.1496 22.6206C29.1006 22.5923 29.0025 22.551 28.7323 22.5265C28.4498 22.5009 28.0769 22.5 27.4996 22.5C26.9223 22.5 26.5495 22.5009 26.2669 22.5265Z" fill="white"/>
</svg>
