<svg width="28" height="28" viewBox="0 0 28 28" fill="none" xmlns="http://www.w3.org/2000/svg">
<path fill-rule="evenodd" clip-rule="evenodd" d="M6.7668 10.8968C5.16923 10.5725 3.9668 9.16007 3.9668 7.4668C3.9668 5.5338 5.5338 3.9668 7.4668 3.9668C9.16007 3.9668 10.5725 5.16923 10.8968 6.7668H17.1035C17.4278 5.16923 18.8402 3.9668 20.5335 3.9668C22.4665 3.9668 24.0335 5.5338 24.0335 7.4668C24.0335 9.16007 22.831 10.5725 21.2335 10.8968V17.1035C22.831 17.4278 24.0335 18.8402 24.0335 20.5335C24.0335 22.4665 22.4665 24.0335 20.5335 24.0335C18.8402 24.0335 17.4278 22.831 17.1035 21.2335H10.8968C10.5725 22.831 9.16007 24.0335 7.4668 24.0335C5.5338 24.0335 3.9668 22.4665 3.9668 20.5335C3.9668 18.8402 5.16923 17.4278 6.7668 17.1035V10.8968ZM5.3668 7.4668C5.3668 6.307 6.307 5.3668 7.4668 5.3668C8.62659 5.3668 9.5668 6.307 9.5668 7.4668C9.5668 8.6266 8.6266 9.5668 7.4668 9.5668C6.307 9.5668 5.3668 8.6266 5.3668 7.4668ZM8.1668 17.1035L8.1668 10.8968C9.53819 10.6184 10.6184 9.53819 10.8968 8.1668H17.1035C17.3819 9.53819 18.4621 10.6184 19.8335 10.8968V17.1035C18.4621 17.3819 17.3819 18.4621 17.1035 19.8335H10.8968C10.6184 18.4621 9.53819 17.3819 8.1668 17.1035ZM7.4668 18.4335C6.307 18.4335 5.3668 19.3737 5.3668 20.5335C5.3668 21.6933 6.307 22.6335 7.4668 22.6335C8.6266 22.6335 9.5668 21.6933 9.5668 20.5335C9.5668 19.3737 8.62659 18.4335 7.4668 18.4335ZM22.6335 7.4668C22.6335 8.6266 21.6933 9.5668 20.5335 9.5668C19.3737 9.5668 18.4335 8.6266 18.4335 7.4668C18.4335 6.307 19.3737 5.3668 20.5335 5.3668C21.6933 5.3668 22.6335 6.307 22.6335 7.4668ZM18.4335 20.5335C18.4335 19.3737 19.3737 18.4335 20.5335 18.4335C21.6933 18.4335 22.6335 19.3737 22.6335 20.5335C22.6335 21.6933 21.6933 22.6335 20.5335 22.6335C19.3737 22.6335 18.4335 21.6933 18.4335 20.5335Z" fill="white"/>
</svg>
